<?xml version="1.0" encoding="UTF-8"?>
<!-- Generator: Adobe Illustrator 26.0.3, SVG Export Plug-In . SVG Version: 6.00 Build 0)  -->
<svg xmlns="http://www.w3.org/2000/svg" xmlns:xlink="http://www.w3.org/1999/xlink" version="1.1" id="Capa_1" x="0px" y="0px" viewBox="0 0 512 512" style="enable-background:new 0 0 512 512;" xml:space="preserve" width="512" height="512">
<g>
	<path d="M382.031,231.982V43.667c0-11.671-4.545-22.637-12.788-30.868C361.001,4.545,350.035,0,338.365,0H109.698   c-2.917,0-5.715,1.159-7.778,3.222l-98,98c-2.062,2.063-3.222,4.861-3.222,7.778v359.333C0.698,492.411,20.287,512,44.365,512   h294.001c24.077,0,43.666-19.589,43.666-43.667v-81.667h-22v81.667c0,11.947-9.72,21.667-21.666,21.667H44.365   c-11.947,0-21.666-9.72-21.666-21.667v-332h70.666c24.078,0,43.667-19.589,43.667-43.667V22h201.334   c5.788,0,11.226,2.253,15.322,6.355c4.091,4.085,6.344,9.523,6.344,15.312v188.315H382.031z M115.031,92.666   c0,11.947-9.72,21.667-21.667,21.667H22.698v-0.777L114.254,22h0.777V92.666z"/>
	<g>
		<path style="fill:#33CCCC;" d="M175.031,218H93.365c-6.075,0-11-4.925-11-11s4.925-11,11-11h81.667c6.075,0,11,4.925,11,11    S181.106,218,175.031,218z"/>
	</g>
	<g>
		<path d="M158.698,283.333H93.365c-6.075,0-11-4.925-11-11s4.925-11,11-11h65.333c6.075,0,11,4.925,11,11    S164.773,283.333,158.698,283.333z"/>
	</g>
	<g>
		<path style="fill:#33CCCC;" d="M158.698,348.667H93.365c-6.075,0-11-4.925-11-11s4.925-11,11-11h65.333c6.075,0,11,4.925,11,11    S164.773,348.667,158.698,348.667z"/>
	</g>
	<g>
		<path d="M175.031,414H93.365c-6.075,0-11-4.925-11-11s4.925-11,11-11h81.667c6.075,0,11,4.925,11,11S181.106,414,175.031,414z"/>
	</g>
	<path style="fill:#33CCCC;" d="M427.81,411.555l-37.688-37.689c15.353-18.786,24.577-42.768,24.577-68.867   c0-60.103-48.897-109-109-109c-60.103,0-109,48.897-109,109s48.897,109,109,109c26.098,0,50.08-9.224,68.866-24.577l37.688,37.689   c2.148,2.148,4.963,3.222,7.778,3.222c2.814,0,5.631-1.074,7.778-3.222C432.105,422.816,432.105,415.851,427.81,411.555z    M218.698,305c0-47.972,39.028-87,87-87c47.972,0,87,39.028,87,87s-39.028,87-87,87C257.727,392,218.698,352.972,218.698,305z"/>
	<g>
		<path d="M477.198,510.603c-9.105,0-17.669-3.549-24.111-9.992l-40.834-40.833c-6.443-6.444-9.991-15.007-9.991-24.112    c0-9.104,3.548-17.668,9.991-24.111c6.443-6.444,15.007-9.993,24.112-9.993c9.104,0,17.668,3.549,24.111,9.992l40.833,40.833    c6.443,6.443,9.992,15.006,9.992,24.111s-3.549,17.668-9.992,24.112C494.867,507.055,486.304,510.603,477.198,510.603z     M436.365,423.563c-3.228,0-6.267,1.26-8.556,3.549c-2.288,2.288-3.548,5.326-3.548,8.555c0,3.229,1.26,6.268,3.548,8.556    l40.834,40.833c2.288,2.289,5.326,3.548,8.555,3.548c3.229,0,6.267-1.26,8.555-3.548c2.288-2.289,3.549-5.327,3.549-8.556    s-1.261-6.267-3.549-8.555v0l-40.833-40.833C442.632,424.823,439.594,423.563,436.365,423.563z"/>
	</g>
</g>















</svg>
