<svg width="32" height="32" viewBox="0 0 32 32" fill="none" xmlns="http://www.w3.org/2000/svg">
<g clip-path="url(#clip0_8255_3488)">
<g clip-path="url(#clip1_8255_3488)">
<mask id="mask0_8255_3488" style="mask-type:luminance" maskUnits="userSpaceOnUse" x="-4" y="-1" width="37" height="37">
<path d="M33 -1H-4V36H33V-1Z" fill="white"/>
</mask>
<g mask="url(#mask0_8255_3488)">
<path d="M11.1708 9.05422L9.72438 11.9456C9.58004 12.234 9.34609 12.468 9.05769 12.6123L6.10562 14.089C5.00662 14.6388 5.00662 16.2071 6.10562 16.7569L9.05769 18.2336C9.34609 18.3779 9.58004 18.6119 9.72438 18.9003L11.2011 21.8524C11.7509 22.9514 13.3193 22.9514 13.8691 21.8524L15.3458 18.9003C15.4902 18.6119 15.7241 18.3779 16.0125 18.2336L18.8841 16.7972C19.9976 16.2402 19.9788 14.6446 18.8524 14.114L15.9845 12.7629C15.6735 12.6163 15.4227 12.3671 15.2745 12.057L13.8504 9.07819C13.315 7.95841 11.7261 7.94415 11.1708 9.05422Z" fill="#1F81BE"/>
<path d="M20.7104 19.3079L19.9535 20.8209C19.878 20.9718 19.7556 21.0942 19.6047 21.1697L18.06 21.9424C17.4849 22.23 17.4849 23.0508 18.06 23.3384L19.6047 24.1111C19.7556 24.1866 19.878 24.3091 19.9535 24.46L20.7263 26.0046C21.0139 26.5797 21.8346 26.5797 22.1222 26.0046L22.895 24.46C22.9705 24.3091 23.0929 24.1866 23.2438 24.1111L24.7464 23.3594C25.3291 23.068 25.3193 22.2331 24.7299 21.9555L23.2293 21.2485C23.0665 21.1718 22.9353 21.0414 22.8577 20.8791L22.1125 19.3204C21.8324 18.7345 21.0009 18.7271 20.7104 19.3079Z" fill="#1F81BE"/>
<path d="M21.6194 9.55343L21.2604 10.2711C21.2246 10.3427 21.1666 10.4007 21.0949 10.4366L20.3623 10.8031C20.0895 10.9396 20.0895 11.3288 20.3623 11.4653L21.0949 11.8318C21.1666 11.8677 21.2246 11.9257 21.2604 11.9973L21.6269 12.73C21.7634 13.0027 22.1527 13.0027 22.2892 12.73L22.6556 11.9973C22.6915 11.9257 22.7495 11.8677 22.8211 11.8318L23.5339 11.4753C23.8102 11.337 23.8056 10.941 23.526 10.8093L22.8141 10.474C22.737 10.4376 22.6748 10.3756 22.638 10.2987L22.2845 9.55939C22.1516 9.28149 21.7572 9.27787 21.6194 9.55343Z" fill="#1F81BE"/>
</g>
</g>
</g>
<defs>
<clipPath id="clip0_8255_3488">
<rect width="32" height="32" rx="16" fill="white"/>
</clipPath>
<clipPath id="clip1_8255_3488">
<rect width="37" height="37" fill="white" transform="translate(-4 -1)"/>
</clipPath>
</defs>
</svg>
