<svg width="20" height="20" viewBox="0 0 20 20" fill="none" xmlns="http://www.w3.org/2000/svg">
<path d="M16.6923 7.94254L10.4423 14.1925C10.3842 14.2506 10.3153 14.2967 10.2394 14.3282C10.1636 14.3597 10.0822 14.3758 10.0001 14.3758C9.91797 14.3758 9.83664 14.3597 9.76077 14.3282C9.68489 14.2967 9.61596 14.2506 9.55792 14.1925L3.30792 7.94254C3.19064 7.82526 3.12476 7.6662 3.12476 7.50035C3.12476 7.3345 3.19064 7.17544 3.30792 7.05816C3.42519 6.94088 3.58425 6.875 3.7501 6.875C3.91596 6.875 4.07502 6.94088 4.19229 7.05816L10.0001 12.8668L15.8079 7.05816C15.866 7.00009 15.9349 6.95403 16.0108 6.9226C16.0867 6.89117 16.168 6.875 16.2501 6.875C16.3322 6.875 16.4135 6.89117 16.4894 6.9226C16.5653 6.95403 16.6342 7.00009 16.6923 7.05816C16.7504 7.11623 16.7964 7.18517 16.8278 7.26104C16.8593 7.33691 16.8755 7.41823 16.8755 7.50035C16.8755 7.58247 16.8593 7.66379 16.8278 7.73966C16.7964 7.81553 16.7504 7.88447 16.6923 7.94254Z" fill="black"/>
</svg>
