<svg width="64" height="40" viewBox="0 0 64 40" fill="none" xmlns="http://www.w3.org/2000/svg">
<mask id="path-1-inside-1_6875_4638" fill="white">
<path d="M0 0H56C60.4183 0 64 3.58172 64 8V32C64 36.4183 60.4183 40 56 40H0V0Z"/>
</mask>
<path d="M0 0H64H0ZM64 40H0H64ZM-1 40V0H1V40H-1ZM64 0V40V0Z" fill="#DCE0E5" mask="url(#path-1-inside-1_6875_4638)"/>
<path d="M39.2067 20.7075C39.2067 20.7075 38.9992 21 38.4992 21C37.9992 21 36.0855 21 36.0855 21H18C17.7348 21 17.4804 20.8946 17.2929 20.7071C17.1054 20.5196 17 20.2652 17 20C17 19.7348 17.1054 19.4804 17.2929 19.2929C17.4804 19.1054 17.7348 19 18 19H36.0855H38.4992C38.4992 19 38.9992 19 39.2067 19.2925C39.2997 19.3854 39.3735 19.4957 39.4238 19.6171C39.4741 19.7385 39.5 19.8686 39.5 20C39.5 20.1314 39.4741 20.2615 39.4238 20.3829C39.3735 20.5043 39.2997 20.6146 39.2067 20.7075Z" fill="#14181F"/>
<path d="M39.2067 20.7075C39.2067 20.7075 38.9992 21 38.4992 21C37.9992 21 36.0855 21 36.0855 21H18C17.7348 21 17.4804 20.8946 17.2929 20.7071C17.1054 20.5196 17 20.2652 17 20C17 19.7348 17.1054 19.4804 17.2929 19.2929C17.4804 19.1054 17.7348 19 18 19H36.0855H38.4992C38.4992 19 38.9992 19 39.2067 19.2925C39.2997 19.3854 39.3735 19.4957 39.4238 19.6171C39.4741 19.7385 39.5 19.8686 39.5 20C39.5 20.1314 39.4741 20.2615 39.4238 20.3829C39.3735 20.5043 39.2997 20.6146 39.2067 20.7075Z" fill="black" fill-opacity="0.2"/>
<path d="M39.2067 20.7075C39.2067 20.7075 38.9992 21 38.4992 21C37.9992 21 36.0855 21 36.0855 21H18C17.7348 21 17.4804 20.8946 17.2929 20.7071C17.1054 20.5196 17 20.2652 17 20C17 19.7348 17.1054 19.4804 17.2929 19.2929C17.4804 19.1054 17.7348 19 18 19H36.0855H38.4992C38.4992 19 38.9992 19 39.2067 19.2925C39.2997 19.3854 39.3735 19.4957 39.4238 19.6171C39.4741 19.7385 39.5 19.8686 39.5 20C39.5 20.1314 39.4741 20.2615 39.4238 20.3829C39.3735 20.5043 39.2997 20.6146 39.2067 20.7075Z" fill="black" fill-opacity="0.2"/>
<path d="M39.2067 20.7075C39.2067 20.7075 38.9992 21 38.4992 21C37.9992 21 36.0855 21 36.0855 21H18C17.7348 21 17.4804 20.8946 17.2929 20.7071C17.1054 20.5196 17 20.2652 17 20C17 19.7348 17.1054 19.4804 17.2929 19.2929C17.4804 19.1054 17.7348 19 18 19H36.0855H38.4992C38.4992 19 38.9992 19 39.2067 19.2925C39.2997 19.3854 39.3735 19.4957 39.4238 19.6171C39.4741 19.7385 39.5 19.8686 39.5 20C39.5 20.1314 39.4741 20.2615 39.4238 20.3829C39.3735 20.5043 39.2997 20.6146 39.2067 20.7075Z" fill="black" fill-opacity="0.2"/>
<path d="M46.7071 20.7075L37.7071 29.7075C37.5194 29.8951 37.2649 30.0006 36.9996 30.0006C36.7342 30.0006 36.4797 29.8951 36.2921 29.7075C36.1044 29.5199 35.999 29.2654 35.999 29C35.999 28.7346 36.1044 28.4801 36.2921 28.2925L43.5858 21L44.5 20L43.5859 19L36.2921 11.7075C36.1044 11.5199 35.999 11.2654 35.999 11C35.999 10.7346 36.1044 10.4801 36.2921 10.2925C36.4797 10.1049 36.7342 9.99945 36.9996 9.99945C37.2649 9.99945 37.5194 10.1049 37.7071 10.2925L46.7071 19.2925C46.8001 19.3854 46.8738 19.4957 46.9241 19.6171C46.9745 19.7385 47.0004 19.8686 47.0004 20C47.0004 20.1314 46.9745 20.2615 46.9241 20.3829C46.8738 20.5043 46.8001 20.6146 46.7071 20.7075Z" fill="#14181F"/>
<path d="M46.7071 20.7075L37.7071 29.7075C37.5194 29.8951 37.2649 30.0006 36.9996 30.0006C36.7342 30.0006 36.4797 29.8951 36.2921 29.7075C36.1044 29.5199 35.999 29.2654 35.999 29C35.999 28.7346 36.1044 28.4801 36.2921 28.2925L43.5858 21L44.5 20L43.5859 19L36.2921 11.7075C36.1044 11.5199 35.999 11.2654 35.999 11C35.999 10.7346 36.1044 10.4801 36.2921 10.2925C36.4797 10.1049 36.7342 9.99945 36.9996 9.99945C37.2649 9.99945 37.5194 10.1049 37.7071 10.2925L46.7071 19.2925C46.8001 19.3854 46.8738 19.4957 46.9241 19.6171C46.9745 19.7385 47.0004 19.8686 47.0004 20C47.0004 20.1314 46.9745 20.2615 46.9241 20.3829C46.8738 20.5043 46.8001 20.6146 46.7071 20.7075Z" fill="black" fill-opacity="0.2"/>
<path d="M46.7071 20.7075L37.7071 29.7075C37.5194 29.8951 37.2649 30.0006 36.9996 30.0006C36.7342 30.0006 36.4797 29.8951 36.2921 29.7075C36.1044 29.5199 35.999 29.2654 35.999 29C35.999 28.7346 36.1044 28.4801 36.2921 28.2925L43.5858 21L44.5 20L43.5859 19L36.2921 11.7075C36.1044 11.5199 35.999 11.2654 35.999 11C35.999 10.7346 36.1044 10.4801 36.2921 10.2925C36.4797 10.1049 36.7342 9.99945 36.9996 9.99945C37.2649 9.99945 37.5194 10.1049 37.7071 10.2925L46.7071 19.2925C46.8001 19.3854 46.8738 19.4957 46.9241 19.6171C46.9745 19.7385 47.0004 19.8686 47.0004 20C47.0004 20.1314 46.9745 20.2615 46.9241 20.3829C46.8738 20.5043 46.8001 20.6146 46.7071 20.7075Z" fill="black" fill-opacity="0.2"/>
<path d="M46.7071 20.7075L37.7071 29.7075C37.5194 29.8951 37.2649 30.0006 36.9996 30.0006C36.7342 30.0006 36.4797 29.8951 36.2921 29.7075C36.1044 29.5199 35.999 29.2654 35.999 29C35.999 28.7346 36.1044 28.4801 36.2921 28.2925L43.5858 21L44.5 20L43.5859 19L36.2921 11.7075C36.1044 11.5199 35.999 11.2654 35.999 11C35.999 10.7346 36.1044 10.4801 36.2921 10.2925C36.4797 10.1049 36.7342 9.99945 36.9996 9.99945C37.2649 9.99945 37.5194 10.1049 37.7071 10.2925L46.7071 19.2925C46.8001 19.3854 46.8738 19.4957 46.9241 19.6171C46.9745 19.7385 47.0004 19.8686 47.0004 20C47.0004 20.1314 46.9745 20.2615 46.9241 20.3829C46.8738 20.5043 46.8001 20.6146 46.7071 20.7075Z" fill="black" fill-opacity="0.2"/>
</svg>
