<svg width="35" height="32" viewBox="0 0 35 32" fill="none" xmlns="http://www.w3.org/2000/svg">
<path d="M-45.9363 -16C-44.5073 -18.4752 -41.8663 -20 -39.0081 -20L-6.24574 -20C-3.38761 -20 -0.7466 -18.4752 0.682463 -16L17.0637 12.3731C18.4927 14.8483 18.4927 17.8979 17.0637 20.3731L0.682467 48.7461C-0.746596 51.2213 -3.38761 52.7461 -6.24574 52.7461L-39.0081 52.7461C-41.8663 52.7461 -44.5073 51.2213 -45.9363 48.7461L-62.3175 20.3731C-63.7466 17.8979 -63.7466 14.8483 -62.3175 12.3731L-45.9363 -16Z" fill="#DE170A"/>
<path d="M-53.9363 -16C-52.5073 -18.4752 -49.8663 -20 -47.0081 -20L-14.2457 -20C-11.3876 -20 -8.7466 -18.4752 -7.31754 -16L9.06366 12.3731C10.4927 14.8483 10.4927 17.8979 9.06366 20.3731L-7.31753 48.7461C-8.7466 51.2213 -11.3876 52.7461 -14.2457 52.7461L-47.0081 52.7461C-49.8663 52.7461 -52.5073 51.2213 -53.9363 48.7461L-70.3175 20.3731C-71.7466 17.8979 -71.7466 14.8483 -70.3175 12.3731L-53.9363 -16Z" fill="#CC0D00"/>
</svg>
