<svg width="55" height="48" viewBox="0 0 55 48" fill="none" xmlns="http://www.w3.org/2000/svg">
<path d="M-25.9363 -8C-24.5073 -10.4752 -21.8663 -12 -19.0081 -12L13.7543 -12C16.6124 -12 19.2534 -10.4752 20.6825 -8L37.0637 20.3731C38.4927 22.8483 38.4927 25.8979 37.0637 28.3731L20.6825 56.7461C19.2534 59.2213 16.6124 60.7461 13.7543 60.7461L-19.0081 60.7461C-21.8663 60.7461 -24.5073 59.2213 -25.9363 56.7461L-42.3175 28.3731C-43.7466 25.8979 -43.7466 22.8483 -42.3175 20.3731L-25.9363 -8Z" fill="#D3EDFF"/>
<path d="M-43.9363 -8C-42.5073 -10.4752 -39.8663 -12 -37.0081 -12L-4.24574 -12C-1.38761 -12 1.2534 -10.4752 2.68246 -8L19.0637 20.3731C20.4927 22.8483 20.4927 25.8979 19.0637 28.3731L2.68247 56.7461C1.2534 59.2213 -1.38761 60.7461 -4.24574 60.7461L-37.0081 60.7461C-39.8663 60.7461 -42.5073 59.2213 -43.9363 56.7461L-60.3175 28.3731C-61.7466 25.8979 -61.7466 22.8483 -60.3175 20.3731L-43.9363 -8Z" fill="#C3E6F9"/>
</svg>
