<svg width="55" height="40" viewBox="0 0 55 40" fill="none" xmlns="http://www.w3.org/2000/svg">
<path d="M-25.9363 -12C-24.5073 -14.4752 -21.8663 -16 -19.0081 -16L13.7543 -16C16.6124 -16 19.2534 -14.4752 20.6825 -12L37.0637 16.3731C38.4927 18.8483 38.4927 21.8979 37.0637 24.3731L20.6825 52.7461C19.2534 55.2213 16.6124 56.7461 13.7543 56.7461L-19.0081 56.7461C-21.8663 56.7461 -24.5073 55.2213 -25.9363 52.7461L-42.3175 24.3731C-43.7466 21.8979 -43.7466 18.8483 -42.3175 16.3731L-25.9363 -12Z" fill="#FFD8D5"/>
<path d="M-43.9363 -12C-42.5073 -14.4752 -39.8663 -16 -37.0081 -16L-4.24574 -16C-1.38761 -16 1.2534 -14.4752 2.68246 -12L19.0637 16.3731C20.4927 18.8483 20.4927 21.8979 19.0637 24.3731L2.68247 52.7461C1.2534 55.2213 -1.38761 56.7461 -4.24574 56.7461L-37.0081 56.7461C-39.8663 56.7461 -42.5073 55.2213 -43.9363 52.7461L-60.3175 24.3731C-61.7466 21.8979 -61.7466 18.8483 -60.3175 16.3731L-43.9363 -12Z" fill="#F9CBC8"/>
</svg>
