<svg width="32" height="32" viewBox="0 0 32 32" fill="none" xmlns="http://www.w3.org/2000/svg">
<path d="M23.2067 16.7075C23.2067 16.7075 22.9992 17 22.4992 17C21.9992 17 20.0855 17 20.0855 17H2C1.73478 17 1.48043 16.8946 1.29289 16.7071C1.10536 16.5196 1 16.2652 1 16C1 15.7348 1.10536 15.4804 1.29289 15.2929C1.48043 15.1054 1.73478 15 2 15H20.0855H22.4992C22.4992 15 22.9992 15 23.2067 15.2925C23.2997 15.3854 23.3735 15.4957 23.4238 15.6171C23.4741 15.7385 23.5 15.8686 23.5 16C23.5 16.1314 23.4741 16.2615 23.4238 16.3829C23.3735 16.5043 23.2997 16.6146 23.2067 16.7075Z" fill="white"/>
<path d="M30.7081 16.7081L21.7081 25.7081C21.5204 25.8957 21.2659 26.0011 21.0006 26.0011C20.7352 26.0011 20.4807 25.8957 20.2931 25.7081C20.1054 25.5204 20 25.2659 20 25.0006C20 24.7352 20.1054 24.4807 20.2931 24.2931L27.5868 17.0006L28.501 16.0005L27.5869 15.0006L20.2931 7.70806C20.1054 7.52042 20 7.26592 20 7.00056C20 6.73519 20.1054 6.4807 20.2931 6.29306C20.4807 6.10542 20.7352 6 21.0006 6C21.2659 6 21.5204 6.10542 21.7081 6.29306L30.7081 15.2931C30.801 15.3859 30.8748 15.4962 30.9251 15.6176C30.9754 15.739 31.0013 15.8691 31.0013 16.0006C31.0013 16.132 30.9754 16.2621 30.9251 16.3835C30.8748 16.5049 30.801 16.6152 30.7081 16.7081Z" fill="white"/>
</svg>
