<svg width="32" height="33" viewBox="0 0 32 33" fill="none" xmlns="http://www.w3.org/2000/svg">
<path d="M6 5.5625H26C26.4495 5.5625 26.8828 5.71868 27.2275 6.00098L27.3701 6.12988C27.7335 6.49323 27.9375 6.98614 27.9375 7.5V14.8477C27.9374 25.3072 19.6441 29.2149 17.0449 30.1816L16.6055 30.3369H16.6045C16.2615 30.4535 15.8933 30.4683 15.5439 30.3809L15.3955 30.3369H15.3945C13.5001 29.7066 4.06259 26.0039 4.0625 14.8477V7.5C4.0625 7.05053 4.21868 6.61717 4.50098 6.27246L4.62988 6.12988C4.99323 5.76653 5.48614 5.5625 6 5.5625ZM5.9375 14.8486C5.9375 24.7044 14.2858 27.9908 15.9805 28.5557L16 28.5625L16.0195 28.5557C17.7292 27.9845 26.0625 24.6956 26.0625 14.8486V7.4375H5.9375V14.8486ZM21 12.5615C21.1232 12.5615 21.2456 12.5866 21.3594 12.6338C21.473 12.6809 21.5761 12.7499 21.6631 12.8369C21.7501 12.9239 21.8191 13.027 21.8662 13.1406C21.9134 13.2544 21.9385 13.3768 21.9385 13.5C21.9385 13.6232 21.9134 13.7456 21.8662 13.8594C21.8309 13.9444 21.7837 14.0238 21.7256 14.0947L21.6631 14.1631L14.6631 21.1631C14.5761 21.2502 14.4731 21.32 14.3594 21.3672C14.2456 21.4144 14.1232 21.4385 14 21.4385C13.8768 21.4385 13.7544 21.4144 13.6406 21.3672C13.5555 21.3319 13.4763 21.2839 13.4053 21.2256L13.3369 21.1631L10.3369 18.1631C10.161 17.9872 10.0615 17.7488 10.0615 17.5C10.0615 17.2512 10.161 17.0128 10.3369 16.8369C10.5128 16.661 10.7512 16.5615 11 16.5615C11.2178 16.5615 11.4278 16.6376 11.5947 16.7744L11.6631 16.8369L13.9561 19.1289L14 19.1738L14.0439 19.1289L20.3369 12.8369C20.4239 12.7499 20.527 12.6809 20.6406 12.6338C20.7544 12.5866 20.8768 12.5615 21 12.5615Z" fill="#61960D" stroke="#61960D" stroke-width="0.125"/>
</svg>
