<svg width="24" height="24" viewBox="0 0 24 24" fill="none" xmlns="http://www.w3.org/2000/svg">
<path d="M3.70408 8.2004C3.8086 8.09552 3.93279 8.0123 4.06954 7.95552C4.20628 7.89874 4.35289 7.86951 4.50096 7.86951C4.64902 7.86951 4.79563 7.89874 4.93238 7.95552C5.06912 8.0123 5.19332 8.09551 5.29783 8.20039L12 14.9026L18.7041 8.20037C18.9154 7.98902 19.2021 7.87029 19.501 7.87029C19.7998 7.87029 20.0865 7.98902 20.2978 8.20036C20.5092 8.41171 20.6279 8.69835 20.6279 8.99724C20.6279 9.29612 20.5092 9.58277 20.2978 9.79411L12.7979 17.2941C12.6933 17.399 12.5691 17.4822 12.4324 17.539C12.2957 17.5958 12.149 17.625 12.001 17.625C11.8529 17.625 11.7063 17.5958 11.5696 17.539C11.4328 17.4822 11.3086 17.399 11.2041 17.2941L3.70409 9.79415C3.59921 9.68963 3.51599 9.56544 3.45921 9.42869C3.40243 9.29195 3.3732 9.14534 3.3732 8.99727C3.3732 8.84921 3.40243 8.7026 3.45921 8.56585C3.51599 8.42911 3.5992 8.30491 3.70408 8.2004Z" fill="#14181F"/>
<path d="M3.70408 8.2004C3.8086 8.09552 3.93279 8.0123 4.06954 7.95552C4.20628 7.89874 4.35289 7.86951 4.50096 7.86951C4.64902 7.86951 4.79563 7.89874 4.93238 7.95552C5.06912 8.0123 5.19332 8.09551 5.29783 8.20039L12 14.9026L18.7041 8.20037C18.9154 7.98902 19.2021 7.87029 19.501 7.87029C19.7998 7.87029 20.0865 7.98902 20.2978 8.20036C20.5092 8.41171 20.6279 8.69835 20.6279 8.99724C20.6279 9.29612 20.5092 9.58277 20.2978 9.79411L12.7979 17.2941C12.6933 17.399 12.5691 17.4822 12.4324 17.539C12.2957 17.5958 12.149 17.625 12.001 17.625C11.8529 17.625 11.7063 17.5958 11.5696 17.539C11.4328 17.4822 11.3086 17.399 11.2041 17.2941L3.70409 9.79415C3.59921 9.68963 3.51599 9.56544 3.45921 9.42869C3.40243 9.29195 3.3732 9.14534 3.3732 8.99727C3.3732 8.84921 3.40243 8.7026 3.45921 8.56585C3.51599 8.42911 3.5992 8.30491 3.70408 8.2004Z" fill="black" fill-opacity="0.2"/>
<path d="M3.70408 8.2004C3.8086 8.09552 3.93279 8.0123 4.06954 7.95552C4.20628 7.89874 4.35289 7.86951 4.50096 7.86951C4.64902 7.86951 4.79563 7.89874 4.93238 7.95552C5.06912 8.0123 5.19332 8.09551 5.29783 8.20039L12 14.9026L18.7041 8.20037C18.9154 7.98902 19.2021 7.87029 19.501 7.87029C19.7998 7.87029 20.0865 7.98902 20.2978 8.20036C20.5092 8.41171 20.6279 8.69835 20.6279 8.99724C20.6279 9.29612 20.5092 9.58277 20.2978 9.79411L12.7979 17.2941C12.6933 17.399 12.5691 17.4822 12.4324 17.539C12.2957 17.5958 12.149 17.625 12.001 17.625C11.8529 17.625 11.7063 17.5958 11.5696 17.539C11.4328 17.4822 11.3086 17.399 11.2041 17.2941L3.70409 9.79415C3.59921 9.68963 3.51599 9.56544 3.45921 9.42869C3.40243 9.29195 3.3732 9.14534 3.3732 8.99727C3.3732 8.84921 3.40243 8.7026 3.45921 8.56585C3.51599 8.42911 3.5992 8.30491 3.70408 8.2004Z" fill="black" fill-opacity="0.2"/>
<path d="M3.70408 8.2004C3.8086 8.09552 3.93279 8.0123 4.06954 7.95552C4.20628 7.89874 4.35289 7.86951 4.50096 7.86951C4.64902 7.86951 4.79563 7.89874 4.93238 7.95552C5.06912 8.0123 5.19332 8.09551 5.29783 8.20039L12 14.9026L18.7041 8.20037C18.9154 7.98902 19.2021 7.87029 19.501 7.87029C19.7998 7.87029 20.0865 7.98902 20.2978 8.20036C20.5092 8.41171 20.6279 8.69835 20.6279 8.99724C20.6279 9.29612 20.5092 9.58277 20.2978 9.79411L12.7979 17.2941C12.6933 17.399 12.5691 17.4822 12.4324 17.539C12.2957 17.5958 12.149 17.625 12.001 17.625C11.8529 17.625 11.7063 17.5958 11.5696 17.539C11.4328 17.4822 11.3086 17.399 11.2041 17.2941L3.70409 9.79415C3.59921 9.68963 3.51599 9.56544 3.45921 9.42869C3.40243 9.29195 3.3732 9.14534 3.3732 8.99727C3.3732 8.84921 3.40243 8.7026 3.45921 8.56585C3.51599 8.42911 3.5992 8.30491 3.70408 8.2004Z" fill="black" fill-opacity="0.2"/>
</svg>
