<svg width="52" height="53" viewBox="0 0 52 53" fill="none" xmlns="http://www.w3.org/2000/svg">
<path d="M15 13.5625H37C37.5139 13.5625 38.0068 13.7665 38.3701 14.1299C38.7335 14.4932 38.9375 14.9861 38.9375 15.5V37.5C38.9375 38.0139 38.7335 38.5068 38.3701 38.8701C38.0068 39.2335 37.5139 39.4375 37 39.4375H15C14.4861 39.4375 13.9932 39.2335 13.6299 38.8701C13.2665 38.5068 13.0625 38.0139 13.0625 37.5V15.5C13.0625 14.9861 13.2665 14.4932 13.6299 14.1299C13.9932 13.7665 14.4861 13.5625 15 13.5625ZM21 23.4375C20.7182 23.4375 20.4483 23.5498 20.249 23.749C20.0498 23.9483 19.9375 24.2182 19.9375 24.5V32.5C19.9375 32.7818 20.0498 33.0517 20.249 33.251C20.4483 33.4502 20.7182 33.5625 21 33.5625C21.2818 33.5625 21.5517 33.4502 21.751 33.251C21.9502 33.0517 22.0625 32.7818 22.0625 32.5V24.5C22.0625 24.2182 21.9502 23.9483 21.751 23.749C21.5517 23.5498 21.2818 23.4375 21 23.4375ZM28.252 23.4453C27.4526 23.4889 26.6797 23.7432 26.0098 24.1797C25.9394 23.9612 25.8011 23.7699 25.6123 23.6367C25.3997 23.4868 25.1394 23.4201 24.8809 23.4492C24.6224 23.4784 24.3838 23.6015 24.21 23.7949C24.0361 23.9885 23.9388 24.2397 23.9375 24.5V32.5C23.9375 32.7818 24.0498 33.0517 24.249 33.251C24.4483 33.4502 24.7182 33.5625 25 33.5625C25.2818 33.5625 25.5517 33.4502 25.751 33.251C25.9502 33.0517 26.0625 32.7818 26.0625 32.5V28C26.0625 27.3535 26.3192 26.7335 26.7764 26.2764C27.2335 25.8192 27.8535 25.5625 28.5 25.5625C29.1465 25.5625 29.7665 25.8192 30.2236 26.2764C30.6808 26.7335 30.9375 27.3535 30.9375 28V32.5C30.9375 32.7818 31.0498 33.0517 31.249 33.251C31.4483 33.4502 31.7182 33.5625 32 33.5625C32.2818 33.5625 32.5517 33.4502 32.751 33.251C32.9502 33.0517 33.0625 32.7818 33.0625 32.5V28L33.0518 27.6904C33.0025 26.9698 32.7823 26.2698 32.4082 25.6484C31.9807 24.9384 31.3681 24.3577 30.6357 23.9697C29.9035 23.5818 29.0794 23.4003 28.252 23.4453ZM21.5977 19.5566C21.3122 19.4384 20.9983 19.4075 20.6953 19.4678C20.3922 19.5281 20.114 19.677 19.8955 19.8955C19.677 20.114 19.5281 20.3922 19.4678 20.6953C19.4075 20.9983 19.4384 21.3122 19.5566 21.5977C19.6749 21.8831 19.875 22.1271 20.1318 22.2988C20.3888 22.4705 20.691 22.5625 21 22.5625C21.4144 22.5625 21.8115 22.3975 22.1045 22.1045C22.3975 21.8115 22.5625 21.4144 22.5625 21C22.5625 20.691 22.4705 20.3888 22.2988 20.1318C22.1271 19.875 21.8831 19.6749 21.5977 19.5566Z" fill="white" stroke="white" stroke-width="0.125"/>
</svg>
