<svg width="52" height="53" viewBox="0 0 52 53" fill="none" xmlns="http://www.w3.org/2000/svg">
<path d="M26 15.5625C26.1868 15.5625 27.9838 15.5588 30.2686 15.7617C32.4116 15.952 34.9789 16.324 37.0498 17.0488L37.457 17.1982C37.8906 17.3683 38.2776 17.6393 38.5859 17.9883C38.8557 18.2937 39.0589 18.6512 39.1826 19.0381L39.2305 19.2051V19.2061C39.5526 20.4475 39.9375 22.7219 39.9375 26.5C39.9375 29.8058 39.6429 31.9584 39.3535 33.2783L39.2305 33.7939V33.7949C39.1153 34.2462 38.8942 34.6636 38.5859 35.0127C38.3161 35.3183 37.9861 35.5638 37.6172 35.7344L37.457 35.8027C35.4146 36.5914 32.7891 37.0004 30.5625 37.2119C28.337 37.4234 26.5147 37.4375 26.082 37.4375H25.918C25.4853 37.4375 23.6636 37.4234 21.4385 37.2119C19.3515 37.0136 16.9136 36.6418 14.9326 35.9463L14.543 35.8027C14.1093 35.6326 13.7224 35.3619 13.4141 35.0127C13.1442 34.707 12.941 34.3491 12.8174 33.9619L12.7695 33.7949V33.7939L12.6465 33.2793C12.3571 31.9607 12.0625 29.806 12.0625 26.5C12.0625 23.194 12.3571 21.0393 12.6465 19.7207L12.7695 19.2061V19.2051C12.8849 18.7541 13.1059 18.3372 13.4141 17.9883C13.684 17.6828 14.014 17.4371 14.3828 17.2666L14.543 17.1982C16.6769 16.3741 19.4456 15.9647 21.7314 15.7617C24.0162 15.5588 25.8132 15.5625 26 15.5625ZM24.0273 21.9375C23.9256 21.9326 23.8242 21.9558 23.7344 22.0039C23.6446 22.052 23.5699 22.1236 23.5176 22.2109C23.4653 22.2983 23.4374 22.3982 23.4375 22.5V30.5L23.4424 30.5762C23.4526 30.6513 23.4784 30.7236 23.5176 30.7891C23.5699 30.8764 23.6446 30.948 23.7344 30.9961C23.8242 31.0442 23.9256 31.0674 24.0273 31.0625C24.1036 31.0588 24.1779 31.039 24.2461 31.0059L24.3125 30.9678L30.3115 26.9678L30.3125 26.9688C30.3896 26.9174 30.4523 26.8473 30.4961 26.7656C30.5399 26.6839 30.5635 26.5927 30.5635 26.5C30.5635 26.4073 30.5399 26.3161 30.4961 26.2344C30.4523 26.1527 30.3896 26.0826 30.3125 26.0312H30.3115L24.3125 22.0322C24.2278 21.9757 24.129 21.9424 24.0273 21.9375Z" fill="white" stroke="white" stroke-width="0.125"/>
</svg>
