<svg width="53" height="53" viewBox="0 0 53 53" fill="none" xmlns="http://www.w3.org/2000/svg">
<path d="M18.2862 15.1827C21.6108 17.6269 25.1873 22.5819 26.5 25.241V32.2643C26.5 32.1148 26.4411 32.2837 26.3142 32.6477C25.6291 34.6182 22.9529 42.3088 16.8335 36.1607C13.6113 32.9236 15.103 29.6866 20.9683 28.7093C17.6129 29.2682 13.8406 28.3444 12.8057 24.7227C12.5075 23.6808 12 17.2633 12 16.3966C12 12.0549 15.8874 13.4196 18.2862 15.1827ZM34.7138 15.1827C31.3892 17.6269 27.8127 22.5819 26.5 25.241V32.2643C26.5 32.1148 26.5589 32.2837 26.6858 32.6477C27.3709 34.6182 30.0471 42.3088 36.1665 36.1607C39.3887 32.9236 37.897 29.6866 32.0317 28.7093C35.3871 29.2682 39.1594 28.3444 40.1943 24.7227C40.4925 23.6808 41 17.2633 41 16.3966C41 12.0549 37.1131 13.4196 34.7138 15.1827Z" fill="white"/>
</svg>
