<svg width="52" height="53" viewBox="0 0 52 53" fill="none" xmlns="http://www.w3.org/2000/svg">
<path d="M14 16.5625H38C38.2486 16.5625 38.4873 16.6611 38.6631 16.8369C38.8389 17.0127 38.9375 17.2514 38.9375 17.5V34.5C38.9375 35.0139 38.7335 35.5068 38.3701 35.8701C38.0068 36.2335 37.5139 36.4375 37 36.4375H15C14.4861 36.4375 13.9932 36.2335 13.6299 35.8701C13.2665 35.5068 13.0625 35.0139 13.0625 34.5V17.5L13.0674 17.4072C13.0887 17.1927 13.1831 16.9907 13.3369 16.8369C13.5127 16.6611 13.7514 16.5625 14 16.5625ZM36.958 19.7275L26.6338 29.1914C26.4608 29.3501 26.2347 29.4385 26 29.4385C25.7947 29.4385 25.5959 29.3711 25.4336 29.248L25.3662 29.1914L15.042 19.7275L14.9375 19.6318V34.5625H37.0625V19.6318L36.958 19.7275Z" fill="white" stroke="white" stroke-width="0.125"/>
</svg>
