<svg width="16" height="16" viewBox="0 0 16 16" fill="none" xmlns="http://www.w3.org/2000/svg">
<path d="M14.3437 7.06242L10.3794 5.62492L8.93748 1.65617C8.86644 1.46479 8.73854 1.29974 8.57095 1.18318C8.40336 1.06662 8.20411 1.00415 7.99998 1.00415C7.79584 1.00415 7.59659 1.06662 7.42901 1.18318C7.26142 1.29974 7.13351 1.46479 7.06248 1.65617L5.62498 5.62054L1.65623 7.06242C1.46485 7.13345 1.2998 7.26136 1.18324 7.42894C1.06669 7.59653 1.00421 7.79578 1.00421 7.99992C1.00421 8.20405 1.06669 8.4033 1.18324 8.57089C1.2998 8.73847 1.46485 8.86638 1.65623 8.93742L5.6206 10.3749L7.06248 14.3437C7.13351 14.535 7.26142 14.7001 7.42901 14.8167C7.59659 14.9332 7.79584 14.9957 7.99998 14.9957C8.20411 14.9957 8.40336 14.9332 8.57095 14.8167C8.73854 14.7001 8.86644 14.535 8.93748 14.3437L10.3794 10.3787L14.3437 8.93742C14.5351 8.86638 14.7002 8.73847 14.8167 8.57089C14.9333 8.4033 14.9957 8.20405 14.9957 7.99992C14.9957 7.79578 14.9333 7.59653 14.8167 7.42894C14.7002 7.26136 14.5351 7.13345 14.3437 7.06242ZM10.0356 9.43742C9.89879 9.48738 9.77455 9.56663 9.67156 9.66962C9.56857 9.77261 9.48932 9.89685 9.43935 10.0337L7.99998 13.9937L6.56248 10.0355C6.51254 9.89819 6.43311 9.77346 6.32977 9.67012C6.22643 9.56678 6.1017 9.48735 5.96435 9.43742L2.00623 7.99992L5.96435 6.56242C6.1017 6.51248 6.22643 6.43305 6.32977 6.32971C6.43311 6.22637 6.51254 6.10164 6.56248 5.96429L7.99998 2.00617L9.43748 5.96429C9.48744 6.1011 9.56669 6.22534 9.66968 6.32833C9.77267 6.43132 9.89692 6.51057 10.0337 6.56054L13.9919 7.99804L10.0356 9.43742Z" fill="#0CA5EB"/>
</svg>
