<svg width="32" height="33" viewBox="0 0 32 33" fill="none" xmlns="http://www.w3.org/2000/svg">
<path d="M23.7586 12.232L20.268 8.74061C20.1519 8.6245 20.0141 8.5324 19.8624 8.46957C19.7107 8.40673 19.5482 8.37439 19.384 8.37439C19.2198 8.37439 19.0572 8.40673 18.9056 8.46957C18.7539 8.5324 18.6161 8.6245 18.5 8.74061L8.86641 18.375C8.74983 18.4906 8.65741 18.6283 8.59451 18.78C8.5316 18.9317 8.49948 19.0944 8.50001 19.2586V22.75C8.50001 23.0815 8.6317 23.3994 8.86612 23.6339C9.10054 23.8683 9.41849 24 9.75001 24H13.2414C13.4056 24.0005 13.5683 23.9684 13.72 23.9055C13.8717 23.8426 14.0094 23.7502 14.125 23.6336L23.7586 14C23.8747 13.8839 23.9668 13.7461 24.0296 13.5944C24.0925 13.4427 24.1248 13.2802 24.1248 13.116C24.1248 12.9518 24.0925 12.7893 24.0296 12.6376C23.9668 12.4859 23.8747 12.3481 23.7586 12.232ZM13.2414 22.75H9.75001V19.2586L16.625 12.3836L20.1164 15.875L13.2414 22.75ZM21 14.9906L17.5086 11.5L19.3836 9.62498L22.875 13.1156L21 14.9906Z" fill="#525E6F"/>
</svg>
