<svg width="212" height="46" viewBox="0 0 212 46" fill="none" xmlns="http://www.w3.org/2000/svg">
<g clip-path="url(#clip0_6229_2845)">
<path d="M65.6279 1V45H1V1H65.6279Z" stroke="#14181F" stroke-width="2"/>
<path d="M31.9484 10.7192L33.3014 9.7165L34.6522 10.7192L34.1386 9.09786L35.512 8.09516H33.8196L33.3014 6.45312L32.7833 8.09746L31.0908 8.09516L32.4642 9.09786L31.9484 10.7192Z" fill="#14181F"/>
<path d="M24.9523 12.6303L26.3053 11.6276L27.6561 12.6303L27.1425 11.009L28.5137 10.0063H26.8212L26.3053 8.36194L25.7872 10.0086L24.0947 10.0063L25.4659 11.009L24.9523 12.6303Z" fill="#14181F"/>
<path d="M21.1872 13.5778L20.669 15.2222L18.9766 15.2199L20.3477 16.2226L19.8341 17.8439L21.1872 16.8412L22.538 17.8439L22.0243 16.2226L23.3955 15.2199H21.703L21.1872 13.5778Z" fill="#14181F"/>
<path d="M19.3092 23.9429L20.66 24.9456L20.1464 23.3242L21.5176 22.3215H19.8274L19.3092 20.6795L18.7911 22.3261L17.0986 22.3215L18.4698 23.3242L17.9562 24.9456L19.3092 23.9429Z" fill="#14181F"/>
<path d="M21.703 29.4462L21.1872 27.8019L20.669 29.4462H18.9766L20.3477 30.4489L19.8341 32.0703L21.1872 31.0653L22.538 32.0703L22.0243 30.4489L23.3955 29.4462H21.703Z" fill="#14181F"/>
<path d="M26.8324 34.6575L26.3143 33.0178L25.7984 34.6598L24.106 34.6575L25.4771 35.6602L24.9635 37.2838L26.3166 36.2788L27.6673 37.2838L27.1537 35.6602L28.5249 34.6575H26.8324Z" fill="#14181F"/>
<path d="M33.8197 36.5479L33.3016 34.9036L32.7857 36.5479H31.0933L32.4644 37.5506L31.9508 39.1719L33.3039 38.1692L34.6547 39.1719L34.1388 37.5506L35.5122 36.5479H33.8197Z" fill="#14181F"/>
<path d="M40.8066 34.6575L40.2907 33.0178L39.7703 34.6598L38.0801 34.6575L39.4512 35.6602L38.9376 37.2838L40.2907 36.2788L41.6415 37.2838L41.1256 35.6602L42.499 34.6575H40.8066Z" fill="#14181F"/>
<path d="M45.9382 29.4462L45.4178 27.8019L44.8997 29.4462H43.2095L44.5829 30.4489L44.067 32.0703L45.4178 31.0653L46.7709 32.0703L46.255 30.4489L47.6284 29.4462H45.9382Z" fill="#14181F"/>
<path d="M49.4861 22.3031H47.7937L47.2755 20.6588L46.7574 22.3054L45.0649 22.3031L46.4384 23.3058L45.9247 24.9272L47.2755 23.9222L48.6263 24.9272L48.1127 23.3058L49.4861 22.3031Z" fill="#14181F"/>
<path d="M44.067 17.8232L45.4178 16.8205L46.7709 17.8232L46.255 16.2019L47.6284 15.2015H45.9382L45.4178 13.5571L44.8997 15.2015H43.2095L44.5829 16.2019L44.067 17.8232Z" fill="#14181F"/>
<path d="M40.3089 8.36426L39.793 10.0086L38.1006 10.0063L39.4717 11.0113L38.9581 12.6326L40.3112 11.6276L41.662 12.6326L41.1484 11.0113L42.5218 10.0063H40.8271L40.3089 8.36426Z" fill="#14181F"/>
<path d="M81.0794 13.6744L83.1407 14.339C82.8239 15.5073 82.299 16.3743 81.5636 16.9401C80.8283 17.5081 79.8961 17.791 78.767 17.791C77.3687 17.791 76.2193 17.3057 75.321 16.3352C74.4205 15.3647 73.9702 14.0378 73.9702 12.3543C73.9702 10.5743 74.4227 9.18986 75.3278 8.20556C76.2329 7.21896 77.423 6.72681 78.8982 6.72681C80.1857 6.72681 81.231 7.11317 82.0365 7.88819C82.5162 8.34584 82.8737 9.00358 83.1135 9.85909L81.0093 10.3696C80.8848 9.8154 80.6246 9.37614 80.2309 9.05647C79.8372 8.73681 79.3553 8.57582 78.7919 8.57582C78.0113 8.57582 77.3777 8.86099 76.8935 9.42904C76.4071 9.99708 76.165 10.9216 76.165 12.1957C76.165 13.5479 76.4048 14.5115 76.8822 15.0865C77.3619 15.6614 77.9841 15.9489 78.7489 15.9489C79.3146 15.9489 79.7988 15.7672 80.206 15.4015C80.6133 15.0359 80.9052 14.4632 81.0817 13.679L81.0794 13.6744Z" fill="#14181F"/>
<path d="M84.4849 13.6238C84.4849 12.9431 84.65 12.283 84.9804 11.646C85.3107 11.009 85.7791 10.5214 86.3832 10.1857C86.9896 9.84989 87.6661 9.68201 88.4128 9.68201C89.5667 9.68201 90.5125 10.0638 91.2501 10.825C91.9878 11.5862 92.3566 12.5498 92.3566 13.7112C92.3566 14.8726 91.9855 15.8569 91.2388 16.6273C90.4944 17.3977 89.5577 17.7841 88.4286 17.7841C87.7295 17.7841 87.062 17.6231 86.4285 17.3034C85.7949 16.9815 85.3107 16.5123 84.9826 15.8914C84.6523 15.2704 84.4871 14.5161 84.4871 13.6261L84.4849 13.6238ZM86.5529 13.7342C86.5529 14.5023 86.7317 15.0911 87.0914 15.5004C87.4512 15.9098 87.8924 16.1145 88.4196 16.1145C88.9468 16.1145 89.388 15.9098 89.7455 15.5004C90.103 15.0911 90.2817 14.4977 90.2817 13.7204C90.2817 12.9431 90.103 12.3773 89.7455 11.968C89.388 11.5586 88.9468 11.3539 88.4196 11.3539C87.8924 11.3539 87.4512 11.5586 87.0914 11.968C86.7317 12.3773 86.5529 12.9661 86.5529 13.7342Z" fill="#14181F"/>
<path d="M93.7051 14.7553V12.7039H97.6692V14.7553H93.7051Z" fill="#14181F"/>
<path d="M97.9495 9.85909H99.0695V9.27495C99.0695 8.62412 99.1374 8.13657 99.2732 7.8146C99.4089 7.49263 99.6601 7.23276 100.027 7.03038C100.393 6.828 100.857 6.72681 101.416 6.72681C101.975 6.72681 102.552 6.8142 103.104 6.98898L102.83 8.41944C102.509 8.34125 102.201 8.30215 101.905 8.30215C101.608 8.30215 101.402 8.37114 101.276 8.51143C101.149 8.64941 101.086 8.91619 101.086 9.31175V9.85909H102.595V11.4712H101.086V17.6093H99.0673V11.4712H97.9473V9.85909H97.9495Z" fill="#14181F"/>
<path d="M108.75 17.6093V16.4479C108.471 16.8619 108.107 17.1885 107.654 17.4253C107.202 17.6645 106.724 17.7818 106.222 17.7818C105.72 17.7818 105.249 17.6668 104.844 17.4391C104.437 17.2115 104.143 16.8895 103.962 16.4755C103.781 16.0616 103.688 15.4912 103.688 14.7599V9.85449H105.706V13.4168C105.706 14.5069 105.742 15.1739 105.817 15.4199C105.892 15.666 106.025 15.8615 106.222 16.0041C106.419 16.1467 106.668 16.2203 106.969 16.2203C107.313 16.2203 107.623 16.1237 107.894 15.9328C108.168 15.7419 108.354 15.5027 108.453 15.2176C108.555 14.9324 108.605 14.2356 108.605 13.1271V9.85679H110.623V17.6093H108.75Z" fill="#14181F"/>
<path d="M119.651 17.6093H117.633V13.6537C117.633 12.8166 117.59 12.2762 117.504 12.0301C117.418 11.784 117.277 11.5931 117.083 11.4574C116.888 11.3218 116.655 11.2528 116.381 11.2528C116.033 11.2528 115.718 11.3494 115.44 11.5448C115.162 11.7403 114.972 11.9979 114.87 12.3199C114.766 12.6418 114.716 13.2352 114.716 14.0999V17.6116H112.698V9.85911H114.571V10.9975C115.236 10.1213 116.074 9.68433 117.085 9.68433C117.531 9.68433 117.938 9.76482 118.305 9.9281C118.671 10.0914 118.952 10.2984 119.142 10.5513C119.332 10.8043 119.463 11.0918 119.538 11.4138C119.612 11.7357 119.649 12.1957 119.649 12.7936V17.6116L119.651 17.6093Z" fill="#14181F"/>
<path d="M128.692 17.6093H126.819V16.471C126.506 16.9148 126.14 17.2437 125.717 17.4599C125.294 17.676 124.866 17.7841 124.436 17.7841C123.56 17.7841 122.809 17.4254 122.185 16.7078C121.56 15.9903 121.248 14.9899 121.248 13.7043C121.248 12.4188 121.551 11.3931 122.16 10.7077C122.769 10.0247 123.536 9.68203 124.466 9.68203C125.319 9.68203 126.054 10.0431 126.678 10.7629V6.90851H128.697V17.6093H128.692ZM123.307 13.5663C123.307 14.3943 123.42 14.9922 123.644 15.3625C123.97 15.8983 124.425 16.1651 125.009 16.1651C125.472 16.1651 125.868 15.965 126.194 15.5625C126.52 15.1601 126.683 14.5621 126.683 13.7641C126.683 12.8741 126.525 12.2325 126.21 11.8415C125.896 11.4506 125.488 11.2528 124.995 11.2528C124.502 11.2528 124.115 11.446 123.791 11.8323C123.468 12.2187 123.307 12.7982 123.307 13.5663Z" fill="#14181F"/>
<path d="M135.098 15.1416L137.109 15.4843C136.851 16.234 136.442 16.8044 135.885 17.1953C135.326 17.5863 134.63 17.7818 133.792 17.7818C132.466 17.7818 131.484 17.3402 130.849 16.4617C130.346 15.7557 130.095 14.8657 130.095 13.7894C130.095 12.5038 130.426 11.4988 131.086 10.7721C131.747 10.0454 132.582 9.67969 133.593 9.67969C134.727 9.67969 135.623 10.0614 136.279 10.8227C136.935 11.5839 137.25 12.7499 137.22 14.3229H132.166C132.179 14.9324 132.342 15.4038 132.654 15.7419C132.967 16.0799 133.353 16.2501 133.817 16.2501C134.134 16.2501 134.399 16.1627 134.614 15.988C134.829 15.8132 134.992 15.5303 135.102 15.1416H135.098ZM135.213 13.0695C135.2 12.4762 135.048 12.0255 134.761 11.715C134.473 11.4068 134.125 11.2504 133.713 11.2504C133.272 11.2504 132.91 11.4137 132.623 11.7403C132.335 12.0668 132.195 12.5084 132.199 13.0695H135.216H135.213Z" fill="#14181F"/>
<path d="M145.854 17.6093H143.981V16.471C143.668 16.9148 143.302 17.2437 142.879 17.4599C142.456 17.676 142.028 17.7841 141.596 17.7841C140.72 17.7841 139.969 17.4254 139.344 16.7078C138.72 15.9903 138.408 14.9899 138.408 13.7043C138.408 12.4188 138.711 11.3931 139.32 10.7077C139.928 10.0247 140.695 9.68203 141.625 9.68203C142.478 9.68203 143.216 10.0431 143.838 10.7629V6.90851H145.856V17.6093H145.854ZM140.469 13.5663C140.469 14.3943 140.582 14.9922 140.806 15.3625C141.132 15.8983 141.587 16.1651 142.17 16.1651C142.634 16.1651 143.03 15.965 143.356 15.5625C143.682 15.1601 143.845 14.5621 143.845 13.7641C143.845 12.8741 143.686 12.2325 143.372 11.8415C143.057 11.4506 142.65 11.2528 142.159 11.2528C141.668 11.2528 141.279 11.446 140.955 11.8323C140.632 12.2187 140.471 12.7982 140.471 13.5663H140.469Z" fill="#14181F"/>
<path d="M151.843 17.6093V6.90851H153.862V10.7629C154.484 10.0431 155.221 9.68203 156.074 9.68203C157.004 9.68203 157.771 10.0247 158.38 10.7077C158.989 11.3908 159.292 12.3728 159.292 13.6537C159.292 14.9347 158.982 15.9972 158.362 16.7124C157.742 17.4277 156.988 17.7864 156.104 17.7864C155.667 17.7864 155.239 17.676 154.814 17.4553C154.391 17.2345 154.024 16.9079 153.719 16.4733V17.6116H151.846L151.843 17.6093ZM153.848 13.5663C153.848 14.369 153.972 14.9623 154.221 15.3464C154.57 15.8914 155.036 16.1628 155.615 16.1628C156.061 16.1628 156.439 15.9696 156.753 15.5832C157.065 15.1969 157.224 14.5874 157.224 13.7549C157.224 12.8695 157.065 12.2302 156.751 11.8392C156.436 11.4483 156.029 11.2505 155.536 11.2505C155.043 11.2505 154.651 11.4414 154.33 11.8231C154.009 12.2049 153.85 12.7844 153.85 13.564L153.848 13.5663Z" fill="#14181F"/>
<path d="M159.959 9.85907H162.107L163.93 15.3624L165.711 9.85907H167.8L165.107 17.3195L164.625 18.6695C164.449 19.1225 164.279 19.4675 164.118 19.7067C163.958 19.9459 163.774 20.139 163.566 20.2862C163.358 20.4334 163.102 20.5507 162.797 20.6335C162.494 20.7163 162.15 20.7577 161.767 20.7577C161.385 20.7577 161 20.7163 160.627 20.6335L160.448 19.0283C160.765 19.0903 161.05 19.1225 161.303 19.1225C161.772 19.1225 162.12 18.9823 162.344 18.7017C162.568 18.4211 162.743 18.0646 162.862 17.6323L159.962 9.85907H159.959Z" fill="#14181F"/>
<path d="M77.8281 27.7973V29.4324H76.4502V32.5555C76.4502 33.1879 76.4637 33.5559 76.4909 33.6617C76.518 33.7675 76.5769 33.8526 76.6696 33.9216C76.7624 33.9906 76.8755 34.025 77.0113 34.025C77.1968 34.025 77.4684 33.9584 77.8236 33.8273L77.9955 35.4187C77.5272 35.6234 76.9955 35.7246 76.4027 35.7246C76.0384 35.7246 75.7103 35.6625 75.4184 35.5383C75.1265 35.4141 74.9116 35.2531 74.7758 35.0576C74.6401 34.8599 74.545 34.5931 74.493 34.2596C74.45 34.0205 74.4274 33.5398 74.4274 32.8131V29.4347H73.502V27.7996H74.4274V26.2587L76.4524 25.0605V27.7973H77.8304H77.8281Z" fill="#14181F"/>
<path d="M81.2378 24.8467V28.7816C81.8895 28.0089 82.6678 27.6202 83.5706 27.6202C84.0344 27.6202 84.453 27.7076 84.8264 27.8824C85.1997 28.0572 85.4803 28.2825 85.6703 28.5539C85.8604 28.8276 85.9894 29.1289 86.0572 29.46C86.1274 29.7912 86.1613 30.304 86.1613 31.0009V35.5475H84.143V31.4539C84.143 30.6421 84.1046 30.1247 84.0277 29.9062C83.9507 29.6877 83.815 29.5129 83.6226 29.3841C83.4303 29.2553 83.1859 29.1909 82.8941 29.1909C82.5592 29.1909 82.2605 29.2737 81.9958 29.4393C81.7333 29.6049 81.541 29.8533 81.4188 30.1867C81.2967 30.5202 81.2356 31.0124 81.2356 31.6655V35.5475H79.2173V24.8467H81.2356H81.2378Z" fill="#14181F"/>
<path d="M92.6282 33.0799L94.6397 33.4225C94.3817 34.1723 93.9722 34.7426 93.4156 35.1336C92.8567 35.5245 92.1598 35.72 91.3226 35.72C89.9967 35.72 89.0148 35.2785 88.379 34.3999C87.8766 33.6939 87.6255 32.8039 87.6255 31.7276C87.6255 30.442 87.9558 29.437 88.6165 28.7103C89.2772 27.9836 90.1121 27.6179 91.1235 27.6179C92.2571 27.6179 93.1531 27.9997 93.8093 28.7609C94.4654 29.5221 94.7799 30.6881 94.7505 32.2612H89.6958C89.7094 32.8706 89.8723 33.342 90.1845 33.6801C90.4968 34.0182 90.8837 34.1884 91.3475 34.1884C91.6643 34.1884 91.929 34.101 92.144 33.9262C92.3589 33.7514 92.5218 33.4685 92.6327 33.0799H92.6282ZM92.7436 31.0078C92.73 30.4144 92.5784 29.9637 92.2911 29.6532C92.0037 29.345 91.6552 29.1887 91.2434 29.1887C90.8022 29.1887 90.4402 29.3519 90.1529 29.6785C89.8655 30.0051 89.7252 30.4466 89.7297 31.0078H92.7458H92.7436Z" fill="#14181F"/>
<path d="M100.491 35.5475V24.8467H108.297V26.6566H102.615V29.03H107.901V30.833H102.615V33.7445H108.496V35.5475H100.488H100.491Z" fill="#14181F"/>
<path d="M115.307 35.5476V34.3862C115.028 34.8001 114.664 35.1267 114.212 35.3636C113.759 35.6027 113.282 35.72 112.779 35.72C112.277 35.72 111.809 35.605 111.401 35.3774C110.994 35.1497 110.7 34.8277 110.519 34.4138C110.338 33.9998 110.245 33.4295 110.245 32.6981V27.7927H112.263V31.3551C112.263 32.4452 112.3 33.1121 112.374 33.3582C112.449 33.6042 112.585 33.7997 112.779 33.9423C112.976 34.0849 113.225 34.1585 113.526 34.1585C113.87 34.1585 114.18 34.0619 114.454 33.871C114.727 33.6801 114.913 33.441 115.012 33.1558C115.114 32.8706 115.164 32.1738 115.164 31.0653V27.795H117.182V35.5476H115.307Z" fill="#14181F"/>
<path d="M121.203 35.5475H119.185V27.795H121.058V28.8966C121.379 28.3769 121.667 28.0342 121.922 27.8686C122.178 27.703 122.47 27.6202 122.796 27.6202C123.255 27.6202 123.699 27.749 124.124 28.0066L123.499 29.7958C123.16 29.5727 122.843 29.4601 122.551 29.4601C122.259 29.4601 122.029 29.5382 121.834 29.6969C121.637 29.8556 121.483 30.1408 121.37 30.5547C121.257 30.9687 121.201 31.8357 121.201 33.1535V35.5475H121.203Z" fill="#14181F"/>
<path d="M124.527 31.562C124.527 30.8813 124.692 30.2213 125.022 29.5842C125.353 28.9472 125.821 28.4597 126.425 28.1239C127.032 27.7881 127.708 27.6202 128.455 27.6202C129.609 27.6202 130.555 28.002 131.292 28.7632C132.03 29.5244 132.399 30.4881 132.399 31.6494C132.399 32.8108 132.028 33.7951 131.281 34.5655C130.536 35.336 129.6 35.7223 128.471 35.7223C127.771 35.7223 127.104 35.5613 126.47 35.2417C125.837 34.9197 125.353 34.4506 125.025 33.8296C124.694 33.2087 124.529 32.4544 124.529 31.5643L124.527 31.562ZM126.595 31.6724C126.595 32.4406 126.774 33.0293 127.133 33.4387C127.493 33.848 127.934 34.0527 128.462 34.0527C128.989 34.0527 129.43 33.848 129.787 33.4387C130.145 33.0293 130.324 32.436 130.324 31.6586C130.324 30.8813 130.145 30.3156 129.787 29.9062C129.43 29.4969 128.989 29.2922 128.462 29.2922C127.934 29.2922 127.493 29.4969 127.133 29.9062C126.774 30.3156 126.595 30.9043 126.595 31.6724Z" fill="#14181F"/>
<path d="M133.919 27.7973H135.799V28.9357C136.044 28.547 136.374 28.2297 136.79 27.9859C137.207 27.7421 137.668 27.6202 138.175 27.6202C139.06 27.6202 139.813 27.9721 140.431 28.6781C141.049 29.3842 141.356 30.3662 141.356 31.6264C141.356 32.8867 141.044 33.9262 140.422 34.6437C139.8 35.3613 139.046 35.72 138.159 35.72C137.738 35.72 137.356 35.6349 137.014 35.4648C136.673 35.2946 136.311 35.0025 135.933 34.5885V38.4936H133.915V27.7927L133.919 27.7973ZM135.917 31.5413C135.917 32.413 136.087 33.0546 136.426 33.4709C136.765 33.8871 137.18 34.0941 137.668 34.0941C138.157 34.0941 138.528 33.9032 138.838 33.5214C139.15 33.1397 139.304 32.5141 139.304 31.6425C139.304 30.8307 139.144 30.2259 138.824 29.8326C138.503 29.4394 138.107 29.2416 137.632 29.2416C137.157 29.2416 136.729 29.4348 136.403 29.8211C136.078 30.2075 135.915 30.7801 135.915 31.539L135.917 31.5413Z" fill="#14181F"/>
<path d="M147.377 33.0799L149.389 33.4225C149.131 34.1723 148.721 34.7426 148.165 35.1336C147.606 35.5245 146.909 35.72 146.072 35.72C144.746 35.72 143.764 35.2785 143.128 34.3999C142.626 33.6939 142.375 32.8039 142.375 31.7276C142.375 30.442 142.705 29.437 143.366 28.7103C144.026 27.9836 144.861 27.6179 145.873 27.6179C147.006 27.6179 147.902 27.9997 148.558 28.7609C149.214 29.5221 149.529 30.6881 149.5 32.2612H144.445C144.458 32.8706 144.621 33.342 144.934 33.6801C145.246 34.0182 145.633 34.1884 146.097 34.1884C146.413 34.1884 146.678 34.101 146.893 33.9262C147.108 33.7514 147.271 33.4685 147.382 33.0799H147.377ZM147.493 31.0078C147.479 30.4144 147.327 29.9637 147.04 29.6532C146.753 29.345 146.404 29.1887 145.992 29.1887C145.551 29.1887 145.189 29.3519 144.902 29.6785C144.615 30.0051 144.474 30.4466 144.479 31.0078H147.495H147.493Z" fill="#14181F"/>
<path d="M152.649 30.1615L150.819 29.8257C151.024 29.076 151.38 28.5217 151.882 28.1607C152.384 27.7996 153.131 27.6202 154.122 27.6202C155.022 27.6202 155.692 27.7283 156.133 27.9445C156.575 28.1607 156.885 28.4367 157.063 28.7701C157.242 29.1036 157.333 29.7153 157.333 30.6053L157.31 32.9994C157.31 33.6801 157.342 34.1838 157.407 34.5057C157.473 34.83 157.593 35.1773 157.769 35.5452H155.774C155.722 35.4096 155.656 35.2072 155.579 34.9404C155.545 34.8185 155.523 34.738 155.507 34.6989C155.163 35.0393 154.794 35.2946 154.4 35.4648C154.009 35.6349 153.588 35.72 153.145 35.72C152.359 35.72 151.739 35.5039 151.289 35.0715C150.837 34.6391 150.61 34.0918 150.61 33.4295C150.61 32.9925 150.714 32.6015 150.92 32.2589C151.126 31.9162 151.414 31.654 151.785 31.4701C152.156 31.2884 152.69 31.1274 153.389 30.9917C154.332 30.8123 154.986 30.6444 155.348 30.4881V30.2834C155.348 29.8901 155.253 29.6072 155.061 29.4394C154.869 29.2715 154.509 29.1864 153.977 29.1864C153.617 29.1864 153.339 29.2577 153.138 29.4026C152.936 29.5451 152.773 29.7981 152.649 30.1592V30.1615ZM155.348 31.8242C155.09 31.9116 154.681 32.0174 154.12 32.137C153.561 32.2589 153.194 32.3785 153.02 32.4958C152.758 32.6866 152.624 32.9258 152.624 33.2179C152.624 33.51 152.728 33.7537 152.941 33.963C153.151 34.1723 153.421 34.2758 153.744 34.2758C154.108 34.2758 154.455 34.1539 154.785 33.9101C155.029 33.7261 155.19 33.4985 155.265 33.2317C155.317 33.0569 155.344 32.7234 155.344 32.2313V31.8219L155.348 31.8242Z" fill="#14181F"/>
<path d="M166.256 35.5475H164.238V31.5919C164.238 30.7548 164.195 30.2143 164.109 29.9683C164.023 29.7222 163.883 29.5313 163.688 29.3956C163.494 29.2599 163.261 29.1909 162.987 29.1909C162.638 29.1909 162.324 29.2875 162.046 29.483C161.767 29.6785 161.577 29.9361 161.475 30.258C161.371 30.58 161.321 31.1733 161.321 32.0381V35.5498H159.303V27.7973H161.177V28.9357C161.842 28.0595 162.679 27.6225 163.69 27.6225C164.136 27.6225 164.543 27.703 164.91 27.8663C165.277 28.0296 165.557 28.2365 165.747 28.4895C165.937 28.7425 166.069 29.03 166.143 29.3519C166.218 29.6739 166.254 30.1338 166.254 30.7318V35.5498L166.256 35.5475Z" fill="#14181F"/>
<path d="M172.391 24.8467H174.515V30.6421C174.515 31.562 174.542 32.1576 174.594 32.4313C174.685 32.8683 174.902 33.2201 175.244 33.4869C175.585 33.7514 176.054 33.8848 176.649 33.8848C177.244 33.8848 177.708 33.7606 178.013 33.5099C178.319 33.2592 178.504 32.9511 178.568 32.5877C178.629 32.222 178.66 31.6172 178.66 30.7709V24.8513H180.785V30.4719C180.785 31.7575 180.728 32.6636 180.613 33.1948C180.498 33.7261 180.285 34.1722 179.977 34.5379C179.667 34.9036 179.255 35.1933 178.74 35.4095C178.224 35.6257 177.547 35.7338 176.715 35.7338C175.71 35.7338 174.947 35.6165 174.427 35.3796C173.909 35.1427 173.497 34.8369 173.196 34.4597C172.895 34.0826 172.696 33.687 172.601 33.273C172.461 32.659 172.393 31.7552 172.393 30.557V24.849L172.391 24.8467Z" fill="#14181F"/>
<path d="M189.948 35.5475H187.93V31.5919C187.93 30.7548 187.887 30.2143 187.801 29.9683C187.715 29.7222 187.575 29.5313 187.38 29.3956C187.186 29.2599 186.953 29.1909 186.681 29.1909C186.333 29.1909 186.018 29.2875 185.74 29.483C185.462 29.6785 185.272 29.9361 185.17 30.258C185.068 30.58 185.016 31.1733 185.016 32.0381V35.5498H182.998V27.7973H184.873V28.9357C185.538 28.0595 186.376 27.6225 187.387 27.6225C187.833 27.6225 188.24 27.703 188.609 27.8663C188.978 28.0296 189.256 28.2365 189.446 28.4895C189.636 28.7425 189.767 29.03 189.842 29.3519C189.917 29.6739 189.953 30.1338 189.953 30.7318V35.5498L189.948 35.5475Z" fill="#14181F"/>
<path d="M191.994 26.744V24.8467H194.012V26.744H191.994ZM191.994 35.5475V27.795H194.012V35.5475H191.994Z" fill="#14181F"/>
<path d="M195.614 31.562C195.614 30.8813 195.779 30.2213 196.11 29.5842C196.44 28.9472 196.908 28.4597 197.515 28.1239C198.121 27.7881 198.796 27.6202 199.542 27.6202C200.696 27.6202 201.642 28.002 202.38 28.7632C203.117 29.5244 203.486 30.4881 203.486 31.6494C203.486 32.8108 203.113 33.7951 202.368 34.5655C201.624 35.336 200.687 35.7223 199.556 35.7223C198.857 35.7223 198.189 35.5613 197.556 35.2417C196.922 34.9197 196.438 34.4506 196.11 33.8296C195.779 33.2087 195.614 32.4544 195.614 31.5643V31.562ZM197.682 31.6724C197.682 32.4406 197.861 33.0293 198.221 33.4387C198.581 33.848 199.022 34.0527 199.549 34.0527C200.076 34.0527 200.517 33.848 200.875 33.4387C201.232 33.0293 201.409 32.436 201.409 31.6586C201.409 30.8813 201.23 30.3156 200.875 29.9062C200.52 29.4969 200.076 29.2922 199.549 29.2922C199.022 29.2922 198.578 29.4969 198.221 29.9062C197.861 30.3156 197.682 30.9043 197.682 31.6724Z" fill="#14181F"/>
<path d="M212 35.5475H209.982V31.5919C209.982 30.7548 209.939 30.2143 209.853 29.9683C209.767 29.7222 209.626 29.5313 209.432 29.3956C209.237 29.2599 209.004 29.1909 208.73 29.1909C208.382 29.1909 208.067 29.2875 207.789 29.483C207.511 29.6785 207.321 29.9361 207.219 30.258C207.115 30.58 207.065 31.1733 207.065 32.0381V35.5498H205.047V27.7973H206.92V28.9357C207.586 28.0595 208.423 27.6225 209.434 27.6225C209.88 27.6225 210.287 27.703 210.654 27.8663C211.02 28.0296 211.301 28.2365 211.491 28.4895C211.681 28.7425 211.812 29.03 211.887 29.3519C211.962 29.6739 211.998 30.1338 211.998 30.7318V35.5498L212 35.5475Z" fill="#14181F"/>
</g>
<defs>
<clipPath id="clip0_6229_2845">
<rect width="212" height="46" fill="white"/>
</clipPath>
</defs>
</svg>
