<svg width="137" height="46" viewBox="0 0 137 46" fill="none" xmlns="http://www.w3.org/2000/svg">
<g clip-path="url(#clip0_6229_2890)">
<path d="M55.2574 27.3289V27.8632H52.2222V23.5788H55.1752V24.1131H52.8215V25.4291H54.9191V25.9486H52.8215V27.3289H55.2574Z" fill="#14181F"/>
<path d="M56.0645 26.0129V23.5788H56.6589V25.9931C56.6589 26.938 57.0842 27.3684 57.8382 27.3684C58.5922 27.3684 59.0223 26.938 59.0223 25.9931V23.5788H59.6023V26.0129C59.6023 27.2596 58.9402 27.9126 57.8334 27.9126C56.7266 27.9126 56.0645 27.2596 56.0645 26.0129Z" fill="#14181F"/>
<path d="M63.4688 27.8632L62.565 26.5472H62.304H61.2697V27.8483H60.6704V23.5788H62.304C63.3915 23.5788 64.0488 24.1428 64.0488 25.063C64.0627 25.3609 63.9803 25.6551 63.8142 25.9002C63.6482 26.1453 63.4079 26.3275 63.1305 26.4185L64.0971 27.8533L63.4688 27.8632ZM63.4688 25.0729C63.4688 24.4594 63.0676 24.1131 62.304 24.1131H61.2891V26.0426H62.304C63.0483 26.0426 63.4495 25.6863 63.4495 25.0729H63.4688Z" fill="#14181F"/>
<path d="M64.532 25.7259C64.5146 25.2717 64.6303 24.8225 64.8641 24.4361C65.098 24.0496 65.4393 23.7435 65.8443 23.557C66.2493 23.3705 66.6995 23.3121 67.1371 23.3894C67.5748 23.4667 67.9799 23.6761 68.3004 23.9907C68.621 24.3053 68.8423 24.7108 68.9362 25.1552C69.03 25.5995 68.9919 26.0624 68.8269 26.4844C68.6618 26.9065 68.3774 27.2684 68.01 27.5238C67.6426 27.7791 67.209 27.9163 66.7649 27.9176C66.4757 27.9317 66.1868 27.8854 65.9157 27.7815C65.6447 27.6775 65.3971 27.5182 65.1882 27.3131C64.9792 27.108 64.8133 26.8615 64.7005 26.5887C64.5877 26.3158 64.5303 26.0222 64.532 25.7259ZM68.3985 25.7259C68.4023 25.395 68.3098 25.0703 68.1328 24.7933C67.9557 24.5163 67.7021 24.2996 67.4043 24.1706C67.1065 24.0417 66.7779 24.0064 66.4604 24.0693C66.1429 24.1322 65.8509 24.2904 65.6216 24.5237C65.3922 24.7571 65.2359 25.0551 65.1726 25.3797C65.1093 25.7042 65.1418 26.0408 65.2659 26.3464C65.3901 26.6521 65.6004 26.9129 65.8699 27.0958C66.1394 27.2787 66.456 27.3753 66.7794 27.3734C66.9918 27.3782 67.2029 27.3387 67.4 27.2576C67.5971 27.1764 67.7761 27.0551 67.9261 26.9011C68.0761 26.7471 68.194 26.5636 68.2727 26.3616C68.3514 26.1596 68.3893 25.9434 68.384 25.7259H68.3985Z" fill="#14181F"/>
<path d="M73.1303 25.0729C73.1303 26.003 72.473 26.5571 71.3855 26.5571H70.3513V27.8533H69.752V23.5788H71.3855C72.4972 23.5788 73.1303 24.1428 73.1303 25.0729ZM72.5358 25.0729C72.5358 24.4594 72.1347 24.1131 71.3662 24.1131H70.3513V26.0327H71.3662C72.1347 26.0327 72.5358 25.6863 72.5358 25.0729Z" fill="#14181F"/>
<path d="M76.9048 27.3289V27.8632H73.8696V23.5788H76.8468V24.1131H74.4883V25.4291H76.5907V25.9486H74.4883V27.3289H76.9048Z" fill="#14181F"/>
<path d="M80.3994 26.7945H78.1713L77.688 27.8632H77.0742L78.9688 23.5788H79.5584L81.4627 27.8632H80.8344L80.3994 26.7945ZM80.1868 26.2998L79.2878 24.1972L78.384 26.2998H80.1868Z" fill="#14181F"/>
<path d="M85.5466 23.5788V27.8632H85.0633L82.5549 24.6672V27.8632H81.9556V23.5788H82.4389L84.9521 26.7748V23.5788H85.5466Z" fill="#14181F"/>
<path d="M87.7989 25.726C87.7953 25.4308 87.8506 25.138 87.9615 24.8655C88.0724 24.5931 88.2366 24.3466 88.4438 24.1414C88.6511 23.9362 88.8972 23.7765 89.1669 23.6721C89.4366 23.5677 89.7244 23.5208 90.0124 23.5343C90.3095 23.5221 90.6057 23.5754 90.8809 23.6906C91.1561 23.8059 91.4038 23.9803 91.6074 24.2022L91.2159 24.5881C91.0653 24.4255 90.8828 24.2973 90.6804 24.2121C90.478 24.1268 90.2602 24.0863 90.0414 24.0934C89.8301 24.0934 89.6208 24.136 89.4255 24.2188C89.2303 24.3016 89.0528 24.4229 88.9034 24.5759C88.7539 24.7289 88.6354 24.9105 88.5545 25.1104C88.4736 25.3102 88.432 25.5245 88.432 25.7408C88.432 25.9572 88.4736 26.1714 88.5545 26.3713C88.6354 26.5711 88.7539 26.7528 88.9034 26.9057C89.0528 27.0587 89.2303 27.1801 89.4255 27.2629C89.6208 27.3456 89.8301 27.3883 90.0414 27.3883C90.2603 27.3962 90.4784 27.3562 90.6809 27.2709C90.8835 27.1856 91.0659 27.0569 91.2159 26.8935L91.6074 27.2794C91.4033 27.5023 91.1549 27.6777 90.8789 27.7938C90.6029 27.9099 90.3058 27.9639 90.0076 27.9523C89.7168 27.966 89.4264 27.9181 89.1546 27.8116C88.8828 27.705 88.6354 27.5421 88.428 27.3331C88.2206 27.124 88.0577 26.8734 87.9494 26.5968C87.8411 26.3203 87.7899 26.0238 87.7989 25.726Z" fill="#14181F"/>
<path d="M93.8496 26.3839V27.8681H93.2793V26.3839L91.6167 23.5936H92.2595L93.5983 25.8545L94.9419 23.5936H95.5315L93.8496 26.3839Z" fill="#14181F"/>
<path d="M99.4948 26.7154C99.4948 27.4476 98.9535 27.8681 97.895 27.8681H95.8989V23.5788H97.7742C98.7408 23.5788 99.2773 23.9944 99.2773 24.687C99.2879 24.8859 99.2396 25.0835 99.1387 25.2539C99.0378 25.4242 98.889 25.5594 98.7118 25.6418C98.9456 25.6965 99.1527 25.8346 99.2961 26.0312C99.4396 26.2279 99.51 26.4704 99.4948 26.7154ZM96.4982 24.0785V25.4538H97.721C98.33 25.4538 98.6876 25.2213 98.6876 24.7661C98.6876 24.311 98.3397 24.0785 97.721 24.0785H96.4982ZM98.9148 26.6659C98.9148 26.1712 98.5523 25.9486 97.8902 25.9486H96.5176V27.3734H97.8902C98.533 27.3684 98.8955 27.1557 98.8955 26.661L98.9148 26.6659Z" fill="#14181F"/>
<path d="M103.318 27.3289V27.8632H100.283V23.5788H103.236V24.1131H100.882V25.4291H102.98V25.9486H100.882V27.3289H103.318Z" fill="#14181F"/>
<path d="M106.943 27.8632L106.039 26.5472H105.778H104.744V27.8483H104.145V23.5788H105.778C106.866 23.5788 107.523 24.1428 107.523 25.063C107.537 25.3615 107.453 25.6562 107.286 25.9014C107.119 26.1465 106.878 26.3284 106.6 26.4185L107.595 27.8533L106.943 27.8632ZM106.943 25.0729C106.943 24.4594 106.542 24.1131 105.778 24.1131H104.763V26.0426H105.778C106.522 26.0426 106.924 25.6863 106.924 25.0729H106.943Z" fill="#14181F"/>
<path d="M107.962 27.3734L108.185 26.8786C108.576 27.2025 109.064 27.3774 109.567 27.3734C110.292 27.3734 110.601 27.0864 110.601 26.7104C110.601 25.6666 108.064 26.3246 108.064 24.7315C108.064 24.0686 108.547 23.5046 109.668 23.5046C110.143 23.4937 110.611 23.6262 111.012 23.8855L110.819 24.3803C110.475 24.1555 110.076 24.0338 109.668 24.029C108.958 24.029 108.654 24.3357 108.654 24.7117C108.654 25.7556 111.186 25.1026 111.186 26.6907C111.186 27.3437 110.674 27.9077 109.567 27.9077C108.988 27.9267 108.42 27.7377 107.962 27.3734Z" fill="#14181F"/>
<path d="M114.956 27.3289V27.8632H111.916V23.5788H114.869V24.1131H112.515V25.4291H114.613V25.9486H112.515V27.3289H114.956Z" fill="#14181F"/>
<path d="M115.42 25.726C115.417 25.4304 115.472 25.1371 115.583 24.8643C115.695 24.5915 115.859 24.3448 116.067 24.1395C116.275 23.9342 116.521 23.7746 116.792 23.6706C117.062 23.5665 117.35 23.5201 117.639 23.5343C117.935 23.5221 118.231 23.5755 118.505 23.6907C118.779 23.806 119.026 23.9804 119.229 24.2022L118.842 24.5881C118.691 24.4253 118.507 24.2972 118.304 24.2119C118.101 24.1267 117.882 24.0863 117.663 24.0933C117.452 24.0933 117.242 24.136 117.047 24.2187C116.852 24.3015 116.674 24.4229 116.525 24.5759C116.375 24.7289 116.257 24.9105 116.176 25.1103C116.095 25.3102 116.053 25.5244 116.053 25.7408C116.053 25.9571 116.095 26.1714 116.176 26.3712C116.257 26.5711 116.375 26.7527 116.525 26.9057C116.674 27.0587 116.852 27.18 117.047 27.2628C117.242 27.3456 117.452 27.3882 117.663 27.3882C117.882 27.3963 118.101 27.3563 118.305 27.271C118.508 27.1857 118.691 27.057 118.842 26.8935L119.229 27.2794C119.026 27.5022 118.778 27.6776 118.503 27.7937C118.228 27.9098 117.931 27.9639 117.634 27.9522C117.343 27.966 117.052 27.9181 116.78 27.8116C116.508 27.7051 116.26 27.5423 116.053 27.3333C115.845 27.1243 115.682 26.8737 115.573 26.5972C115.464 26.3206 115.412 26.024 115.42 25.726Z" fill="#14181F"/>
<path d="M119.886 26.0129V23.5788H120.485V25.9931C120.485 26.938 120.91 27.3684 121.664 27.3684C122.418 27.3684 122.848 26.938 122.848 25.9931V23.5788H123.428V26.0129C123.428 27.2596 122.761 27.9126 121.655 27.9126C120.548 27.9126 119.886 27.2596 119.886 26.0129Z" fill="#14181F"/>
<path d="M127.31 27.8632L126.406 26.5472C126.319 26.5472 126.232 26.5472 126.14 26.5472H125.106V27.8483H124.511V23.5788H126.145C127.237 23.5788 127.894 24.1428 127.894 25.063C127.907 25.3613 127.824 25.6557 127.657 25.9007C127.49 26.1456 127.249 26.3276 126.971 26.4185L127.962 27.8533L127.31 27.8632ZM127.31 25.0729C127.31 24.4594 126.908 24.1131 126.145 24.1131H125.125V26.0426H126.145C126.889 26.0426 127.29 25.6863 127.29 25.0729H127.31Z" fill="#14181F"/>
<path d="M128.716 23.5788H129.31V27.8632H128.716V23.5788Z" fill="#14181F"/>
<path d="M131.249 24.1131H129.799V23.5788H133.259V24.1131H131.809V27.8632H131.215L131.249 24.1131Z" fill="#14181F"/>
<path d="M135.328 26.3839V27.8681H134.748V26.3839L133.085 23.5936H133.728L135.067 25.8545L136.41 23.5936H137L135.328 26.3839Z" fill="#14181F"/>
<path d="M51.8788 33.0776C51.8752 32.782 51.9307 32.4888 52.0419 32.216C52.1531 31.9432 52.3177 31.6965 52.5255 31.4912C52.7333 31.2859 52.9799 31.1263 53.2502 31.0222C53.5205 30.9182 53.8088 30.8718 54.0972 30.886C54.3936 30.8738 54.689 30.9272 54.9634 31.0424C55.2378 31.1577 55.4847 31.3321 55.6873 31.5539L55.3007 31.9398C55.1495 31.7765 54.9663 31.648 54.763 31.5627C54.5597 31.4774 54.341 31.4373 54.1214 31.445C53.8553 31.4469 53.5939 31.5162 53.3604 31.6468C53.127 31.7774 52.9288 31.9652 52.7836 32.1934C52.6384 32.4217 52.5507 32.6832 52.5285 32.9545C52.5062 33.2259 52.55 33.4987 52.656 33.7485C52.7619 33.9984 52.9267 34.2174 53.1356 34.386C53.3445 34.5547 53.591 34.6677 53.853 34.7149C54.1151 34.7622 54.3844 34.7422 54.6371 34.6568C54.8897 34.5713 55.1177 34.4231 55.3007 34.2254L55.6873 34.6113C55.4842 34.8341 55.2367 35.0095 54.9615 35.1256C54.6862 35.2417 54.3898 35.2957 54.0924 35.2841C53.8031 35.2977 53.5141 35.2504 53.2434 35.1451C52.9727 35.0398 52.7259 34.8788 52.5184 34.6719C52.311 34.4651 52.1471 34.2169 52.0371 33.9427C51.9271 33.6685 51.8732 33.374 51.8788 33.0776Z" fill="#14181F"/>
<path d="M55.9727 33.0776C55.9563 32.6245 56.0726 32.1768 56.3065 31.7917C56.5404 31.4067 56.8813 31.102 57.2856 30.9166C57.6898 30.7313 58.1389 30.6737 58.5753 30.7514C59.0117 30.8291 59.4155 31.0385 59.7349 31.3526C60.0543 31.6668 60.2747 32.0714 60.3679 32.5147C60.4611 32.9579 60.4228 33.4196 60.258 33.8404C60.0932 34.2613 59.8093 34.6221 59.4427 34.8767C59.0762 35.1313 58.6437 35.268 58.2008 35.2693C57.9119 35.2834 57.6232 35.2371 57.3524 35.1331C57.0815 35.0291 56.8343 34.8697 56.6257 34.6645C56.4172 34.4594 56.2517 34.2128 56.1394 33.94C56.0271 33.6671 55.9704 33.3737 55.9727 33.0776ZM59.8392 33.0776C59.843 32.7466 59.7505 32.422 59.5735 32.145C59.3964 31.868 59.1428 31.6513 58.845 31.5223C58.5472 31.3934 58.2186 31.3581 57.9011 31.421C57.5837 31.4839 57.2916 31.6421 57.0623 31.8754C56.833 32.1088 56.6767 32.4067 56.6133 32.7313C56.55 33.0559 56.5825 33.3925 56.7067 33.6981C56.8309 34.0037 57.0411 34.2646 57.3106 34.4475C57.5801 34.6304 57.8968 34.727 58.2201 34.7251C58.4321 34.7292 58.6427 34.6892 58.8393 34.6078C59.0358 34.5263 59.2142 34.4049 59.3636 34.251C59.5131 34.0971 59.6306 33.9137 59.709 33.7121C59.7874 33.5104 59.8251 33.2946 59.8199 33.0776H59.8392Z" fill="#14181F"/>
<path d="M65.0734 35.2198V32.098L63.5607 34.7003H63.2852L61.7724 32.1178V35.2198H61.1973V30.9354H61.6806L63.4302 33.9483L65.1508 30.9354H65.6341V35.2198H65.0734Z" fill="#14181F"/>
<path d="M70.1386 32.4295C70.1386 33.3596 69.4813 33.9137 68.3938 33.9137H67.3596V35.2099H66.7603V30.9354H68.3938C69.4813 30.9354 70.1386 31.4994 70.1386 32.4295ZM69.5393 32.4295C69.5393 31.816 69.143 31.4697 68.3745 31.4697H67.3596V33.3893H68.3745C69.143 33.3893 69.5393 33.043 69.5393 32.4295Z" fill="#14181F"/>
<path d="M73.9131 34.6855V35.2198H70.873V30.9354H73.8261V31.4697H71.4724V32.7857H73.5699V33.2804H71.4724V34.6607L73.9131 34.6855Z" fill="#14181F"/>
<path d="M75.5662 31.4697H74.1162V30.9354H77.5816V31.4697H76.1316V35.2198H75.5371L75.5662 31.4697Z" fill="#14181F"/>
<path d="M81.1387 34.6855V35.2198H78.1035V30.9354H81.0566V31.4697H78.698V32.7857H80.7956V33.2804H78.698V34.6607L81.1387 34.6855Z" fill="#14181F"/>
<path d="M85.5466 30.9354V35.2198H85.0633L82.5549 32.0238V35.2198H81.9556V30.9354H82.4389L84.9666 34.1363V30.9354H85.5466Z" fill="#14181F"/>
<path d="M86.3344 33.0776C86.3307 32.782 86.3862 32.4888 86.4974 32.216C86.6086 31.9432 86.7732 31.6965 86.981 31.4912C87.1888 31.2859 87.4354 31.1263 87.7057 31.0222C87.976 30.9182 88.2643 30.8718 88.5528 30.886C88.8491 30.8738 89.1446 30.9272 89.419 31.0424C89.6934 31.1577 89.9403 31.3321 90.1429 31.5539L89.7562 31.9398C89.6055 31.776 89.4222 31.6472 89.2188 31.5618C89.0154 31.4765 88.7966 31.4367 88.5769 31.445C88.1501 31.445 87.7407 31.6186 87.4389 31.9276C87.1371 32.2365 86.9675 32.6555 86.9675 33.0925C86.9675 33.5294 87.1371 33.9484 87.4389 34.2574C87.7407 34.5664 88.1501 34.7399 88.5769 34.7399C88.7964 34.7467 89.0148 34.7062 89.218 34.6209C89.4211 34.5357 89.6045 34.4077 89.7562 34.2452L90.1429 34.6311C89.9398 34.8539 89.6922 35.0293 89.417 35.1454C89.1418 35.2615 88.8454 35.3155 88.5479 35.3039C88.257 35.3177 87.9663 35.2698 87.6943 35.1633C87.4222 35.0568 87.1745 34.894 86.9668 34.685C86.759 34.476 86.5956 34.2254 86.4868 33.9488C86.3779 33.6723 86.3261 33.3757 86.3344 33.0776Z" fill="#14181F"/>
<path d="M93.8932 34.6855V35.2198H90.8628V30.9354H93.8158V31.4697H91.4621V32.7857H93.5597V33.2804H91.4621V34.6607L93.8932 34.6855Z" fill="#14181F"/>
<path d="M95.8408 33.0776C95.8372 32.782 95.8927 32.4888 96.0039 32.216C96.1151 31.9432 96.2797 31.6965 96.4875 31.4912C96.6953 31.2859 96.9419 31.1263 97.2122 31.0222C97.4825 30.9182 97.7708 30.8718 98.0592 30.886C98.3555 30.8745 98.6508 30.9281 98.9251 31.0433C99.1994 31.1585 99.4464 31.3326 99.6493 31.5539L99.2627 31.9398C99.1116 31.7765 98.9283 31.648 98.725 31.5627C98.5217 31.4774 98.303 31.4373 98.0834 31.445C97.8174 31.4469 97.5559 31.5162 97.3224 31.6468C97.089 31.7774 96.8908 31.9652 96.7456 32.1934C96.6004 32.4217 96.5127 32.6832 96.4905 32.9545C96.4682 33.2259 96.512 33.4987 96.618 33.7485C96.7239 33.9984 96.8887 34.2174 97.0976 34.386C97.3065 34.5547 97.553 34.6677 97.8151 34.7149C98.0771 34.7622 98.3465 34.7422 98.5991 34.6568C98.8517 34.5713 99.0797 34.4231 99.2627 34.2254L99.6493 34.6113C99.4453 34.8342 99.1969 35.0096 98.9209 35.1257C98.6449 35.2418 98.3477 35.2958 98.0496 35.2841C97.7605 35.2978 97.4717 35.2504 97.2013 35.1451C96.9308 35.0397 96.6844 34.8786 96.4772 34.6717C96.2701 34.4648 96.1068 34.2165 95.9973 33.9423C95.8878 33.6681 95.8346 33.3738 95.8408 33.0776Z" fill="#14181F"/>
<path d="M103.395 34.6855V35.2198H100.36V30.9354H103.313V31.4697H100.959V32.7857H103.057V33.2804H100.959V34.6607L103.395 34.6855Z" fill="#14181F"/>
<path d="M107.822 30.9354V35.2198H107.339L104.831 32.0238V35.2198H104.231V30.9354H104.715L107.228 34.1314V30.9354H107.822Z" fill="#14181F"/>
<path d="M109.765 31.4697H108.315V30.9354H111.781V31.4697H110.331V35.2198H109.736L109.765 31.4697Z" fill="#14181F"/>
<path d="M115.101 35.2198L114.197 33.9038H113.931H112.897V35.2099H112.298V30.9354H113.931C115.019 30.9354 115.681 31.4994 115.681 32.4196C115.694 32.7173 115.61 33.0109 115.443 33.255C115.276 33.4992 115.035 33.6802 114.758 33.7702L115.749 35.2099L115.101 35.2198ZM115.101 32.4295C115.101 31.816 114.7 31.4697 113.936 31.4697H112.916V33.3942H113.936C114.681 33.3942 115.082 33.043 115.082 32.4295H115.101Z" fill="#14181F"/>
<path d="M119.543 34.6855V35.2198H116.503V30.9354H119.456V31.4697H117.102V32.7857H119.2V33.2804H117.102V34.6607L119.543 34.6855Z" fill="#14181F"/>
<path d="M64.6913 14.8419V17.5135H52.043V0.247375H64.353V2.93376H55.17V7.42096H63.3138V10.0579H55.1748V14.8419H64.6913Z" fill="#14181F"/>
<path d="M66.9004 8.90512C66.9004 3.75004 70.7669 0.0247192 75.9383 0.0247192C78.6836 0.0247192 81.047 1.01418 82.6129 2.909L80.5878 4.85823C80.0226 4.21017 79.3278 3.69409 78.5506 3.34498C77.7734 2.99586 76.932 2.82186 76.0833 2.83479C72.589 2.81005 70.0806 5.32823 70.0806 8.90512C70.0806 12.482 72.6083 14.9705 76.1027 14.9705C76.9539 14.9853 77.798 14.8097 78.576 14.4559C79.354 14.1021 80.0472 13.5788 80.6072 12.9223L82.6322 14.9013C81.0663 16.7763 78.7029 17.7905 75.9335 17.7905C70.7572 17.7608 66.9004 14.0355 66.9004 8.90512Z" fill="#14181F"/>
<path d="M84.0532 8.90512C84.0532 3.75004 87.9197 0.0247192 93.0912 0.0247192C95.8364 0.0247192 98.1998 1.01418 99.7657 2.909L97.7407 4.85823C97.1754 4.21017 96.4806 3.69409 95.7034 3.34498C94.9262 2.99586 94.0848 2.82186 93.2362 2.83479C89.7418 2.83479 87.2093 5.35296 87.2093 8.90512C87.2093 12.4573 89.7418 14.9705 93.2362 14.9705C94.0874 14.9853 94.9315 14.8097 95.7095 14.4559C96.4875 14.1021 97.1807 13.5788 97.7407 12.9223L99.7657 14.9013C98.1998 16.7763 95.8364 17.7905 93.067 17.7905C87.9101 17.7608 84.0532 14.0355 84.0532 8.90512Z" fill="#14181F"/>
<path d="M101.206 8.90512C101.206 3.75004 105.073 0.0247192 110.244 0.0247192C112.989 0.0247192 115.348 1.01418 116.919 2.909L114.893 4.85823C114.327 4.21056 113.631 3.6948 112.853 3.34574C112.075 2.99668 111.233 2.82245 110.384 2.83479C106.895 2.83479 104.362 5.35296 104.362 8.90512C104.362 12.4573 106.895 14.9705 110.384 14.9705C111.236 14.985 112.081 14.8093 112.86 14.4556C113.638 14.1019 114.332 13.5786 114.893 12.9223L116.919 14.9013C115.348 16.7763 112.989 17.7905 110.215 17.7905C105.063 17.7608 101.206 14.0355 101.206 8.90512Z" fill="#14181F"/>
<path d="M136 4.7995V12.9567H123.128V4.7995H136Z" stroke="#14181F" stroke-width="2"/>
<path d="M129.243 6.01095L129.557 5.77348L129.876 6.01095L129.755 5.62506L130.07 5.40243H129.683L129.557 5.0116L129.436 5.40243H129.045L129.364 5.62506L129.243 6.01095Z" fill="#14181F"/>
<path d="M127.619 6.46115L127.938 6.22368L128.252 6.46115L128.131 6.07526L128.45 5.83779H128.078L127.957 5.46179L127.831 5.83779H127.445L127.759 6.07526L127.619 6.46115Z" fill="#14181F"/>
<path d="M126.739 6.67389L126.628 7.05978H126.227L126.556 7.29725L126.435 7.67324L126.739 7.43577L127.058 7.67324L126.938 7.29725L127.252 7.05978H126.86L126.739 6.67389Z" fill="#14181F"/>
<path d="M126.314 9.09807L126.619 9.33554L126.507 8.95954L126.826 8.72207H126.435L126.314 8.33618L126.193 8.72207H125.802L126.116 8.95954L125.995 9.33554L126.314 9.09807Z" fill="#14181F"/>
<path d="M126.86 10.3893L126.739 10.0133L126.628 10.3893H126.227L126.556 10.6268L126.435 11.0127L126.739 10.7752L127.058 11.0127L126.938 10.6268L127.252 10.3893H126.86Z" fill="#14181F"/>
<path d="M128.078 11.6063L127.957 11.2205L127.831 11.6063H127.445L127.759 11.8438L127.638 12.2198L127.957 11.9823L128.271 12.2198L128.15 11.8438L128.469 11.6063H128.078Z" fill="#14181F"/>
<path d="M129.683 12.0466L129.557 11.6707L129.436 12.0466H129.045L129.364 12.2841L129.243 12.6552L129.557 12.4325L129.876 12.6552L129.755 12.2841L130.07 12.0466H129.683Z" fill="#14181F"/>
<path d="M131.302 11.6063L131.181 11.2205L131.06 11.6063H130.668L130.987 11.8438L130.867 12.2198L131.181 11.9823L131.5 12.2198L131.379 11.8438L131.693 11.6063H131.302Z" fill="#14181F"/>
<path d="M132.486 10.3893L132.379 10.0133L132.254 10.3893H131.867L132.181 10.6268L132.061 11.0127L132.379 10.7752L132.684 11.0127L132.573 10.6268L132.911 10.3893H132.486Z" fill="#14181F"/>
<path d="M133.317 8.72207H132.911L132.79 8.33618L132.669 8.72207H132.278L132.597 8.94965L132.471 9.33554L132.79 9.09807L133.109 9.33554L132.983 8.94965L133.317 8.72207Z" fill="#14181F"/>
<path d="M132.061 7.67324L132.379 7.43577L132.684 7.67324L132.573 7.28735L132.892 7.05978H132.486L132.379 6.67389L132.254 7.05978H131.867L132.181 7.28735L132.061 7.67324Z" fill="#14181F"/>
<path d="M131.181 5.44202L131.07 5.81801H130.668L130.987 6.05548L130.876 6.44137L131.181 6.2039L131.5 6.44137L131.379 6.05548L131.693 5.81801H131.302L131.181 5.44202Z" fill="#14181F"/>
<path d="M0 0.247375V7.32202H2.68722V2.99807H19.202V7.32202H21.8941V2.99807H38.4089V7.32202H41.0961V0.247375H0Z" fill="#14181F"/>
<path d="M38.4089 31.821L20.5457 42.7892L2.68722 31.821V11.5717H0V33.3794L20.5457 46L41.0961 33.3794V11.5717H38.4089V31.821Z" fill="#14181F"/>
<path d="M6.83887 7.32196V29.4166L20.5456 37.8369L34.2572 29.4166V7.32196H31.57V27.8582L20.5456 34.6311L9.52609 27.8582V7.32196H6.83887Z" fill="#14181F"/>
<path d="M13.6729 7.32196V25.4538L20.5456 29.6788L27.4231 25.4538V7.32196H24.7311V23.8954L20.5456 26.468L16.3601 23.8954V7.32196H13.6729Z" fill="#14181F"/>
</g>
<defs>
<clipPath id="clip0_6229_2890">
<rect width="137" height="46" fill="white"/>
</clipPath>
</defs>
</svg>
