<svg width="20" height="20" viewBox="0 0 20 20" fill="none" xmlns="http://www.w3.org/2000/svg">
<path d="M14.1255 13.125H6.62549C6.50181 13.1249 6.38087 13.1615 6.278 13.2302C6.17513 13.2988 6.09495 13.3965 6.0476 13.5108C6.00026 13.625 5.98788 13.7508 6.01204 13.8721C6.03619 13.9934 6.0958 14.1048 6.1833 14.1922L9.9333 17.9422C9.99135 18.0003 10.0603 18.0464 10.1362 18.0779C10.212 18.1093 10.2934 18.1255 10.3755 18.1255C10.4576 18.1255 10.539 18.1093 10.6148 18.0779C10.6907 18.0464 10.7596 18.0003 10.8177 17.9422L14.5677 14.1922C14.6552 14.1048 14.7148 13.9934 14.7389 13.8721C14.7631 13.7508 14.7507 13.625 14.7034 13.5108C14.656 13.3965 14.5759 13.2988 14.473 13.2302C14.3701 13.1615 14.2492 13.1249 14.1255 13.125Z" fill="#1B7DF5"/>
<path d="M6.04765 6.48907C6.00027 6.37488 5.98783 6.2492 6.01189 6.12794C6.03595 6.00668 6.09543 5.89527 6.1828 5.80782L9.9328 2.05782C9.99085 1.99971 10.0598 1.95361 10.1357 1.92215C10.2115 1.8907 10.2929 1.87451 10.375 1.87451C10.4571 1.87451 10.5385 1.8907 10.6143 1.92215C10.6902 1.95361 10.7591 1.99971 10.8172 2.05782L14.5672 5.80782C14.6547 5.89523 14.7143 6.00663 14.7384 6.12794C14.7626 6.24924 14.7502 6.37498 14.7029 6.48925C14.6555 6.60351 14.5754 6.70116 14.4725 6.76983C14.3696 6.8385 14.2487 6.8751 14.125 6.875H6.62499C6.50138 6.87498 6.38055 6.8383 6.27778 6.7696C6.17502 6.70091 6.09493 6.60328 6.04765 6.48907Z" fill="#B6C1CA"/>
</svg>
