<svg width="20" height="20" viewBox="0 0 20 20" fill="none" xmlns="http://www.w3.org/2000/svg">
<path d="M5.87451 6.875H13.3745C13.4982 6.8751 13.6191 6.83849 13.722 6.76982C13.8249 6.70116 13.9051 6.60351 13.9524 6.48924C13.9997 6.37498 14.0121 6.24924 13.988 6.12793C13.9638 6.00663 13.9042 5.89522 13.8167 5.80781L10.0667 2.05781C10.0086 1.9997 9.93972 1.9536 9.86385 1.92215C9.78797 1.8907 9.70664 1.87451 9.62451 1.87451C9.54237 1.87451 9.46104 1.8907 9.38517 1.92215C9.3093 1.9536 9.24037 1.9997 9.18232 2.05781L5.43232 5.80781C5.34481 5.89522 5.28521 6.00663 5.26105 6.12793C5.2369 6.24924 5.24927 6.37498 5.29662 6.48924C5.34396 6.60351 5.42415 6.70116 5.52702 6.76982C5.62989 6.83849 5.75082 6.8751 5.87451 6.875Z" fill="#1B7DF5"/>
<path d="M13.9523 13.5104C13.9997 13.6246 14.0121 13.7503 13.9881 13.8716C13.964 13.9928 13.9045 14.1042 13.8171 14.1917L10.0671 17.9417C10.0091 17.9998 9.94016 18.0459 9.86428 18.0774C9.78841 18.1088 9.70708 18.125 9.62495 18.125C9.54281 18.125 9.46148 18.1088 9.38561 18.0774C9.30973 18.0459 9.2408 17.9998 9.18276 17.9417L5.43276 14.1917C5.34525 14.1043 5.28565 13.9929 5.26149 13.8716C5.23733 13.7503 5.24971 13.6245 5.29706 13.5103C5.3444 13.396 5.42459 13.2984 5.52746 13.2297C5.63033 13.161 5.75126 13.1244 5.87495 13.1245H13.3749C13.4986 13.1245 13.6194 13.1612 13.7222 13.2299C13.8249 13.2986 13.905 13.3962 13.9523 13.5104Z" fill="#B6C1CA"/>
</svg>
