<svg width="120" height="120" viewBox="0 0 120 120" fill="none" xmlns="http://www.w3.org/2000/svg">
<path d="M111 88.1671L70.008 16.9781C68.9836 15.234 67.5212 13.7878 65.7658 12.783C64.0104 11.7782 62.0228 11.2496 60.0001 11.2496C57.9775 11.2496 55.9899 11.7782 54.2345 12.783C52.479 13.7878 51.0167 15.234 49.9923 16.9781L9.00015 88.1671C8.01453 89.8541 7.49512 91.7727 7.49512 93.7265C7.49512 95.6803 8.01453 97.5989 9.00015 99.2859C10.0114 101.041 11.4713 102.495 13.23 103.499C14.9887 104.503 16.9829 105.021 19.008 105H100.992C103.016 105.019 105.008 104.5 106.765 103.496C108.522 102.492 109.98 101.039 110.991 99.2859C111.978 97.5998 112.499 95.6815 112.5 93.7278C112.502 91.774 111.984 89.8549 111 88.1671ZM104.499 95.5312C104.141 96.1408 103.628 96.6444 103.012 96.9903C102.396 97.3363 101.699 97.5122 100.992 97.4999H19.008C18.3014 97.5122 17.6044 97.3363 16.9883 96.9903C16.3721 96.6444 15.8591 96.1408 15.5017 95.5312C15.178 94.9832 15.0073 94.3583 15.0073 93.7218C15.0073 93.0853 15.178 92.4605 15.5017 91.9124L56.4939 20.7234C56.8585 20.1167 57.3738 19.6147 57.9899 19.2661C58.6059 18.9176 59.3017 18.7344 60.0095 18.7344C60.7173 18.7344 61.4131 18.9176 62.0291 19.2661C62.6452 19.6147 63.1606 20.1167 63.5251 20.7234L104.517 91.9124C104.838 92.4622 105.006 93.0879 105.002 93.7244C104.999 94.3609 104.825 94.9848 104.499 95.5312ZM56.2501 67.4999V48.7499C56.2501 47.7554 56.6452 46.8016 57.3485 46.0983C58.0518 45.395 59.0056 44.9999 60.0001 44.9999C60.9947 44.9999 61.9485 45.395 62.6518 46.0983C63.3551 46.8016 63.7501 47.7554 63.7501 48.7499V67.4999C63.7501 68.4945 63.3551 69.4483 62.6518 70.1516C61.9485 70.8549 60.9947 71.2499 60.0001 71.2499C59.0056 71.2499 58.0518 70.8549 57.3485 70.1516C56.6452 69.4483 56.2501 68.4945 56.2501 67.4999ZM65.6251 84.3749C65.6251 85.4875 65.2952 86.575 64.6772 87.5C64.0591 88.425 63.1806 89.146 62.1527 89.5718C61.1249 89.9975 59.9939 90.1089 58.9028 89.8919C57.8116 89.6748 56.8093 89.1391 56.0227 88.3524C55.236 87.5657 54.7003 86.5635 54.4832 85.4723C54.2662 84.3812 54.3776 83.2502 54.8033 82.2224C55.2291 81.1945 55.95 80.316 56.8751 79.6979C57.8001 79.0798 58.8876 78.7499 60.0001 78.7499C61.492 78.7499 62.9227 79.3426 63.9776 80.3975C65.0325 81.4524 65.6251 82.8831 65.6251 84.3749Z" fill="#ED2315"/>
</svg>
