<svg width="120" height="120" viewBox="0 0 120 120" fill="none" xmlns="http://www.w3.org/2000/svg">
<path d="M81.4031 46.0969C81.7518 46.4451 82.0284 46.8587 82.2171 47.314C82.4058 47.7692 82.503 48.2572 82.503 48.75C82.503 49.2428 82.4058 49.7308 82.2171 50.186C82.0284 50.6413 81.7518 51.0549 81.4031 51.4031L55.1531 77.6531C54.8049 78.0018 54.3913 78.2784 53.936 78.4671C53.4808 78.6558 52.9928 78.7529 52.5 78.7529C52.0072 78.7529 51.5192 78.6558 51.064 78.4671C50.6088 78.2784 50.1952 78.0018 49.8469 77.6531L38.5969 66.4031C37.8932 65.6995 37.4979 64.7451 37.4979 63.75C37.4979 62.7549 37.8932 61.8005 38.5969 61.0969C39.3005 60.3932 40.2549 59.9979 41.25 59.9979C42.2451 59.9979 43.1995 60.3932 43.9031 61.0969L52.5 69.6984L76.0969 46.0969C76.4452 45.7482 76.8588 45.4716 77.314 45.2829C77.7692 45.0942 78.2572 44.997 78.75 44.997C79.2428 44.997 79.7308 45.0942 80.186 45.2829C80.6413 45.4716 81.0549 45.7482 81.4031 46.0969ZM108.75 60C108.75 69.6418 105.891 79.0671 100.534 87.084C95.1774 95.1009 87.5637 101.349 78.6558 105.039C69.7479 108.729 59.9459 109.694 50.4894 107.813C41.0328 105.932 32.3464 101.289 25.5286 94.4715C18.7108 87.6536 14.0678 78.9672 12.1867 69.5107C10.3057 60.0541 11.2711 50.2521 14.9609 41.3442C18.6507 32.4363 24.8991 24.8226 32.916 19.4659C40.9329 14.1091 50.3582 11.25 60 11.25C72.9251 11.2636 85.317 16.4042 94.4564 25.5436C103.596 34.6831 108.736 47.0749 108.75 60ZM101.25 60C101.25 51.8415 98.8308 43.8663 94.2981 37.0827C89.7655 30.2992 83.3232 25.0121 75.7857 21.89C68.2483 18.7679 59.9543 17.951 51.9525 19.5426C43.9508 21.1342 36.6008 25.0629 30.8319 30.8318C25.063 36.6008 21.1343 43.9508 19.5426 51.9525C17.951 59.9542 18.7679 68.2482 21.89 75.7857C25.0121 83.3231 30.2992 89.7655 37.0827 94.2981C43.8663 98.8307 51.8415 101.25 60 101.25C70.9364 101.238 81.4213 96.8876 89.1545 89.1545C96.8877 81.4213 101.238 70.9364 101.25 60Z" fill="#0081C5"/>
</svg>
