<svg width="32" height="33" viewBox="0 0 32 33" fill="none" xmlns="http://www.w3.org/2000/svg">
<path d="M27.0613 13.5615L17.0613 23.5615C16.9219 23.7013 16.7563 23.8123 16.574 23.888C16.3917 23.9637 16.1962 24.0027 15.9988 24.0027C15.8013 24.0027 15.6059 23.9637 15.4235 23.888C15.2412 23.8123 15.0756 23.7013 14.9363 23.5615L4.93626 13.5615C4.65446 13.2797 4.49615 12.8975 4.49615 12.499C4.49615 12.1005 4.65446 11.7183 4.93626 11.4365C5.21805 11.1547 5.60024 10.9964 5.99876 10.9964C6.39727 10.9964 6.77946 11.1547 7.06126 11.4365L16 20.3752L24.9388 11.4352C25.2205 11.1534 25.6027 10.9951 26.0013 10.9951C26.3998 10.9951 26.782 11.1534 27.0638 11.4352C27.3455 11.717 27.5039 12.0992 27.5039 12.4977C27.5039 12.8962 27.3455 13.2784 27.0638 13.5602L27.0613 13.5615Z" fill="#525E6F"/>
</svg>
