<svg width="34" height="33" viewBox="0 0 34 33" fill="none" xmlns="http://www.w3.org/2000/svg">
<path d="M5.9229 11.4744C6.06181 11.3341 6.22704 11.2226 6.40913 11.1463C6.59122 11.07 6.78657 11.0304 6.98399 11.0298C7.18141 11.0292 7.37701 11.0675 7.55958 11.1427C7.74215 11.2178 7.90809 11.3282 8.04789 11.4676L17.0125 20.3754L25.9228 11.4108C26.2037 11.1281 26.5854 10.9686 26.9839 10.9673C27.3824 10.966 27.7651 11.1231 28.0478 11.404C28.3305 11.6849 28.49 12.0666 28.4913 12.4651C28.4925 12.8636 28.3354 13.2463 28.0545 13.529L18.0864 23.5608C17.9475 23.701 17.7822 23.8125 17.6001 23.8888C17.4181 23.9651 17.2227 24.0047 17.0253 24.0053C16.8279 24.0059 16.6323 23.9676 16.4497 23.8925C16.2671 23.8173 16.1012 23.7069 15.9614 23.5675L5.92965 13.5993C5.78937 13.4604 5.67789 13.2952 5.6016 13.1131C5.52532 12.931 5.48572 12.7357 5.48509 12.5383C5.48447 12.3408 5.52282 12.1452 5.59795 11.9627C5.67307 11.7801 5.7835 11.6142 5.9229 11.4744Z" fill="#0081C5"/>
</svg>
