<svg width="120" height="120" viewBox="0 0 120 120" fill="none" xmlns="http://www.w3.org/2000/svg">
<path d="M60 11.25C50.3582 11.25 40.9329 14.1091 32.916 19.4659C24.8991 24.8226 18.6507 32.4363 14.9609 41.3442C11.2711 50.2521 10.3057 60.0541 12.1867 69.5107C14.0678 78.9672 18.7108 87.6536 25.5286 94.4715C32.3464 101.289 41.0328 105.932 50.4894 107.813C59.9459 109.694 69.7479 108.729 78.6558 105.039C87.5637 101.349 95.1774 95.1009 100.534 87.084C105.891 79.0671 108.75 69.6418 108.75 60C108.736 47.0749 103.596 34.6831 94.4564 25.5436C85.317 16.4042 72.9251 11.2636 60 11.25ZM60 101.25C51.8415 101.25 43.8663 98.8307 37.0827 94.2981C30.2992 89.7655 25.0121 83.3231 21.89 75.7857C18.7679 68.2482 17.951 59.9542 19.5426 51.9525C21.1343 43.9508 25.063 36.6008 30.8319 30.8318C36.6008 25.0629 43.9508 21.1342 51.9525 19.5426C59.9543 17.951 68.2483 18.7679 75.7857 21.89C83.3232 25.0121 89.7655 30.2992 94.2981 37.0827C98.8307 43.8663 101.25 51.8415 101.25 60C101.238 70.9364 96.8877 81.4213 89.1545 89.1544C81.4213 96.8876 70.9364 101.238 60 101.25ZM67.5 82.5C67.5 83.4946 67.1049 84.4484 66.4017 85.1517C65.6984 85.8549 64.7446 86.25 63.75 86.25C61.7609 86.25 59.8532 85.4598 58.4467 84.0533C57.0402 82.6468 56.25 80.7391 56.25 78.75V60C55.2555 60 54.3016 59.6049 53.5984 58.9016C52.8951 58.1984 52.5 57.2446 52.5 56.25C52.5 55.2554 52.8951 54.3016 53.5984 53.5984C54.3016 52.8951 55.2555 52.5 56.25 52.5C58.2391 52.5 60.1468 53.2902 61.5533 54.6967C62.9598 56.1032 63.75 58.0109 63.75 60V78.75C64.7446 78.75 65.6984 79.1451 66.4017 79.8483C67.1049 80.5516 67.5 81.5054 67.5 82.5ZM52.5 39.375C52.5 38.2625 52.8299 37.1749 53.448 36.2499C54.0661 35.3249 54.9446 34.6039 55.9724 34.1782C57.0003 33.7524 58.1313 33.641 59.2224 33.8581C60.3135 34.0751 61.3158 34.6109 62.1025 35.3975C62.8892 36.1842 63.4249 37.1865 63.6419 38.2776C63.859 39.3688 63.7476 40.4998 63.3218 41.5276C62.8961 42.5554 62.1751 43.4339 61.2501 44.052C60.3251 44.6701 59.2375 45 58.125 45C56.6332 45 55.2024 44.4074 54.1475 43.3525C53.0927 42.2976 52.5 40.8668 52.5 39.375Z" fill="#525E6F"/>
</svg>
