<svg width="24" height="24" viewBox="0 0 24 24" fill="none" xmlns="http://www.w3.org/2000/svg">
<path d="M21.7963 20.2044L17.3441 15.7504C18.679 14.0108 19.3023 11.8286 19.0874 9.64643C18.8725 7.46426 17.8356 5.44552 16.1871 3.99972C14.5385 2.55393 12.4018 1.78935 10.2102 1.86107C8.01865 1.9328 5.93644 2.83546 4.38595 4.38595C2.83546 5.93644 1.9328 8.01865 1.86107 10.2102C1.78935 12.4018 2.55393 14.5385 3.99972 16.1871C5.44552 17.8356 7.46426 18.8725 9.64643 19.0874C11.8286 19.3023 14.0108 18.679 15.7504 17.3441L20.2063 21.801C20.3109 21.9056 20.4352 21.9886 20.5719 22.0453C20.7086 22.1019 20.8552 22.1311 21.0032 22.1311C21.1512 22.1311 21.2977 22.1019 21.4344 22.0453C21.5712 21.9886 21.6954 21.9056 21.8 21.801C21.9047 21.6963 21.9877 21.5721 22.0443 21.4354C22.101 21.2986 22.1301 21.1521 22.1301 21.0041C22.1301 20.8561 22.101 20.7096 22.0443 20.5728C21.9877 20.4361 21.9047 20.3119 21.8 20.2072L21.7963 20.2044ZM4.12536 10.5004C4.12536 9.2395 4.49925 8.00696 5.19974 6.9586C5.90024 5.91024 6.89587 5.09314 8.06075 4.61063C9.22563 4.12812 10.5074 4.00187 11.7441 4.24785C12.9807 4.49383 14.1166 5.10099 15.0082 5.99255C15.8997 6.88411 16.5069 8.02003 16.7529 9.25666C16.9988 10.4933 16.8726 11.7751 16.3901 12.94C15.9076 14.1048 15.0905 15.1005 14.0421 15.801C12.9938 16.5015 11.7612 16.8754 10.5004 16.8754C8.81014 16.8736 7.18964 16.2014 5.99447 15.0062C4.7993 13.8111 4.1271 12.1906 4.12536 10.5004Z" fill="white"/>
</svg>
