<svg width="253" height="242" viewBox="0 0 253 242" fill="none" xmlns="http://www.w3.org/2000/svg">
<path opacity="0.3" d="M84.6883 35.3873C70.0607 76.8422 53.5484 76.3866 28.9792 102.865C4.40948 129.344 12.6943 167.495 49.2625 189.134C68.6891 200.629 58.1188 226.794 84.6883 233.834C129.826 245.795 114.685 215.612 189.25 215.043C263.814 214.474 237.817 166.357 250.958 112.83C263.262 62.7202 216.39 59.5881 205.534 37.6651C180.679 -7.60432 102.972 -16.4305 84.6883 35.3873Z" fill="#0CA5EB"/>
<g clip-path="url(#clip0_7850_6196)">
<path d="M101.568 108.685C101.568 108.685 118.58 93.3911 105.47 69.1009C98.1989 55.6344 102.017 18.8617 125.57 30.2759C149.123 41.69 142.75 27.4645 156.029 33.8182C169.335 40.1719 175.203 49.7024 173.434 60.1326C171.637 70.5346 172.816 90.411 180.986 94.2345C189.155 98.0579 228.344 119.396 203.079 146.385C177.841 173.318 86.0153 153.526 101.568 108.685Z" fill="#0B496F"/>
<path d="M109.821 106.267C109.821 106.267 95.0827 153.47 95.8687 159.711C96.6547 165.924 101.399 185.098 107.126 181.949C112.853 178.8 120.938 160.892 123.38 146.61C125.822 132.329 150.695 85.5755 109.821 106.267Z" fill="#E99912"/>
<path d="M124.728 100.982C126.637 100.982 149.235 98.564 149.235 98.564L164.619 105.311C164.619 105.311 172.311 104.833 170.374 117.344C168.437 129.855 148.253 178.491 144.407 180.881C140.561 183.299 110.747 187.628 105.947 185.688C101.146 183.748 92.5 182.793 92.5 182.793C92.5 182.793 92.5 147.651 91.5455 145.711C90.591 143.771 90.1138 132.244 101.146 123.557C108.81 117.625 124.728 100.982 124.728 100.982Z" fill="#F8BA51"/>
<path d="M158.387 111.103C158.387 111.103 126.187 154.426 125.71 160.695C125.233 166.965 130.988 185.239 137.248 183.327C143.508 181.415 155.046 165.503 160.324 152.036C165.602 138.542 183.877 94.7125 158.387 111.103Z" fill="#E99912"/>
<path d="M149.74 67.2735L146.849 98.564L126.665 100.982L131.465 81.246L149.74 67.2735Z" fill="#F7B68B"/>
<path d="M128.77 91.6481C129.303 91.4231 129.893 91.1701 130.482 90.8609C136.827 87.684 143.817 83.0172 148.505 78.6876L149.684 64.8557L131.409 79.8122L128.77 91.6481Z" fill="#EC9568"/>
<path d="M113.19 49.4775C113.19 49.4775 111.758 65.3617 116.081 74.4987C120.404 83.6356 119.927 90.8608 129.528 86.0534C139.129 81.246 150.19 73.0649 152.604 67.7514C155.018 62.466 151.172 55.2408 144.912 58.6145C138.652 61.9881 139.157 57.1807 132.897 58.1365C126.665 59.0924 115.127 58.1365 113.19 49.4775Z" fill="#F7B68B"/>
<path d="M61.0304 167.724C61.7884 169.439 64.1184 171.322 66.2239 171.322H96.5986C98.7041 171.322 99.7709 169.41 99.0129 167.724L79.3058 123.051C78.5478 121.336 76.2178 119.199 74.1123 119.199H43.7375C41.6321 119.199 40.5653 121.336 41.3233 123.051L61.0304 167.724Z" fill="#194866"/>
<path d="M86.3239 137.052C84.7799 137.08 89.468 142.562 87.3626 143.096C85.2571 143.63 72.119 136.264 72.119 136.264L67.9081 135.73L78.267 143.939C79.053 144.333 71.5856 139.104 67.6274 137.417C65.3535 136.461 63.8095 136.939 63.2199 136.77C61.6479 136.236 76.8072 146.245 76.8072 146.245L70.3785 144.136C70.3785 144.136 66.8975 143.349 68.6099 145.317C69.5363 146.385 70.968 146.638 72.9331 149.394C74.8982 152.149 84.2184 160.33 93.6228 161.482C98.339 162.073 101.511 164.631 101.511 164.631L128.461 186.644C128.461 186.644 145.136 185.548 142.75 174.105C140.392 162.663 122.79 162.073 108.782 157.518C99.6023 154.538 98.9286 151.98 96.9635 150.012C94.9984 148.1 91.2366 136.939 86.3239 137.052Z" fill="#F7B68B"/>
<path d="M42.5303 218.919C42.5303 218.919 30.0379 220.83 27.1465 219.875C24.2549 218.919 9.8536 218.441 4.54784 221.786C-0.729851 225.16 -4.57582 233.341 11.7626 236.715C28.1009 240.088 49.7451 237.193 52.6366 235.281C55.5 233.369 46.3763 217.007 42.5303 218.919Z" fill="#B9E6FE"/>
<path d="M118.495 191.002C118.495 191.002 66.5887 168.37 45.4218 164.041C24.283 159.711 6.00757 148.157 14.6821 171.266C23.3285 194.375 81.0181 235.787 81.0181 235.787C81.0181 235.787 137.725 248.775 118.495 191.002Z" fill="#281616"/>
<path d="M40.5933 217.963C40.5933 217.963 101.652 173.684 113.19 168.37C124.728 163.085 144.435 152.964 149.235 163.563C154.036 174.162 154.99 188.584 152.604 201.601C150.19 214.589 127.086 230.53 110.298 231.935C104.543 232.413 108.866 209.782 108.866 209.782L51.1767 233.369L40.5933 217.963Z" fill="#0B496F"/>
<path d="M51.654 227.128C51.654 227.128 136.266 195.837 140.589 191.508C144.912 187.178 141.066 208.348 139.634 213.661" stroke="#0081C5" stroke-width="2.41" stroke-miterlimit="10"/>
<path d="M41.5759 172.222C41.5759 172.222 62.7147 183.299 68.4977 195.809" stroke="#0081C5" stroke-width="2.41" stroke-miterlimit="10"/>
<path d="M95.8967 222.77C95.8967 222.77 86.2958 214.111 80.0356 213.155C73.7754 212.2 65.6062 209.304 63.6972 216.051C61.7883 222.798 70.9119 234.831 83.8816 237.727C96.8512 240.622 100.613 243.574 107.435 241.1C112.712 239.189 114.172 232.441 113.19 229.068C112.235 225.666 101.652 224.71 95.8967 222.77Z" fill="#B9E6FE"/>
<path d="M45.4218 136.602C45.4218 135.168 54.0683 138.204 54.0683 138.204C54.0683 138.204 55.135 139.975 55.3596 141.409C55.6684 143.658 58.2511 147.51 58.2511 147.51C54.4051 150.884 52.805 151.361 52.805 151.361C52.805 151.361 50.7276 152.008 49.2959 152.008C47.8642 152.008 44.4954 143.827 44.0182 142.393C43.4848 140.931 45.4218 137.08 45.4218 136.602Z" fill="#F7B68B"/>
</g>
<defs>
<clipPath id="clip0_7850_6196">
<rect width="211.444" height="213.889" fill="white" transform="matrix(-1 0 0 1 211.444 28.1111)"/>
</clipPath>
</defs>
</svg>
