<svg width="20" height="20" viewBox="0 0 20 20" fill="none" xmlns="http://www.w3.org/2000/svg">
<path d="M7.52043 2.89452C7.49974 2.81501 7.49493 2.73219 7.50627 2.65082C7.51762 2.56945 7.5449 2.49111 7.58655 2.42029C7.6282 2.34947 7.6834 2.28756 7.74901 2.23809C7.81461 2.18863 7.88932 2.15258 7.96887 2.13202C9.30123 1.78839 10.699 1.78839 12.0314 2.13202C12.1789 2.1698 12.3076 2.26019 12.3933 2.38618C12.4789 2.51217 12.5156 2.6651 12.4964 2.81622C12.4772 2.96734 12.4035 3.10626 12.2891 3.20685C12.1747 3.30744 12.0275 3.36279 11.8751 3.36249C11.8224 3.36221 11.7699 3.35539 11.7189 3.34218C10.5915 3.0514 9.40875 3.0514 8.28137 3.34218C8.12111 3.38352 7.95099 3.3596 7.80834 3.27568C7.66569 3.19176 7.56214 3.05468 7.52043 2.89452ZM4.20246 4.3078C3.2389 5.28899 2.54002 6.4986 2.17121 7.82343C2.12697 7.98318 2.14801 8.15396 2.22969 8.2982C2.31137 8.44244 2.447 8.54833 2.60676 8.59257C2.76651 8.6368 2.93729 8.61577 3.08153 8.53409C3.22577 8.45241 3.33166 8.31677 3.3759 8.15702C3.68767 7.03559 4.27906 6.01168 5.09465 5.18124C5.20132 5.06124 5.25773 4.90479 5.25217 4.74433C5.2466 4.58386 5.1795 4.43169 5.06477 4.31937C4.95003 4.20705 4.79647 4.14319 4.63593 4.14104C4.47538 4.13888 4.32016 4.1986 4.20246 4.3078ZM3.3759 11.8398C3.35394 11.7607 3.31662 11.6867 3.26607 11.6221C3.21551 11.5574 3.15271 11.5033 3.08126 11.4629C3.0098 11.4225 2.93108 11.3965 2.8496 11.3865C2.76812 11.3766 2.68547 11.3827 2.60637 11.4047C2.52726 11.4266 2.45326 11.464 2.38859 11.5145C2.32391 11.5651 2.26982 11.6279 2.22941 11.6993C2.189 11.7708 2.16307 11.8495 2.15308 11.931C2.14309 12.0125 2.14925 12.0951 2.17121 12.1742C2.54024 13.4989 3.23909 14.7085 4.20246 15.6898C4.3187 15.808 4.47714 15.8752 4.64291 15.8766C4.80869 15.878 4.96824 15.8135 5.08644 15.6973C5.20465 15.581 5.27184 15.4226 5.27323 15.2568C5.27463 15.091 5.2101 14.9315 5.09387 14.8133C4.27929 13.9831 3.68825 12.9602 3.3759 11.8398ZM11.7189 16.6578C10.5915 16.9489 9.40871 16.9489 8.28137 16.6578C8.20144 16.6359 8.11795 16.63 8.03576 16.6406C7.95356 16.6513 7.8743 16.6781 7.80258 16.7197C7.73086 16.7612 7.66812 16.8166 7.61802 16.8826C7.56791 16.9486 7.53143 17.024 7.51071 17.1042C7.48999 17.1845 7.48543 17.268 7.49731 17.3501C7.50919 17.4321 7.53726 17.5109 7.5799 17.582C7.62253 17.6531 7.67888 17.715 7.74566 17.7641C7.81244 17.8131 7.88831 17.8485 7.96887 17.868C9.30123 18.2116 10.699 18.2116 12.0314 17.868C12.1896 17.8245 12.3244 17.7205 12.4067 17.5785C12.4889 17.4365 12.512 17.2679 12.471 17.109C12.43 16.9501 12.3281 16.8137 12.1874 16.7293C12.0466 16.6449 11.8784 16.6192 11.7189 16.6578ZM17.3946 11.4062C17.3155 11.3843 17.2328 11.3781 17.1513 11.3882C17.0697 11.3982 16.991 11.4242 16.9195 11.4647C16.848 11.5052 16.7853 11.5594 16.7347 11.6241C16.6842 11.6889 16.647 11.763 16.6251 11.8422C16.3135 12.9634 15.7221 13.9871 14.9064 14.8172C14.8489 14.8758 14.8035 14.9451 14.7727 15.0212C14.742 15.0973 14.7266 15.1788 14.7274 15.2609C14.7282 15.343 14.7451 15.4241 14.7772 15.4996C14.8093 15.5752 14.856 15.6437 14.9146 15.7012C14.9732 15.7587 15.0425 15.8041 15.1186 15.8348C15.1947 15.8655 15.2762 15.8809 15.3583 15.8801C15.4403 15.8794 15.5215 15.8625 15.597 15.8303C15.6726 15.7982 15.741 15.7515 15.7986 15.693C16.7622 14.7119 17.4612 13.5022 17.8298 12.1773C17.852 12.0981 17.8584 12.0153 17.8485 11.9337C17.8386 11.852 17.8127 11.7731 17.7723 11.7014C17.7319 11.6298 17.6777 11.5669 17.6129 11.5162C17.5481 11.4655 17.4739 11.4282 17.3946 11.4062ZM16.6243 8.16092C16.6463 8.24003 16.6836 8.31403 16.7342 8.37871C16.7847 8.44338 16.8475 8.49747 16.919 8.53788C16.9904 8.57829 17.0692 8.60422 17.1506 8.61421C17.2321 8.6242 17.3148 8.61804 17.3939 8.59608C17.473 8.57413 17.547 8.53681 17.6116 8.48625C17.6763 8.4357 17.7304 8.3729 17.7708 8.30144C17.8112 8.22998 17.8372 8.15127 17.8472 8.06978C17.8571 7.9883 17.851 7.90565 17.829 7.82655C17.4604 6.50166 16.7615 5.29201 15.7978 4.31093C15.7402 4.25239 15.6717 4.20577 15.5961 4.17372C15.5205 4.14167 15.4394 4.12482 15.3573 4.12414C15.2752 4.12345 15.1938 4.13893 15.1177 4.16971C15.0416 4.20048 14.9723 4.24595 14.9138 4.3035C14.8553 4.36106 14.8086 4.42958 14.7766 4.50515C14.7445 4.58073 14.7277 4.66187 14.727 4.74396C14.7263 4.82604 14.7418 4.90746 14.7726 4.98356C14.8033 5.05966 14.8488 5.12896 14.9064 5.18749C15.7212 6.01713 16.3123 7.03991 16.6243 8.16014V8.16092Z" fill="#61960D"/>
</svg>
