<svg width="44" height="44" viewBox="0 0 44 44" fill="none" xmlns="http://www.w3.org/2000/svg">
<rect width="44" height="44" rx="22" fill="white"/>
<path d="M29.5383 22.6631L23.9133 28.2881C23.7372 28.4642 23.4983 28.5631 23.2492 28.5631C23.0001 28.5631 22.7613 28.4642 22.5852 28.2881C22.409 28.1119 22.3101 27.8731 22.3101 27.624C22.3101 27.3749 22.409 27.136 22.5852 26.9599L26.6094 22.9373H15.125C14.8764 22.9373 14.6379 22.8385 14.4621 22.6627C14.2863 22.4869 14.1875 22.2484 14.1875 21.9998C14.1875 21.7511 14.2863 21.5127 14.4621 21.3369C14.6379 21.161 14.8764 21.0623 15.125 21.0623H26.6094L22.5867 17.0373C22.4106 16.8612 22.3117 16.6223 22.3117 16.3732C22.3117 16.1241 22.4106 15.8853 22.5867 15.7091C22.7628 15.533 23.0017 15.4341 23.2508 15.4341C23.4999 15.4341 23.7387 15.533 23.9148 15.7091L29.5398 21.3341C29.6273 21.4214 29.6966 21.525 29.7438 21.6391C29.7911 21.7531 29.8153 21.8754 29.8152 21.9989C29.815 22.1224 29.7905 22.2446 29.743 22.3586C29.6955 22.4726 29.6259 22.576 29.5383 22.6631Z" fill="#6F7C8E"/>
</svg>
