<svg width="24" height="24" viewBox="0 0 24 24" fill="none" xmlns="http://www.w3.org/2000/svg">
<path d="M9.02451 3.47353C8.99969 3.37812 8.99391 3.27874 9.00753 3.1811C9.02114 3.08345 9.05388 2.98944 9.10386 2.90446C9.15384 2.81947 9.22009 2.74518 9.29881 2.68582C9.37753 2.62646 9.46718 2.58321 9.56264 2.55853C11.1615 2.14618 12.8388 2.14618 14.4376 2.55853C14.6147 2.60387 14.7692 2.71233 14.8719 2.86352C14.9747 3.01471 15.0187 3.19823 14.9956 3.37958C14.9726 3.56092 14.8841 3.72762 14.7469 3.84833C14.6096 3.96904 14.4329 4.03546 14.2501 4.0351C14.1869 4.03476 14.1239 4.02658 14.0626 4.01072C12.7098 3.66179 11.2905 3.66179 9.93764 4.01072C9.74533 4.06033 9.54119 4.03163 9.37001 3.93093C9.19882 3.83022 9.07457 3.66573 9.02451 3.47353ZM5.04295 5.16947C3.88668 6.3469 3.04802 7.79843 2.60545 9.38822C2.55237 9.57992 2.57761 9.78486 2.67563 9.95795C2.77364 10.131 2.93641 10.2581 3.12811 10.3112C3.31981 10.3643 3.52475 10.339 3.69784 10.241C3.87093 10.143 3.99799 9.98024 4.05108 9.78853C4.42521 8.44282 5.13488 7.21412 6.11358 6.2176C6.24159 6.0736 6.30928 5.88586 6.3026 5.6933C6.29592 5.50074 6.2154 5.31814 6.07772 5.18336C5.94004 5.04857 5.75577 4.97194 5.56311 4.96936C5.37046 4.96677 5.1842 5.03843 5.04295 5.16947ZM4.05108 14.2079C4.02473 14.113 3.97995 14.0242 3.91928 13.9466C3.85861 13.869 3.78326 13.8041 3.69751 13.7556C3.61176 13.7071 3.5173 13.6759 3.41952 13.664C3.32174 13.652 3.22256 13.6594 3.12764 13.6857C3.03272 13.7121 2.94392 13.7569 2.8663 13.8175C2.78869 13.8782 2.72378 13.9535 2.67529 14.0393C2.62681 14.125 2.59568 14.2195 2.5837 14.3173C2.57171 14.4151 2.5791 14.5142 2.60545 14.6092C3.04828 16.1988 3.88691 17.6503 5.04295 18.8279C5.18244 18.9698 5.37256 19.0504 5.5715 19.0521C5.77043 19.0537 5.96188 18.9763 6.10373 18.8368C6.24558 18.6973 6.32621 18.5072 6.32788 18.3083C6.32955 18.1093 6.25213 17.9179 6.11264 17.776C5.13515 16.7798 4.4259 15.5523 4.05108 14.2079ZM14.0626 19.9895C12.7098 20.3388 11.2905 20.3388 9.93764 19.9895C9.84173 19.9631 9.74155 19.9561 9.64291 19.9689C9.54427 19.9816 9.44916 20.0139 9.3631 20.0637C9.27704 20.1136 9.20175 20.18 9.14162 20.2593C9.08149 20.3385 9.03772 20.4289 9.01285 20.5252C8.98799 20.6215 8.98252 20.7218 8.99677 20.8202C9.01103 20.9186 9.04472 21.0132 9.09588 21.0985C9.14704 21.1838 9.21466 21.2581 9.29479 21.317C9.37492 21.3759 9.46597 21.4183 9.56264 21.4417C11.1615 21.854 12.8388 21.854 14.4376 21.4417C14.6275 21.3895 14.7893 21.2648 14.888 21.0944C14.9867 20.924 15.0144 20.7216 14.9652 20.5309C14.916 20.3402 14.7937 20.1766 14.6248 20.0753C14.456 19.974 14.254 19.9432 14.0626 19.9895ZM20.8736 13.6876C20.7786 13.6612 20.6793 13.6539 20.5815 13.6659C20.4837 13.678 20.3892 13.7092 20.3034 13.7577C20.2177 13.8063 20.1423 13.8713 20.0817 13.9491C20.0211 14.0268 19.9764 14.1157 19.9501 14.2107C19.5762 15.5562 18.8665 16.7847 17.8876 17.7807C17.8186 17.851 17.7642 17.9342 17.7273 18.0256C17.6904 18.1169 17.672 18.2146 17.6729 18.3132C17.6738 18.4117 17.6941 18.509 17.7326 18.5997C17.7712 18.6903 17.8272 18.7725 17.8975 18.8415C17.9678 18.9105 18.051 18.965 18.1423 19.0018C18.2337 19.0387 18.3314 19.0572 18.4299 19.0563C18.5284 19.0554 18.6258 19.0351 18.7164 18.9965C18.8071 18.958 18.8893 18.902 18.9583 18.8317C20.1147 17.6544 20.9534 16.2028 21.3958 14.6129C21.4224 14.5179 21.43 14.4185 21.4182 14.3205C21.4064 14.2225 21.3753 14.1278 21.3268 14.0418C21.2783 13.9559 21.2133 13.8803 21.1355 13.8195C21.0577 13.7588 20.9687 13.7139 20.8736 13.6876ZM19.9492 9.79322C19.9755 9.88814 20.0203 9.97694 20.081 10.0546C20.1417 10.1322 20.217 10.1971 20.3028 10.2456C20.3885 10.2941 20.483 10.3252 20.5808 10.3372C20.6785 10.3491 20.7777 10.3418 20.8726 10.3154C20.9676 10.2891 21.0564 10.2443 21.134 10.1836C21.2116 10.1229 21.2765 10.0476 21.325 9.96184C21.3735 9.87609 21.4046 9.78163 21.4166 9.68385C21.4286 9.58607 21.4212 9.48689 21.3948 9.39197C20.9525 7.8021 20.1138 6.35053 18.9573 5.17322C18.8883 5.10298 18.806 5.04704 18.7153 5.00858C18.6247 4.97012 18.5273 4.9499 18.4288 4.94907C18.3303 4.94825 18.2326 4.96683 18.1413 5.00376C18.0499 5.04069 17.9668 5.09525 17.8965 5.16431C17.8263 5.23338 17.7704 5.31561 17.7319 5.40629C17.6934 5.49698 17.6732 5.59436 17.6724 5.69286C17.6716 5.79136 17.6902 5.88906 17.7271 5.98039C17.764 6.07171 17.8186 6.15486 17.8876 6.2251C18.8655 7.22067 19.5748 8.448 19.9492 9.79228V9.79322Z" fill="#14181F"/>
<path d="M9.02451 3.47353C8.99969 3.37812 8.99391 3.27874 9.00753 3.1811C9.02114 3.08345 9.05388 2.98944 9.10386 2.90446C9.15384 2.81947 9.22009 2.74518 9.29881 2.68582C9.37753 2.62646 9.46718 2.58321 9.56264 2.55853C11.1615 2.14618 12.8388 2.14618 14.4376 2.55853C14.6147 2.60387 14.7692 2.71233 14.8719 2.86352C14.9747 3.01471 15.0187 3.19823 14.9956 3.37958C14.9726 3.56092 14.8841 3.72762 14.7469 3.84833C14.6096 3.96904 14.4329 4.03546 14.2501 4.0351C14.1869 4.03476 14.1239 4.02658 14.0626 4.01072C12.7098 3.66179 11.2905 3.66179 9.93764 4.01072C9.74533 4.06033 9.54119 4.03163 9.37001 3.93093C9.19882 3.83022 9.07457 3.66573 9.02451 3.47353ZM5.04295 5.16947C3.88668 6.3469 3.04802 7.79843 2.60545 9.38822C2.55237 9.57992 2.57761 9.78486 2.67563 9.95795C2.77364 10.131 2.93641 10.2581 3.12811 10.3112C3.31981 10.3643 3.52475 10.339 3.69784 10.241C3.87093 10.143 3.99799 9.98024 4.05108 9.78853C4.42521 8.44282 5.13488 7.21412 6.11358 6.2176C6.24159 6.0736 6.30928 5.88586 6.3026 5.6933C6.29592 5.50074 6.2154 5.31814 6.07772 5.18336C5.94004 5.04857 5.75577 4.97194 5.56311 4.96936C5.37046 4.96677 5.1842 5.03843 5.04295 5.16947ZM4.05108 14.2079C4.02473 14.113 3.97995 14.0242 3.91928 13.9466C3.85861 13.869 3.78326 13.8041 3.69751 13.7556C3.61176 13.7071 3.5173 13.6759 3.41952 13.664C3.32174 13.652 3.22256 13.6594 3.12764 13.6857C3.03272 13.7121 2.94392 13.7569 2.8663 13.8175C2.78869 13.8782 2.72378 13.9535 2.67529 14.0393C2.62681 14.125 2.59568 14.2195 2.5837 14.3173C2.57171 14.4151 2.5791 14.5142 2.60545 14.6092C3.04828 16.1988 3.88691 17.6503 5.04295 18.8279C5.18244 18.9698 5.37256 19.0504 5.5715 19.0521C5.77043 19.0537 5.96188 18.9763 6.10373 18.8368C6.24558 18.6973 6.32621 18.5072 6.32788 18.3083C6.32955 18.1093 6.25213 17.9179 6.11264 17.776C5.13515 16.7798 4.4259 15.5523 4.05108 14.2079ZM14.0626 19.9895C12.7098 20.3388 11.2905 20.3388 9.93764 19.9895C9.84173 19.9631 9.74155 19.9561 9.64291 19.9689C9.54427 19.9816 9.44916 20.0139 9.3631 20.0637C9.27704 20.1136 9.20175 20.18 9.14162 20.2593C9.08149 20.3385 9.03772 20.4289 9.01285 20.5252C8.98799 20.6215 8.98252 20.7218 8.99677 20.8202C9.01103 20.9186 9.04472 21.0132 9.09588 21.0985C9.14704 21.1838 9.21466 21.2581 9.29479 21.317C9.37492 21.3759 9.46597 21.4183 9.56264 21.4417C11.1615 21.854 12.8388 21.854 14.4376 21.4417C14.6275 21.3895 14.7893 21.2648 14.888 21.0944C14.9867 20.924 15.0144 20.7216 14.9652 20.5309C14.916 20.3402 14.7937 20.1766 14.6248 20.0753C14.456 19.974 14.254 19.9432 14.0626 19.9895ZM20.8736 13.6876C20.7786 13.6612 20.6793 13.6539 20.5815 13.6659C20.4837 13.678 20.3892 13.7092 20.3034 13.7577C20.2177 13.8063 20.1423 13.8713 20.0817 13.9491C20.0211 14.0268 19.9764 14.1157 19.9501 14.2107C19.5762 15.5562 18.8665 16.7847 17.8876 17.7807C17.8186 17.851 17.7642 17.9342 17.7273 18.0256C17.6904 18.1169 17.672 18.2146 17.6729 18.3132C17.6738 18.4117 17.6941 18.509 17.7326 18.5997C17.7712 18.6903 17.8272 18.7725 17.8975 18.8415C17.9678 18.9105 18.051 18.965 18.1423 19.0018C18.2337 19.0387 18.3314 19.0572 18.4299 19.0563C18.5284 19.0554 18.6258 19.0351 18.7164 18.9965C18.8071 18.958 18.8893 18.902 18.9583 18.8317C20.1147 17.6544 20.9534 16.2028 21.3958 14.6129C21.4224 14.5179 21.43 14.4185 21.4182 14.3205C21.4064 14.2225 21.3753 14.1278 21.3268 14.0418C21.2783 13.9559 21.2133 13.8803 21.1355 13.8195C21.0577 13.7588 20.9687 13.7139 20.8736 13.6876ZM19.9492 9.79322C19.9755 9.88814 20.0203 9.97694 20.081 10.0546C20.1417 10.1322 20.217 10.1971 20.3028 10.2456C20.3885 10.2941 20.483 10.3252 20.5808 10.3372C20.6785 10.3491 20.7777 10.3418 20.8726 10.3154C20.9676 10.2891 21.0564 10.2443 21.134 10.1836C21.2116 10.1229 21.2765 10.0476 21.325 9.96184C21.3735 9.87609 21.4046 9.78163 21.4166 9.68385C21.4286 9.58607 21.4212 9.48689 21.3948 9.39197C20.9525 7.8021 20.1138 6.35053 18.9573 5.17322C18.8883 5.10298 18.806 5.04704 18.7153 5.00858C18.6247 4.97012 18.5273 4.9499 18.4288 4.94907C18.3303 4.94825 18.2326 4.96683 18.1413 5.00376C18.0499 5.04069 17.9668 5.09525 17.8965 5.16431C17.8263 5.23338 17.7704 5.31561 17.7319 5.40629C17.6934 5.49698 17.6732 5.59436 17.6724 5.69286C17.6716 5.79136 17.6902 5.88906 17.7271 5.98039C17.764 6.07171 17.8186 6.15486 17.8876 6.2251C18.8655 7.22067 19.5748 8.448 19.9492 9.79228V9.79322Z" fill="black" fill-opacity="0.2"/>
<path d="M9.02451 3.47353C8.99969 3.37812 8.99391 3.27874 9.00753 3.1811C9.02114 3.08345 9.05388 2.98944 9.10386 2.90446C9.15384 2.81947 9.22009 2.74518 9.29881 2.68582C9.37753 2.62646 9.46718 2.58321 9.56264 2.55853C11.1615 2.14618 12.8388 2.14618 14.4376 2.55853C14.6147 2.60387 14.7692 2.71233 14.8719 2.86352C14.9747 3.01471 15.0187 3.19823 14.9956 3.37958C14.9726 3.56092 14.8841 3.72762 14.7469 3.84833C14.6096 3.96904 14.4329 4.03546 14.2501 4.0351C14.1869 4.03476 14.1239 4.02658 14.0626 4.01072C12.7098 3.66179 11.2905 3.66179 9.93764 4.01072C9.74533 4.06033 9.54119 4.03163 9.37001 3.93093C9.19882 3.83022 9.07457 3.66573 9.02451 3.47353ZM5.04295 5.16947C3.88668 6.3469 3.04802 7.79843 2.60545 9.38822C2.55237 9.57992 2.57761 9.78486 2.67563 9.95795C2.77364 10.131 2.93641 10.2581 3.12811 10.3112C3.31981 10.3643 3.52475 10.339 3.69784 10.241C3.87093 10.143 3.99799 9.98024 4.05108 9.78853C4.42521 8.44282 5.13488 7.21412 6.11358 6.2176C6.24159 6.0736 6.30928 5.88586 6.3026 5.6933C6.29592 5.50074 6.2154 5.31814 6.07772 5.18336C5.94004 5.04857 5.75577 4.97194 5.56311 4.96936C5.37046 4.96677 5.1842 5.03843 5.04295 5.16947ZM4.05108 14.2079C4.02473 14.113 3.97995 14.0242 3.91928 13.9466C3.85861 13.869 3.78326 13.8041 3.69751 13.7556C3.61176 13.7071 3.5173 13.6759 3.41952 13.664C3.32174 13.652 3.22256 13.6594 3.12764 13.6857C3.03272 13.7121 2.94392 13.7569 2.8663 13.8175C2.78869 13.8782 2.72378 13.9535 2.67529 14.0393C2.62681 14.125 2.59568 14.2195 2.5837 14.3173C2.57171 14.4151 2.5791 14.5142 2.60545 14.6092C3.04828 16.1988 3.88691 17.6503 5.04295 18.8279C5.18244 18.9698 5.37256 19.0504 5.5715 19.0521C5.77043 19.0537 5.96188 18.9763 6.10373 18.8368C6.24558 18.6973 6.32621 18.5072 6.32788 18.3083C6.32955 18.1093 6.25213 17.9179 6.11264 17.776C5.13515 16.7798 4.4259 15.5523 4.05108 14.2079ZM14.0626 19.9895C12.7098 20.3388 11.2905 20.3388 9.93764 19.9895C9.84173 19.9631 9.74155 19.9561 9.64291 19.9689C9.54427 19.9816 9.44916 20.0139 9.3631 20.0637C9.27704 20.1136 9.20175 20.18 9.14162 20.2593C9.08149 20.3385 9.03772 20.4289 9.01285 20.5252C8.98799 20.6215 8.98252 20.7218 8.99677 20.8202C9.01103 20.9186 9.04472 21.0132 9.09588 21.0985C9.14704 21.1838 9.21466 21.2581 9.29479 21.317C9.37492 21.3759 9.46597 21.4183 9.56264 21.4417C11.1615 21.854 12.8388 21.854 14.4376 21.4417C14.6275 21.3895 14.7893 21.2648 14.888 21.0944C14.9867 20.924 15.0144 20.7216 14.9652 20.5309C14.916 20.3402 14.7937 20.1766 14.6248 20.0753C14.456 19.974 14.254 19.9432 14.0626 19.9895ZM20.8736 13.6876C20.7786 13.6612 20.6793 13.6539 20.5815 13.6659C20.4837 13.678 20.3892 13.7092 20.3034 13.7577C20.2177 13.8063 20.1423 13.8713 20.0817 13.9491C20.0211 14.0268 19.9764 14.1157 19.9501 14.2107C19.5762 15.5562 18.8665 16.7847 17.8876 17.7807C17.8186 17.851 17.7642 17.9342 17.7273 18.0256C17.6904 18.1169 17.672 18.2146 17.6729 18.3132C17.6738 18.4117 17.6941 18.509 17.7326 18.5997C17.7712 18.6903 17.8272 18.7725 17.8975 18.8415C17.9678 18.9105 18.051 18.965 18.1423 19.0018C18.2337 19.0387 18.3314 19.0572 18.4299 19.0563C18.5284 19.0554 18.6258 19.0351 18.7164 18.9965C18.8071 18.958 18.8893 18.902 18.9583 18.8317C20.1147 17.6544 20.9534 16.2028 21.3958 14.6129C21.4224 14.5179 21.43 14.4185 21.4182 14.3205C21.4064 14.2225 21.3753 14.1278 21.3268 14.0418C21.2783 13.9559 21.2133 13.8803 21.1355 13.8195C21.0577 13.7588 20.9687 13.7139 20.8736 13.6876ZM19.9492 9.79322C19.9755 9.88814 20.0203 9.97694 20.081 10.0546C20.1417 10.1322 20.217 10.1971 20.3028 10.2456C20.3885 10.2941 20.483 10.3252 20.5808 10.3372C20.6785 10.3491 20.7777 10.3418 20.8726 10.3154C20.9676 10.2891 21.0564 10.2443 21.134 10.1836C21.2116 10.1229 21.2765 10.0476 21.325 9.96184C21.3735 9.87609 21.4046 9.78163 21.4166 9.68385C21.4286 9.58607 21.4212 9.48689 21.3948 9.39197C20.9525 7.8021 20.1138 6.35053 18.9573 5.17322C18.8883 5.10298 18.806 5.04704 18.7153 5.00858C18.6247 4.97012 18.5273 4.9499 18.4288 4.94907C18.3303 4.94825 18.2326 4.96683 18.1413 5.00376C18.0499 5.04069 17.9668 5.09525 17.8965 5.16431C17.8263 5.23338 17.7704 5.31561 17.7319 5.40629C17.6934 5.49698 17.6732 5.59436 17.6724 5.69286C17.6716 5.79136 17.6902 5.88906 17.7271 5.98039C17.764 6.07171 17.8186 6.15486 17.8876 6.2251C18.8655 7.22067 19.5748 8.448 19.9492 9.79228V9.79322Z" fill="black" fill-opacity="0.2"/>
<path d="M9.02451 3.47353C8.99969 3.37812 8.99391 3.27874 9.00753 3.1811C9.02114 3.08345 9.05388 2.98944 9.10386 2.90446C9.15384 2.81947 9.22009 2.74518 9.29881 2.68582C9.37753 2.62646 9.46718 2.58321 9.56264 2.55853C11.1615 2.14618 12.8388 2.14618 14.4376 2.55853C14.6147 2.60387 14.7692 2.71233 14.8719 2.86352C14.9747 3.01471 15.0187 3.19823 14.9956 3.37958C14.9726 3.56092 14.8841 3.72762 14.7469 3.84833C14.6096 3.96904 14.4329 4.03546 14.2501 4.0351C14.1869 4.03476 14.1239 4.02658 14.0626 4.01072C12.7098 3.66179 11.2905 3.66179 9.93764 4.01072C9.74533 4.06033 9.54119 4.03163 9.37001 3.93093C9.19882 3.83022 9.07457 3.66573 9.02451 3.47353ZM5.04295 5.16947C3.88668 6.3469 3.04802 7.79843 2.60545 9.38822C2.55237 9.57992 2.57761 9.78486 2.67563 9.95795C2.77364 10.131 2.93641 10.2581 3.12811 10.3112C3.31981 10.3643 3.52475 10.339 3.69784 10.241C3.87093 10.143 3.99799 9.98024 4.05108 9.78853C4.42521 8.44282 5.13488 7.21412 6.11358 6.2176C6.24159 6.0736 6.30928 5.88586 6.3026 5.6933C6.29592 5.50074 6.2154 5.31814 6.07772 5.18336C5.94004 5.04857 5.75577 4.97194 5.56311 4.96936C5.37046 4.96677 5.1842 5.03843 5.04295 5.16947ZM4.05108 14.2079C4.02473 14.113 3.97995 14.0242 3.91928 13.9466C3.85861 13.869 3.78326 13.8041 3.69751 13.7556C3.61176 13.7071 3.5173 13.6759 3.41952 13.664C3.32174 13.652 3.22256 13.6594 3.12764 13.6857C3.03272 13.7121 2.94392 13.7569 2.8663 13.8175C2.78869 13.8782 2.72378 13.9535 2.67529 14.0393C2.62681 14.125 2.59568 14.2195 2.5837 14.3173C2.57171 14.4151 2.5791 14.5142 2.60545 14.6092C3.04828 16.1988 3.88691 17.6503 5.04295 18.8279C5.18244 18.9698 5.37256 19.0504 5.5715 19.0521C5.77043 19.0537 5.96188 18.9763 6.10373 18.8368C6.24558 18.6973 6.32621 18.5072 6.32788 18.3083C6.32955 18.1093 6.25213 17.9179 6.11264 17.776C5.13515 16.7798 4.4259 15.5523 4.05108 14.2079ZM14.0626 19.9895C12.7098 20.3388 11.2905 20.3388 9.93764 19.9895C9.84173 19.9631 9.74155 19.9561 9.64291 19.9689C9.54427 19.9816 9.44916 20.0139 9.3631 20.0637C9.27704 20.1136 9.20175 20.18 9.14162 20.2593C9.08149 20.3385 9.03772 20.4289 9.01285 20.5252C8.98799 20.6215 8.98252 20.7218 8.99677 20.8202C9.01103 20.9186 9.04472 21.0132 9.09588 21.0985C9.14704 21.1838 9.21466 21.2581 9.29479 21.317C9.37492 21.3759 9.46597 21.4183 9.56264 21.4417C11.1615 21.854 12.8388 21.854 14.4376 21.4417C14.6275 21.3895 14.7893 21.2648 14.888 21.0944C14.9867 20.924 15.0144 20.7216 14.9652 20.5309C14.916 20.3402 14.7937 20.1766 14.6248 20.0753C14.456 19.974 14.254 19.9432 14.0626 19.9895ZM20.8736 13.6876C20.7786 13.6612 20.6793 13.6539 20.5815 13.6659C20.4837 13.678 20.3892 13.7092 20.3034 13.7577C20.2177 13.8063 20.1423 13.8713 20.0817 13.9491C20.0211 14.0268 19.9764 14.1157 19.9501 14.2107C19.5762 15.5562 18.8665 16.7847 17.8876 17.7807C17.8186 17.851 17.7642 17.9342 17.7273 18.0256C17.6904 18.1169 17.672 18.2146 17.6729 18.3132C17.6738 18.4117 17.6941 18.509 17.7326 18.5997C17.7712 18.6903 17.8272 18.7725 17.8975 18.8415C17.9678 18.9105 18.051 18.965 18.1423 19.0018C18.2337 19.0387 18.3314 19.0572 18.4299 19.0563C18.5284 19.0554 18.6258 19.0351 18.7164 18.9965C18.8071 18.958 18.8893 18.902 18.9583 18.8317C20.1147 17.6544 20.9534 16.2028 21.3958 14.6129C21.4224 14.5179 21.43 14.4185 21.4182 14.3205C21.4064 14.2225 21.3753 14.1278 21.3268 14.0418C21.2783 13.9559 21.2133 13.8803 21.1355 13.8195C21.0577 13.7588 20.9687 13.7139 20.8736 13.6876ZM19.9492 9.79322C19.9755 9.88814 20.0203 9.97694 20.081 10.0546C20.1417 10.1322 20.217 10.1971 20.3028 10.2456C20.3885 10.2941 20.483 10.3252 20.5808 10.3372C20.6785 10.3491 20.7777 10.3418 20.8726 10.3154C20.9676 10.2891 21.0564 10.2443 21.134 10.1836C21.2116 10.1229 21.2765 10.0476 21.325 9.96184C21.3735 9.87609 21.4046 9.78163 21.4166 9.68385C21.4286 9.58607 21.4212 9.48689 21.3948 9.39197C20.9525 7.8021 20.1138 6.35053 18.9573 5.17322C18.8883 5.10298 18.806 5.04704 18.7153 5.00858C18.6247 4.97012 18.5273 4.9499 18.4288 4.94907C18.3303 4.94825 18.2326 4.96683 18.1413 5.00376C18.0499 5.04069 17.9668 5.09525 17.8965 5.16431C17.8263 5.23338 17.7704 5.31561 17.7319 5.40629C17.6934 5.49698 17.6732 5.59436 17.6724 5.69286C17.6716 5.79136 17.6902 5.88906 17.7271 5.98039C17.764 6.07171 17.8186 6.15486 17.8876 6.2251C18.8655 7.22067 19.5748 8.448 19.9492 9.79228V9.79322Z" fill="black" fill-opacity="0.2"/>
</svg>
