<svg width="48" height="48" viewBox="0 0 48 48" fill="none" xmlns="http://www.w3.org/2000/svg">
<g clip-path="url(#clip0_6041_833)">
<path d="M37.8566 0H10.1434C4.54134 0 0 4.54126 0 10.1433V37.8565C0 43.4585 4.54134 48 10.1434 48H37.8566C43.4587 48 48 43.4585 48 37.8565V10.1433C48 4.54126 43.4587 0 37.8566 0Z" fill="#EFBC14"/>
<path d="M13.4995 11.5198V11.5793C12.3475 11.5793 11.3395 11.8788 10.6195 12.6008C9.89954 13.3208 9.60001 14.3288 9.60001 15.4808V33.6593C9.59435 33.7194 9.59435 33.7798 9.60001 33.8398C9.63766 34.0429 9.73982 34.2285 9.89132 34.3689C10.0428 34.5094 10.2356 34.5972 10.441 34.6193C10.4602 34.6199 10.4794 34.6199 10.4986 34.6193C10.519 34.62 10.5395 34.62 10.56 34.6193H35.4605C35.6671 34.6096 35.8654 34.5347 36.0268 34.4054C36.1882 34.276 36.3045 34.0989 36.3591 33.8993L40.2605 20.4593C40.2929 20.3201 40.2945 20.1754 40.2651 20.0354C40.2356 19.8955 40.1759 19.7637 40.0901 19.6494C40.0042 19.535 39.8944 19.4408 39.7683 19.3734C39.6422 19.306 39.5028 19.2671 39.36 19.2593H36.4205C36.4167 18.1438 36.1555 17.0936 35.4605 16.3793C34.7616 15.6612 33.7133 15.3598 32.5805 15.3598H22.0205L21.5405 12.3588C21.5109 12.1257 21.3968 11.9116 21.2199 11.7569C21.043 11.6023 20.8155 11.5179 20.5805 11.5198H13.4995ZM13.4995 13.4993H19.801L20.281 16.5003C20.3106 16.7334 20.4246 16.9476 20.6016 17.1022C20.7785 17.2568 21.006 17.3412 21.241 17.3393H32.5805C33.3965 17.3393 33.8381 17.5121 34.08 17.7598C34.3181 18.0056 34.4947 18.4606 34.5005 19.2593H14.4576C14.248 19.2521 14.0415 19.3123 13.8687 19.4312C13.6958 19.5501 13.5658 19.7214 13.4976 19.9198L11.52 26.8798V15.4788C11.52 14.634 11.6813 14.179 11.9405 13.9198C12.1997 13.6606 12.6567 13.4993 13.4995 13.4993ZM15.1795 21.1793H38.041L34.681 32.6398H11.881L15.1795 21.1793Z" fill="white"/>
</g>
<defs>
<clipPath id="clip0_6041_833">
<rect width="48" height="48" fill="white"/>
</clipPath>
</defs>
</svg>
