<svg width="25" height="24" viewBox="0 0 25 24" fill="none" xmlns="http://www.w3.org/2000/svg">
<path d="M12.25 2.25C10.3216 2.25 8.43657 2.82183 6.83319 3.89317C5.22982 4.96451 3.98013 6.48726 3.24218 8.26884C2.50422 10.0504 2.31114 12.0108 2.68735 13.9021C3.06355 15.7934 3.99215 17.5307 5.35571 18.8943C6.71928 20.2579 8.45656 21.1865 10.3479 21.5627C12.2392 21.9389 14.1996 21.7458 15.9812 21.0078C17.7627 20.2699 19.2855 19.0202 20.3568 17.4168C21.4282 15.8134 22 13.9284 22 12C21.9973 9.41498 20.9692 6.93661 19.1413 5.10872C17.3134 3.28084 14.835 2.25273 12.25 2.25ZM4 12C4.00095 10.369 4.48531 8.77487 5.39189 7.41904C6.29848 6.06321 7.58661 5.00652 9.09351 4.38249C10.6004 3.75846 12.2585 3.59509 13.8582 3.91302C15.4579 4.23096 16.9275 5.01593 18.0813 6.16875L6.41875 17.8312C5.65153 17.0664 5.04291 16.1575 4.62784 15.1568C4.21276 14.1562 3.9994 13.0834 4 12Z" fill="#14181F"/>
<path d="M12.25 2.25C10.3216 2.25 8.43657 2.82183 6.83319 3.89317C5.22982 4.96451 3.98013 6.48726 3.24218 8.26884C2.50422 10.0504 2.31114 12.0108 2.68735 13.9021C3.06355 15.7934 3.99215 17.5307 5.35571 18.8943C6.71928 20.2579 8.45656 21.1865 10.3479 21.5627C12.2392 21.9389 14.1996 21.7458 15.9812 21.0078C17.7627 20.2699 19.2855 19.0202 20.3568 17.4168C21.4282 15.8134 22 13.9284 22 12C21.9973 9.41498 20.9692 6.93661 19.1413 5.10872C17.3134 3.28084 14.835 2.25273 12.25 2.25ZM4 12C4.00095 10.369 4.48531 8.77487 5.39189 7.41904C6.29848 6.06321 7.58661 5.00652 9.09351 4.38249C10.6004 3.75846 12.2585 3.59509 13.8582 3.91302C15.4579 4.23096 16.9275 5.01593 18.0813 6.16875L6.41875 17.8312C5.65153 17.0664 5.04291 16.1575 4.62784 15.1568C4.21276 14.1562 3.9994 13.0834 4 12Z" fill="black" fill-opacity="0.2"/>
<path d="M12.25 2.25C10.3216 2.25 8.43657 2.82183 6.83319 3.89317C5.22982 4.96451 3.98013 6.48726 3.24218 8.26884C2.50422 10.0504 2.31114 12.0108 2.68735 13.9021C3.06355 15.7934 3.99215 17.5307 5.35571 18.8943C6.71928 20.2579 8.45656 21.1865 10.3479 21.5627C12.2392 21.9389 14.1996 21.7458 15.9812 21.0078C17.7627 20.2699 19.2855 19.0202 20.3568 17.4168C21.4282 15.8134 22 13.9284 22 12C21.9973 9.41498 20.9692 6.93661 19.1413 5.10872C17.3134 3.28084 14.835 2.25273 12.25 2.25ZM4 12C4.00095 10.369 4.48531 8.77487 5.39189 7.41904C6.29848 6.06321 7.58661 5.00652 9.09351 4.38249C10.6004 3.75846 12.2585 3.59509 13.8582 3.91302C15.4579 4.23096 16.9275 5.01593 18.0813 6.16875L6.41875 17.8312C5.65153 17.0664 5.04291 16.1575 4.62784 15.1568C4.21276 14.1562 3.9994 13.0834 4 12Z" fill="black" fill-opacity="0.2"/>
<path d="M12.25 2.25C10.3216 2.25 8.43657 2.82183 6.83319 3.89317C5.22982 4.96451 3.98013 6.48726 3.24218 8.26884C2.50422 10.0504 2.31114 12.0108 2.68735 13.9021C3.06355 15.7934 3.99215 17.5307 5.35571 18.8943C6.71928 20.2579 8.45656 21.1865 10.3479 21.5627C12.2392 21.9389 14.1996 21.7458 15.9812 21.0078C17.7627 20.2699 19.2855 19.0202 20.3568 17.4168C21.4282 15.8134 22 13.9284 22 12C21.9973 9.41498 20.9692 6.93661 19.1413 5.10872C17.3134 3.28084 14.835 2.25273 12.25 2.25ZM4 12C4.00095 10.369 4.48531 8.77487 5.39189 7.41904C6.29848 6.06321 7.58661 5.00652 9.09351 4.38249C10.6004 3.75846 12.2585 3.59509 13.8582 3.91302C15.4579 4.23096 16.9275 5.01593 18.0813 6.16875L6.41875 17.8312C5.65153 17.0664 5.04291 16.1575 4.62784 15.1568C4.21276 14.1562 3.9994 13.0834 4 12Z" fill="black" fill-opacity="0.2"/>
</svg>
