<svg width="85" height="85" viewBox="0 0 85 85" fill="none" xmlns="http://www.w3.org/2000/svg">
<path d="M83.7549 81.0986H78.8021V28.4845C82.3154 27.8901 85 24.8273 85 21.1476C85 17.0435 81.6611 13.7046 77.557 13.7046C73.4529 13.7046 70.1139 17.0435 70.1139 21.1476C70.1139 23.3093 71.0409 25.2579 72.5174 26.6189L59.8387 46.1344C58.9327 45.7413 57.9345 45.522 56.8858 45.522C54.8893 45.522 53.0754 46.3135 51.7373 47.5975L43.4343 41.4413C43.9505 40.429 44.2437 39.2848 44.2437 38.0725C44.2437 33.9685 40.9048 30.6296 36.8007 30.6296C32.6966 30.6296 29.3577 33.9685 29.3577 38.0725C29.3577 40.2429 30.2919 42.1987 31.7787 43.5605L21.5251 59.4548C20.625 59.0675 19.6343 58.8524 18.5939 58.8524C16.6751 58.8524 14.9236 59.5825 13.6023 60.7793L2.49023 52.0281V2.65625C2.49023 1.96861 1.93275 1.41113 1.24512 1.41113C0.55748 1.41113 0 1.96861 0 2.65625V82.3438C0 83.0314 0.55748 83.5889 1.24512 83.5889H83.7549C84.4425 83.5889 85 83.0314 85 82.3438C85 81.6561 84.4425 81.0986 83.7549 81.0986ZM77.557 16.1948C80.288 16.1948 82.5098 18.4166 82.5098 21.1476C82.5098 23.8785 80.288 26.1005 77.557 26.1005C74.8261 26.1005 72.6041 23.8787 72.6041 21.1476C72.6041 18.4164 74.8259 16.1948 77.557 16.1948ZM74.6039 27.9783C75.1433 28.2124 75.7156 28.3835 76.3117 28.4845V81.0986H58.1309V60.302C61.6441 59.7077 64.3287 56.6449 64.3287 52.9651C64.3287 50.8034 63.4017 48.8547 61.9252 47.4937L74.6039 27.9783ZM56.8858 48.0125C59.6167 48.0125 61.8385 50.2343 61.8385 52.9653C61.8385 55.6963 59.6167 57.918 56.8858 57.918C54.1548 57.918 51.933 55.6963 51.933 52.9653C51.933 50.2343 54.1548 48.0125 56.8858 48.0125ZM36.8007 33.1201C39.5316 33.1201 41.7536 35.3419 41.7536 38.0729C41.7536 40.8038 39.5318 43.0256 36.8007 43.0256C34.0696 43.0256 31.8479 40.8038 31.8479 38.0729C31.8479 35.3419 34.0697 33.1201 36.8007 33.1201ZM33.8695 44.9135C34.4024 45.1426 34.9675 45.3103 35.5556 45.4098V68.1227C35.5556 68.8103 36.113 69.3678 36.8007 69.3678C37.4883 69.3678 38.0458 68.8103 38.0458 68.1227V45.4098C39.5467 45.1558 40.8956 44.4513 41.9492 43.4403L50.2521 49.5965C49.736 50.6089 49.4428 51.753 49.4428 52.9651C49.4428 56.6449 52.1276 59.7075 55.6406 60.302V81.0986H38.0458V73.103C38.0458 72.4154 37.4883 71.8579 36.8007 71.8579C36.113 71.8579 35.5556 72.4154 35.5556 73.103V81.0986H19.8389V73.6326C23.3521 73.0381 26.0367 69.9756 26.0367 66.2958C26.0367 64.1255 25.1026 62.1697 23.6159 60.8079L33.8695 44.9135ZM18.5938 61.3429C21.3247 61.3429 23.5465 63.5647 23.5465 66.2957C23.5465 69.0266 21.3247 71.2484 18.5938 71.2484C15.8628 71.2484 13.6408 69.0266 13.6408 66.2957C13.6408 63.5647 15.8628 61.3429 18.5938 61.3429ZM2.49023 55.198L12.0597 62.7348C11.4805 63.7932 11.1508 65.0066 11.1508 66.2958C11.1508 69.9756 13.8356 73.0382 17.3488 73.6326V81.0986H2.49023V55.198Z" fill="#0081C5"/>
<path d="M13.0244 20.175H22.6571C23.8015 20.175 24.7323 19.2442 24.7323 18.0999V8.46729C24.7323 7.32295 23.8015 6.3921 22.6571 6.3921H13.0244C11.8801 6.3921 10.9492 7.32295 10.9492 8.46729V9.54141C10.9492 10.2291 11.5067 10.7865 12.1943 10.7865C12.882 10.7865 13.4395 10.2291 13.4395 9.54141V8.88233H22.2421V17.685H13.4395V14.5219C13.4395 13.8342 12.882 13.2768 12.1943 13.2768C11.5067 13.2768 10.9492 13.8342 10.9492 14.5219V18.0999C10.9492 19.2442 11.8801 20.175 13.0244 20.175Z" fill="#0081C5"/>
<path d="M30.7402 11.7005H46.6777C47.3654 11.7005 47.9228 11.143 47.9228 10.4553C47.9228 9.7677 47.3654 9.21022 46.6777 9.21022H30.7402C30.0526 9.21022 29.4951 9.7677 29.4951 10.4553C29.4951 11.143 30.0526 11.7005 30.7402 11.7005Z" fill="#0081C5"/>
<path d="M30.7402 17.3569H53.761C54.4486 17.3569 55.0061 16.7995 55.0061 16.1118C55.0061 15.4242 54.4486 14.8667 53.761 14.8667H30.7402C30.0526 14.8667 29.4951 15.4242 29.4951 16.1118C29.4951 16.7995 30.0526 17.3569 30.7402 17.3569Z" fill="#0081C5"/>
</svg>
