<svg width="85" height="85" viewBox="0 0 85 85" fill="none" xmlns="http://www.w3.org/2000/svg">
<g clip-path="url(#clip0_6309_289)">
<path d="M39.5562 46.5534H72.0625C72.7503 46.5534 73.3076 45.9961 73.3076 45.3083C73.3076 42.9922 73.0722 40.6778 72.608 38.4298C72.4691 37.7563 71.8102 37.3225 71.137 37.4623C70.4634 37.6012 70.0303 38.26 70.1694 38.9333C70.5162 40.6132 70.7253 42.3337 70.793 44.063H40.8013V13.9744C52.9259 14.4888 63.6648 21.9225 68.3896 33.1869C68.6557 33.8209 69.385 34.1195 70.0194 33.8534C70.6534 33.5875 70.9519 32.8578 70.6859 32.2236C67.6965 25.0966 62.4753 19.3913 56.0305 15.7771V8.5498H60.7618C61.4496 8.5498 62.0069 7.99249 62.0069 7.30469C62.0069 6.61688 61.4496 6.05957 60.7618 6.05957H54.7853C54.0975 6.05957 53.5401 6.61688 53.5401 7.30469V14.5121C49.2568 12.5561 44.5301 11.4795 39.6184 11.4559C39.4371 11.4478 39.2538 11.4772 39.0797 11.5494C38.6143 11.742 38.311 12.1962 38.311 12.6997V45.3085C38.311 45.9961 38.8683 46.5534 39.5562 46.5534Z" fill="#0081C5"/>
<path d="M77.6953 70.3906C73.6674 70.3906 70.3906 73.6674 70.3906 77.6953C70.3906 81.7232 73.6674 85 77.6953 85C81.7232 85 85 81.7232 85 77.6953C85 73.6674 81.7232 70.3906 77.6953 70.3906ZM77.6953 82.5098C75.0407 82.5098 72.8809 80.3499 72.8809 77.6953C72.8809 75.0407 75.0407 72.8809 77.6953 72.8809C80.3499 72.8809 82.5098 75.0407 82.5098 77.6953C82.5098 80.3499 80.3499 82.5098 77.6953 82.5098Z" fill="#0081C5"/>
<path d="M72.7979 14.6094C76.8257 14.6094 80.1025 11.3326 80.1025 7.30469C80.1025 3.27682 76.8257 0 72.7979 0C68.77 0 65.4932 3.27682 65.4932 7.30469C65.4932 11.3326 68.77 14.6094 72.7979 14.6094ZM72.7979 2.49023C75.4524 2.49023 77.6123 4.6501 77.6123 7.30469C77.6123 9.95928 75.4524 12.1191 72.7979 12.1191C70.1433 12.1191 67.9834 9.95928 67.9834 7.30469C67.9834 4.6501 70.1433 2.49023 72.7979 2.49023Z" fill="#0081C5"/>
<path d="M13.6963 14.6094C17.7242 14.6094 21.001 11.3326 21.001 7.30469C21.001 3.27682 17.7242 0 13.6963 0C9.66842 0 6.3916 3.27682 6.3916 7.30469C6.3916 11.3326 9.66842 14.6094 13.6963 14.6094ZM13.6963 2.49023C16.3509 2.49023 18.5107 4.6501 18.5107 7.30469C18.5107 9.95928 16.3509 12.1191 13.6963 12.1191C11.0417 12.1191 8.88184 9.95928 8.88184 7.30469C8.88184 4.6501 11.0417 2.49023 13.6963 2.49023Z" fill="#0081C5"/>
<path d="M76.1182 60.0147V65.9082C76.1182 66.596 76.6755 67.1533 77.3633 67.1533C78.0511 67.1533 78.6084 66.596 78.6084 65.9082V58.7695C78.6084 58.0817 78.0511 57.5244 77.3633 57.5244H67.0135C67.4091 55.4579 67.6188 53.3262 67.6188 51.1461C67.6188 50.4583 67.0615 49.901 66.3737 49.901H35.0989V18.4907C35.0989 17.8029 34.5415 17.2455 33.8537 17.2455C26.8547 17.2455 20.3449 19.3805 14.9414 23.0335V18.7598C14.9414 18.072 14.3841 17.5147 13.6963 17.5147C13.0085 17.5147 12.4512 18.072 12.4512 18.7598V24.8897C4.85645 31.1032 0 40.5445 0 51.0998C0 59.968 3.38871 68.3141 9.55055 74.664C9.61264 74.8199 9.70544 74.9635 9.82646 75.0844C16.2206 81.4785 24.7221 85 33.7646 85C49.3641 85 62.5306 74.3938 66.4378 60.0147H76.1182ZM2.91988 56.3152L14.8773 68.2724L10.7927 72.3571C6.61987 67.8391 3.91531 62.2972 2.91988 56.3152ZM7.16025 34.6501L27.83 55.3197L23.1145 60.0352L4.13977 41.0603C4.90643 38.7974 5.92377 36.6495 7.16025 34.6501ZM21.3536 61.7962L16.6384 66.5113L2.51796 52.3911C2.40175 49.5032 2.6785 46.6051 3.35169 43.7939L21.3536 61.7962ZM20.9371 22.5214L32.4728 34.0571C32.5157 34.0999 32.5615 34.1376 32.6086 34.1728V43.6236L15.0211 26.0359C16.8488 24.6591 18.831 23.4771 20.9371 22.5214ZM32.6086 30.6709L23.449 21.5113C26.3339 20.4938 29.4102 19.8855 32.6086 19.76V30.6709ZM13.0835 27.6205L32.3513 46.8883C32.4298 46.9668 32.5168 47.0312 32.6086 47.0844V50.5411L29.591 53.5588L8.68478 32.6526C8.64991 32.6178 8.61322 32.5862 8.57554 32.5563C9.90018 30.7551 11.4126 29.1004 13.0835 27.6205ZM33.7646 82.5098C25.8136 82.5098 18.3147 79.571 12.5071 74.2073L34.3232 52.3912H65.1042C64.4483 69.1103 50.6417 82.5098 33.7646 82.5098Z" fill="#0081C5"/>
</g>
<defs>
<clipPath id="clip0_6309_289">
<rect width="85" height="85" fill="white"/>
</clipPath>
</defs>
</svg>
