<svg width="72" height="85" viewBox="0 0 72 85" fill="none" xmlns="http://www.w3.org/2000/svg">
<path d="M65.0853 34.0501C64.4038 34.0706 63.8785 34.6651 63.8785 35.3469V81.0933C63.8785 81.8756 63.2443 82.5098 62.4621 82.5098H9.2298C8.44754 82.5098 7.81336 81.8756 7.81336 81.0933V75.8223C7.81336 75.1405 7.28809 74.546 6.60659 74.5256C5.90152 74.5043 5.32312 75.0698 5.32312 75.7702V77.1866H3.90668C3.12441 77.1866 2.49023 76.5525 2.49023 75.7702V3.90668C2.49023 3.12441 3.12441 2.49023 3.90668 2.49023H57.1389C57.9212 2.49023 58.5554 3.12441 58.5554 3.90668V5.93423L10.4367 14.1497C7.57297 14.5969 5.32312 16.5376 5.32312 19.384V70.3944C5.32312 71.0763 5.8484 71.6708 6.52989 71.6912C7.23496 71.7123 7.81336 71.147 7.81336 70.4466V19.3842C7.81336 17.8422 9.50207 16.6369 10.5606 16.6369C12.0081 16.6369 13.0206 17.2517 13.7561 18.2813L17.636 23.7132C18.6963 25.1979 20.6152 25.7495 22.3025 25.0549L62.6579 8.43791C63.2251 8.20433 63.8732 8.60459 63.8783 9.21785V13.1702C63.8783 13.852 64.4036 14.4465 65.0851 14.4669C65.7902 14.488 66.3686 13.9227 66.3686 13.2223V9.30866C66.3686 8.31273 66.0238 7.3359 65.3516 6.60095C64.4406 5.60485 63.1085 5.15678 61.8043 5.37974L61.0453 5.50923V3.90685C61.0456 1.74914 59.2965 0 57.1388 0H3.90668C1.74897 0 0 1.74914 0 3.90668V75.77C0 77.9276 1.74914 79.6767 3.90668 79.6767H5.32312V81.0932C5.32312 83.2507 7.07227 84.9998 9.2298 84.9998H62.4621C64.6196 84.9998 66.3687 83.2507 66.3687 81.0932V35.2944C66.3687 34.5942 65.7905 34.0289 65.0853 34.0501ZM21.3544 22.7521C20.7428 23.0038 20.0469 22.8039 19.6624 22.2657L15.7824 16.8338C15.5399 16.4945 15.2656 16.184 14.9673 15.9025L54.2964 9.1878L21.3544 22.7521Z" fill="#0081C5"/>
<path d="M71.6919 21.7583C71.6919 21.0702 71.4239 20.4234 70.9373 19.9368L69.0554 18.0549C68.5688 17.5683 67.922 17.3005 67.2338 17.3005C66.5457 17.3005 65.8989 17.5684 65.4125 18.0549L34.628 48.8395C33.7226 49.7449 32.9732 50.7847 32.4006 51.93L29.4092 57.9129C29.1694 58.3922 29.2634 58.9711 29.6424 59.3501C29.8815 59.5892 30.2001 59.7148 30.5231 59.7148C30.7122 59.7148 30.9028 59.6718 31.0796 59.5833L37.0625 56.5919C38.2077 56.0193 39.2474 55.2699 40.153 54.3643L70.9375 23.5799C71.4239 23.0934 71.6919 22.4465 71.6919 21.7583ZM39.9329 51.0626L37.9298 49.0594L63.4699 23.5193L65.4731 25.5224L39.9329 51.0626ZM35.9489 54.3645L33.3069 55.6855L34.6279 53.0437C35.0341 52.231 35.5539 51.4864 36.1733 50.8247L38.1677 52.819C37.5059 53.4386 36.7612 53.9584 35.9489 54.3645ZM69.1766 21.8189L67.234 23.7617L65.2307 21.7583L67.1734 19.8156C67.1796 19.8095 67.1985 19.7907 67.2338 19.7907C67.2694 19.7907 67.2883 19.8095 67.2944 19.8158L69.1764 21.6977C69.1827 21.7041 69.2015 21.7228 69.2015 21.7583C69.2016 21.7937 69.1829 21.8128 69.1766 21.8189Z" fill="#0081C5"/>
<path d="M27.4107 32.304C26.9244 31.8177 26.136 31.8177 25.6499 32.304L19.8764 38.0775L16.7644 34.9655C16.2782 34.4793 15.4898 34.4793 15.0037 34.9655C14.5174 35.4518 14.5174 36.2402 15.0037 36.7263L18.996 40.7187C19.2391 40.9617 19.5578 41.0834 19.8764 41.0834C20.195 41.0834 20.5137 40.9619 20.7568 40.7187L27.4108 34.0646C27.8971 33.5787 27.8971 32.7902 27.4107 32.304Z" fill="#0081C5"/>
<path d="M43.7451 34.5151C43.7451 33.8275 43.1876 33.27 42.5 33.27H34.5151C33.8275 33.27 33.27 33.8275 33.27 34.5151C33.27 35.2028 33.8275 35.7603 34.5151 35.7603H42.5C43.1876 35.7603 43.7451 35.2028 43.7451 34.5151Z" fill="#0081C5"/>
<path d="M34.5151 38.5933C33.8275 38.5933 33.27 39.1508 33.27 39.8384C33.27 40.5261 33.8275 41.0836 34.5151 41.0836H37.1767C37.8643 41.0836 38.4218 40.5261 38.4218 39.8384C38.4218 39.1508 37.8643 38.5933 37.1767 38.5933H34.5151Z" fill="#0081C5"/>
<path d="M55.808 50.3992C56.4956 50.3992 57.0531 49.8417 57.0531 49.1541C57.0531 48.4664 56.4956 47.909 55.808 47.909H51.8156C51.128 47.909 50.5705 48.4664 50.5705 49.1541C50.5705 49.8417 51.128 50.3992 51.8156 50.3992H55.808Z" fill="#0081C5"/>
<path d="M45.2472 54.4774C45.2472 55.165 45.8047 55.7225 46.4923 55.7225H55.808C56.4956 55.7225 57.0531 55.165 57.0531 54.4774C57.0531 53.7896 56.4956 53.2322 55.808 53.2322H46.4923C45.8047 53.2322 45.2472 53.7896 45.2472 54.4774Z" fill="#0081C5"/>
<path d="M27.4107 46.9427C26.9244 46.4565 26.136 46.4565 25.6499 46.9427L19.8764 52.7163L16.7644 49.6043C16.2782 49.118 15.4898 49.118 15.0037 49.6043C14.5174 50.0906 14.5174 50.8788 15.0037 51.3651L18.996 55.3574C19.2294 55.591 19.5462 55.7222 19.8764 55.7222C20.2066 55.7222 20.5233 55.5908 20.7568 55.3574L27.4108 48.7033C27.8971 48.2172 27.8971 47.429 27.4107 46.9427Z" fill="#0081C5"/>
<path d="M25.6499 61.5815L19.8764 67.355L16.7644 64.2431C16.2782 63.7568 15.4898 63.7568 15.0037 64.2431C14.5174 64.7293 14.5174 65.5177 15.0037 66.0038L18.996 69.9963C19.2391 70.2394 19.5578 70.3609 19.8764 70.3609C20.195 70.3609 20.5137 70.2394 20.7568 69.9963L27.4108 63.3423C27.8971 62.856 27.8971 62.0678 27.4108 61.5815C26.9246 61.0954 26.1362 61.0954 25.6499 61.5815Z" fill="#0081C5"/>
<path d="M33.27 63.7928C33.27 64.4806 33.8275 65.0379 34.5151 65.0379H55.808C56.4956 65.0379 57.0531 64.4806 57.0531 63.7928C57.0531 63.1052 56.4956 62.5477 55.808 62.5477H34.5151C33.8275 62.5477 33.27 63.1052 33.27 63.7928Z" fill="#0081C5"/>
<path d="M34.5151 70.3611H55.808C56.4956 70.3611 57.0531 69.8038 57.0531 69.116C57.0531 68.4283 56.4956 67.8708 55.808 67.8708H34.5151C33.8275 67.8708 33.27 68.4283 33.27 69.116C33.27 69.8038 33.8275 70.3611 34.5151 70.3611Z" fill="#0081C5"/>
</svg>
