<svg width="85" height="85" viewBox="0 0 85 85" fill="none" xmlns="http://www.w3.org/2000/svg">
<g clip-path="url(#clip0_6309_271)">
<path d="M3.47259e-06 67.4356C0.00249371 68.4102 0.446752 69.4171 1.22121 70.1997L14.2412 83.2949C14.9739 84.0301 15.9893 84.4518 17.0267 84.4518H24.6862C25.374 84.4518 25.9313 83.8945 25.9313 83.2067C25.9313 82.5191 25.374 81.9616 24.6862 81.9616H18.2971V70.1003C18.2971 67.9338 16.5345 66.1713 14.368 66.1713H2.49024V4.33666C2.48974 4.00065 2.62637 3.6653 2.8651 3.41677C3.09918 3.17306 3.40133 3.03892 3.71477 3.03842H59.3197H59.3212C59.9976 3.03842 60.5482 3.5881 60.5491 4.26295V10.319C60.5491 11.0068 61.1064 11.5642 61.7942 11.5642C62.482 11.5642 63.0393 11.0068 63.0393 10.319V4.26146C63.0368 2.21283 61.3695 0.548187 59.3229 0.548187C59.3214 0.548187 59.3195 0.548187 59.3184 0.548187H3.71311C2.71535 0.549515 1.7762 0.95559 1.06914 1.6917C0.378353 2.41105 -0.00132465 3.35153 3.47259e-06 4.33832V67.4356ZM3.20344 68.6616H14.368C15.1614 68.6616 15.8068 69.307 15.8068 70.1003V81.3377L3.20344 68.6616Z" fill="#0081C5"/>
<path d="M64.1065 84.4518C65.6446 84.4518 66.8961 83.2005 66.8961 81.6624V77.2952C67.7114 77.0273 68.5074 76.6972 69.2737 76.3099L72.3621 79.3985C72.8891 79.9252 73.5896 80.2154 74.3347 80.2154C75.0796 80.2154 75.7802 79.9252 76.3072 79.3983L79.9471 75.7584C81.0346 74.6707 81.0346 72.9011 79.9471 71.8134L76.8587 68.725C77.246 67.9592 77.5757 67.1633 77.844 66.3473H82.2113C83.7495 66.3473 85.0007 65.096 85.0007 63.5579V58.4103C85.0007 56.8721 83.7495 55.6209 82.2113 55.6209H77.844C77.5758 54.8051 77.246 54.009 76.8587 53.2432L79.9471 50.1548C81.0346 49.0671 81.0346 47.2975 79.9471 46.2098L76.3072 42.5699C75.2196 41.4825 73.4499 41.4825 72.3623 42.5699L69.2737 45.6583C68.5076 45.271 67.7117 44.9412 66.8961 44.673V40.3058C66.8961 38.7676 65.6446 37.5162 64.1065 37.5162H63.0394V15.4539C63.0394 14.7661 62.482 14.2088 61.7942 14.2088C61.1064 14.2088 60.5491 14.7661 60.5491 15.4539V37.5167H58.9589C57.4207 37.5167 56.1695 38.7681 56.1695 40.3063V44.6735C55.3538 44.9414 54.558 45.2715 53.7918 45.6588L50.7034 42.5704C49.6158 41.483 47.8461 41.483 46.7585 42.5704L43.1183 46.2103C42.5915 46.7372 42.3013 47.4376 42.3013 48.1827C42.3013 48.9278 42.5915 49.6284 43.1185 50.1553L46.207 53.2437C45.8197 54.0095 45.4898 54.8056 45.2216 55.6214H40.8544C39.3162 55.6214 38.0648 56.8726 38.0648 58.4108V63.5584C38.0648 65.0965 39.3162 66.3478 40.8544 66.3478H45.2216C45.4897 67.1634 45.8195 67.9595 46.207 68.7255L43.1185 71.8139C42.5917 72.3408 42.3015 73.0414 42.3015 73.7865C42.3015 74.5314 42.5917 75.232 43.1185 75.7589L46.7585 79.399C47.2855 79.9257 47.9861 80.2159 48.731 80.2159C49.476 80.2159 50.1766 79.9257 50.7036 79.3988L53.792 76.3104C54.5579 76.6977 55.3538 77.0274 56.1696 77.2957V81.6631C56.1696 81.7642 56.1758 81.8638 56.1862 81.9622H30.1533C29.4655 81.9622 28.9082 82.5197 28.9082 83.2074C28.9082 83.8952 29.4655 84.4525 30.1533 84.4525H64.1065V84.4518ZM82.51 63.5581C82.51 63.7229 82.3757 63.8572 82.2108 63.8572H77.2549C76.506 63.8572 75.8382 64.3586 75.6306 65.0756C75.3305 66.1117 74.9148 67.1155 74.3948 68.0586C74.0334 68.7134 74.1514 69.5406 74.6812 70.0697L78.186 73.5745C78.2583 73.6468 78.2736 73.7295 78.2736 73.786C78.2736 73.8424 78.2583 73.9251 78.186 73.9976L74.5461 77.6375C74.4738 77.7101 74.391 77.7252 74.3347 77.7252C74.2781 77.7252 74.1954 77.7099 74.1232 77.6375L70.6183 74.1326C70.0884 73.6029 69.2611 73.4855 68.6079 73.8461C67.6636 74.3665 66.6598 74.7824 65.6247 75.0821C64.9072 75.2897 64.406 75.9576 64.406 76.7065V81.6626C64.406 81.8274 64.2717 81.9617 64.1067 81.9617H61.5329H58.959C58.7942 81.9617 58.6599 81.8274 58.6599 81.6626V76.7065C58.6599 75.9576 58.1585 75.2897 57.4415 75.0822C56.406 74.7822 55.4021 74.3664 54.4582 73.8462C54.2047 73.7063 53.9253 73.6384 53.6472 73.6384C53.2077 73.6384 52.7718 73.8082 52.4472 74.1328L48.9425 77.6375C48.8701 77.7101 48.7874 77.7252 48.731 77.7252C48.6745 77.7252 48.5918 77.7099 48.5195 77.6375L44.8794 73.9975C44.8069 73.9251 44.7917 73.8424 44.7917 73.7861C44.7917 73.7295 44.807 73.6468 44.8792 73.5746L48.3843 70.0699C48.9136 69.5404 49.0315 68.7137 48.671 68.0593C48.1506 67.1153 47.7345 66.1116 47.4349 65.0763C47.2272 64.3588 46.5593 63.8574 45.8106 63.8574H40.8545C40.6895 63.8574 40.5552 63.7231 40.5552 63.5582V58.4106C40.5552 58.2457 40.6895 58.1114 40.8545 58.1114H45.8106C46.5593 58.1114 47.2272 57.6101 47.4347 56.893C47.7347 55.8573 48.1506 54.8537 48.6714 53.9091C49.0316 53.2548 48.9136 52.4281 48.3843 51.899L44.8796 48.3942C44.807 48.322 44.7919 48.2392 44.7919 48.1827C44.7919 48.1263 44.8072 48.0436 44.8794 47.9714L48.5196 44.3315C48.636 44.2149 48.8263 44.2146 48.9426 44.3315L52.4474 47.8362C52.977 48.3657 53.8042 48.4834 54.458 48.1228C55.4021 47.6023 56.4059 47.1864 57.441 46.8868C58.1585 46.6791 58.6599 46.0112 58.6599 45.2623V40.3064C58.6599 40.1414 58.7942 40.0071 58.959 40.0071H64.1067C64.2717 40.0071 64.406 40.1414 64.406 40.3064V45.2623C64.406 46.0112 64.9072 46.6791 65.6242 46.8866C66.6597 47.1866 67.6636 47.6025 68.6072 48.1224C69.2615 48.4832 70.0887 48.3658 70.6181 47.8362L74.1232 44.3315C74.2398 44.2146 74.43 44.2149 74.5462 44.3315L78.1861 47.9714C78.2585 48.0438 78.2738 48.1264 78.2738 48.1827C78.2738 48.2393 78.2585 48.322 78.1861 48.3942L74.682 51.8985C74.1519 52.4281 74.0339 53.2551 74.3948 53.9097C74.915 54.8532 75.3308 55.8568 75.6306 56.8925C75.8383 57.6101 76.5064 58.1114 77.2551 58.1114H82.211C82.3759 58.1114 82.5102 58.2457 82.5102 58.4106L82.51 63.5581Z" fill="#0081C5"/>
<path d="M61.5324 50.4596C55.7291 50.4596 51.0078 55.1809 51.0078 60.9844C51.0078 66.7874 55.7291 71.5087 61.5324 71.5087C67.3356 71.5087 72.0569 66.7874 72.0569 60.9844C72.0568 55.1811 67.3356 50.4596 61.5324 50.4596ZM53.498 60.9844C53.498 56.8517 56.6346 53.4393 60.6518 52.9992C60.6452 53.0516 60.6404 53.1046 60.6404 53.1589V68.9677C56.6288 68.5225 53.498 65.1128 53.498 60.9844ZM63.1308 68.8583V53.159C63.1308 53.1424 63.129 53.1263 63.1283 53.1097C66.7964 53.852 69.5665 57.1006 69.5665 60.9844C69.5665 64.8673 66.7976 68.1151 63.1308 68.8583Z" fill="#0081C5"/>
<path d="M52.1299 9.71872C52.1299 8.12066 50.8297 6.82059 49.2316 6.82059H12.5749C10.9768 6.82059 9.67676 8.12066 9.67676 9.71872V15.2754C9.67676 16.8735 10.9768 18.1736 12.5749 18.1736H19.0688C19.7566 18.1736 20.3139 17.6163 20.3139 16.9284C20.3139 16.2406 19.7566 15.6833 19.0688 15.6833H12.5749C12.3501 15.6833 12.167 15.5002 12.167 15.2754V9.71872C12.167 9.49377 12.3501 9.31082 12.5749 9.31082H49.2316C49.4566 9.31082 49.6397 9.49377 49.6397 9.71872V15.2754C49.6397 15.5002 49.4566 15.6833 49.2316 15.6833H24.4719C23.7841 15.6833 23.2268 16.2406 23.2268 16.9284C23.2268 17.6163 23.7841 18.1736 24.4719 18.1736H49.2316C50.8297 18.1736 52.1299 16.8735 52.1299 15.2754V9.71872Z" fill="#0081C5"/>
<path d="M20.4985 25.2128C20.4985 23.6986 19.2665 22.4666 17.7523 22.4666H12.4232C10.9088 22.4666 9.67676 23.6986 9.67676 25.2128V30.1657C9.67676 31.6801 10.9088 32.9121 12.4232 32.9121H17.7523C19.2665 32.9121 20.4985 31.6801 20.4985 30.1657V25.2128ZM18.0083 30.1657C18.0083 30.307 17.8935 30.4219 17.7523 30.4219H12.4232C12.2819 30.4219 12.167 30.307 12.167 30.1657V25.2128C12.167 25.0715 12.2819 24.9568 12.4232 24.9568H17.7523C17.8935 24.9568 18.0083 25.0715 18.0083 25.2128V30.1657Z" fill="#0081C5"/>
<path d="M20.4985 39.9513C20.4985 38.4369 19.2665 37.2049 17.7523 37.2049H12.4232C10.9088 37.2049 9.67676 38.4369 9.67676 39.9513V44.9042C9.67676 46.4185 10.9088 47.6505 12.4232 47.6505H17.7523C19.2665 47.6505 20.4985 46.4185 20.4985 44.9042V39.9513ZM18.0083 44.9042C18.0083 45.0455 17.8935 45.1602 17.7523 45.1602H12.4232C12.2819 45.1602 12.167 45.0455 12.167 44.9042V39.9513C12.167 39.8102 12.2819 39.6952 12.4232 39.6952H17.7523C17.8935 39.6952 18.0083 39.81 18.0083 39.9513V44.9042Z" fill="#0081C5"/>
<path d="M17.7523 51.9436H12.4232C10.9088 51.9436 9.67676 53.1756 9.67676 54.6899V59.6429C9.67676 61.1572 10.9088 62.3892 12.4232 62.3892H17.7523C19.2665 62.3892 20.4985 61.1572 20.4985 59.6429V54.6899C20.4985 53.1756 19.2665 51.9436 17.7523 51.9436ZM18.0083 59.6429C18.0083 59.7842 17.8935 59.8989 17.7523 59.8989H12.4232C12.2819 59.8989 12.167 59.7842 12.167 59.6429V54.6899C12.167 54.5486 12.2819 54.4339 12.4232 54.4339H17.7523C17.8935 54.4339 18.0083 54.5486 18.0083 54.6899V59.6429Z" fill="#0081C5"/>
<path d="M52.1298 25.3176C52.1298 24.6298 51.5724 24.0724 50.8847 24.0724H26.5244C25.8366 24.0724 25.2793 24.6298 25.2793 25.3176C25.2793 26.0054 25.8366 26.5627 26.5244 26.5627H50.8847C51.5724 26.5627 52.1298 26.0054 52.1298 25.3176Z" fill="#0081C5"/>
<path d="M26.5244 31.5611H38.6517C39.3395 31.5611 39.8968 31.0038 39.8968 30.3159C39.8968 29.6281 39.3395 29.0708 38.6517 29.0708H26.5244C25.8366 29.0708 25.2793 29.6281 25.2793 30.3159C25.2793 31.0038 25.8366 31.5611 26.5244 31.5611Z" fill="#0081C5"/>
<path d="M43.2634 39.9286C43.2634 39.2408 42.7061 38.6835 42.0183 38.6835H26.5244C25.8366 38.6835 25.2793 39.2408 25.2793 39.9286C25.2793 40.6164 25.8366 41.1737 26.5244 41.1737H42.0183C42.706 41.1737 43.2634 40.6162 43.2634 39.9286Z" fill="#0081C5"/>
<path d="M26.5244 46.1723H32.588C33.2758 46.1723 33.8331 45.615 33.8331 44.9272C33.8331 44.2394 33.2758 43.682 32.588 43.682H26.5244C25.8366 43.682 25.2793 44.2394 25.2793 44.9272C25.2793 45.615 25.8366 46.1723 26.5244 46.1723Z" fill="#0081C5"/>
<path d="M26.5244 55.9122H34.6069C35.2947 55.9122 35.852 55.3548 35.852 54.6671C35.852 53.9793 35.2947 53.422 34.6069 53.422H26.5244C25.8366 53.422 25.2793 53.9793 25.2793 54.6671C25.2793 55.3549 25.8366 55.9122 26.5244 55.9122Z" fill="#0081C5"/>
<path d="M31.7931 59.6657C31.7931 58.9779 31.2358 58.4206 30.548 58.4206H26.5244C25.8366 58.4206 25.2793 58.9779 25.2793 59.6657C25.2793 60.3533 25.8366 60.9108 26.5244 60.9108H30.548C31.2356 60.9108 31.7931 60.3533 31.7931 59.6657Z" fill="#0081C5"/>
</g>
<defs>
<clipPath id="clip0_6309_271">
<rect width="85" height="85" fill="white"/>
</clipPath>
</defs>
</svg>
