<svg width="85" height="85" viewBox="0 0 85 85" fill="none" xmlns="http://www.w3.org/2000/svg">
<g clip-path="url(#clip0_6309_244)">
<path d="M36.7756 18.5903H48.2238C50.1926 18.5903 51.7943 16.9886 51.7943 15.0196V3.57152C51.7943 1.60274 50.1926 0.000854492 48.2238 0.000854492H36.7756C34.8068 0.000854492 33.2051 1.60257 33.2051 3.57152V15.0196C33.2051 16.9884 34.8068 18.5903 36.7756 18.5903ZM35.6953 3.57152C35.6953 2.97569 36.1799 2.49109 36.7756 2.49109H48.2238C48.8195 2.49109 49.3041 2.97569 49.3041 3.57152V15.0196C49.3041 15.6155 48.8195 16.1001 48.2238 16.1001H36.7756C36.1799 16.1001 35.6953 15.6155 35.6953 15.0196V3.57152Z" fill="#0081C5"/>
<path d="M48.224 66.4097H36.7756C34.8068 66.4097 33.2051 68.0114 33.2051 69.9804V81.4285C33.2051 83.3973 34.8068 84.9992 36.7756 84.9992H48.2238C50.1926 84.9992 51.7943 83.3974 51.7943 81.4285V69.9804C51.7945 68.0116 50.1928 66.4097 48.224 66.4097ZM49.3043 81.4285C49.3043 82.0243 48.8197 82.5089 48.224 82.5089H36.7756C36.1799 82.5089 35.6953 82.0243 35.6953 81.4285V69.9804C35.6953 69.3846 36.1799 68.9 36.7756 68.9H48.2238C48.8195 68.9 49.3041 69.3846 49.3041 69.9804V81.4285H49.3043Z" fill="#0081C5"/>
<path d="M66.4106 42.5C66.4106 47.625 70.5803 51.7947 75.7054 51.7947C80.8304 51.7947 85.0001 47.625 85.0001 42.5C85.0001 37.3749 80.8304 33.2053 75.7054 33.2053C70.5803 33.2053 66.4106 37.3749 66.4106 42.5ZM82.5098 42.5C82.5098 46.2519 79.4573 49.3045 75.7054 49.3045C71.9534 49.3045 68.9009 46.2519 68.9009 42.5C68.9009 38.748 71.9534 35.6955 75.7054 35.6955C79.4573 35.6955 82.5098 38.748 82.5098 42.5Z" fill="#0081C5"/>
<path d="M54.5272 48.9715L53.2795 47.7239C53.4848 47.3017 53.6646 46.8694 53.8182 46.4281H55.5808C57.007 46.4281 58.1675 45.2678 58.1675 43.8414V41.1583C58.1675 39.7319 57.007 38.5716 55.5808 38.5716H53.8182C53.6646 38.1305 53.4848 37.698 53.2795 37.2758L54.5272 36.0282C55.0158 35.5396 55.2849 34.89 55.2849 34.1991C55.2849 33.5081 55.0158 32.8585 54.5272 32.3701L52.63 30.4727C52.1414 29.9841 51.4918 29.715 50.8008 29.715C50.1099 29.715 49.4603 29.9841 48.9719 30.4725L47.7241 31.7203C47.3022 31.5151 46.8696 31.3353 46.4285 31.1817V29.4191C46.4285 27.9927 45.268 26.8325 43.8418 26.8325H41.1587C39.7323 26.8325 38.572 27.9927 38.572 29.4191V31.1817C38.1309 31.3353 37.6984 31.5151 37.2764 31.7203L36.0286 30.4727C35.54 29.9841 34.8904 29.715 34.1995 29.715C33.5085 29.715 32.8589 29.9841 32.3705 30.4727L30.4734 32.3699C29.9846 32.8583 29.7155 33.5079 29.7155 34.1989C29.7155 34.8899 29.9846 35.5395 30.4732 36.0281L31.721 37.2757C31.5156 37.6978 31.3358 38.1302 31.1823 38.5714H29.4197C27.9935 38.5714 26.833 39.7317 26.833 41.1581V43.8413C26.833 45.2677 27.9935 46.4279 29.4197 46.4279H31.1823C31.3358 46.869 31.5156 47.3015 31.721 47.7237L30.4732 48.9713C29.9846 49.4599 29.7155 50.1095 29.7155 50.8005C29.7155 51.4914 29.9846 52.141 30.4732 52.6295L32.3705 54.527C32.859 55.0154 33.5087 55.2845 34.1995 55.2845C34.8904 55.2845 35.54 55.0154 36.0284 54.527L37.2762 53.2792C37.6981 53.4844 38.1307 53.6642 38.5718 53.8178V55.5804C38.5718 57.0068 39.7323 58.1671 41.1585 58.1671H43.8416C45.268 58.1671 46.4283 57.0068 46.4283 55.5804V53.8178C46.8694 53.6642 47.3019 53.4844 47.7239 53.2792L48.9717 54.5269C49.4603 55.0154 50.1099 55.2845 50.8008 55.2845C51.4918 55.2845 52.1414 55.0154 52.63 54.5269L54.5271 52.6296C55.0158 52.1412 55.2849 51.4916 55.2849 50.8006C55.2849 50.1098 55.016 49.4601 54.5272 48.9715ZM50.8648 48.8309L52.7665 50.7324C52.7734 50.7394 52.7947 50.7606 52.7947 50.8006C52.7947 50.8405 52.7734 50.8617 52.7665 50.8689L50.8691 52.7663C50.8621 52.7732 50.8409 52.7945 50.8008 52.7945C50.7608 52.7945 50.7396 52.7732 50.7326 52.7661L48.8309 50.8645C48.4293 50.4628 47.8064 50.3841 47.3172 50.6731C46.548 51.1275 45.7256 51.4693 44.8728 51.689C44.3228 51.8308 43.9383 52.3266 43.9383 52.8948V55.5807C43.9383 55.6338 43.8949 55.6772 43.8416 55.6772H41.1585C41.1052 55.6772 41.0619 55.6338 41.0619 55.5807V52.8948C41.0619 52.3266 40.6774 51.8308 40.1274 51.689C39.2745 51.4693 38.4521 51.1275 37.683 50.6731C37.4859 50.5568 37.2673 50.5 37.0501 50.5C36.728 50.5 36.4093 50.6247 36.1692 50.8645L34.2675 52.7663C34.2605 52.7732 34.2393 52.7945 34.1993 52.7945C34.1593 52.7945 34.138 52.7732 34.1311 52.7663L32.2337 50.8687C32.2267 50.8617 32.2054 50.8405 32.2054 50.8006C32.2054 50.7606 32.2267 50.7394 32.2337 50.7324L34.1352 48.8309C34.537 48.4289 34.6158 47.806 34.3268 47.317C33.8721 46.5476 33.5304 45.7252 33.3109 44.8727C33.1693 44.3225 32.6733 43.9379 32.1052 43.9379H29.4192C29.3661 43.9379 29.3227 43.8945 29.3227 43.8414V41.1583C29.3227 41.1052 29.3661 41.0618 29.4192 41.0618H32.1052C32.6733 41.0618 33.1695 40.6773 33.3109 40.127C33.5304 39.2745 33.8721 38.4521 34.3268 37.6827C34.6158 37.1937 34.5371 36.5708 34.1352 36.1688L32.2337 34.2673C32.2267 34.2603 32.2054 34.2391 32.2054 34.1991C32.2054 34.1592 32.2267 34.138 32.2337 34.1308L34.1309 32.2336C34.1379 32.2265 34.1591 32.2052 34.1991 32.2052C34.2391 32.2052 34.2604 32.2265 34.2674 32.2336L36.1689 34.1352C36.5707 34.5369 37.1935 34.6158 37.6826 34.3266C38.4518 33.8722 39.2742 33.5304 40.127 33.3107C40.677 33.1689 41.0615 32.6731 41.0615 32.1049V29.419C41.0615 29.3659 41.1049 29.3225 41.1582 29.3225H43.8413C43.8946 29.3225 43.9379 29.3659 43.9379 29.419V32.1049C43.9379 32.6731 44.3224 33.1689 44.8724 33.3107C45.7253 33.5304 46.5477 33.8722 47.3168 34.3266C47.8059 34.6154 48.4288 34.5369 48.8306 34.1352L50.7323 32.2334C50.7393 32.2265 50.7605 32.2052 50.8005 32.2052C50.8405 32.2052 50.8618 32.2265 50.8687 32.2334L52.7661 34.131C52.7731 34.138 52.7944 34.1592 52.7944 34.1991C52.7944 34.2391 52.7731 34.2603 52.7661 34.2673L50.8644 36.1688C50.4627 36.5708 50.3838 37.1937 50.6728 37.6827C51.1276 38.4521 51.4692 39.2745 51.6887 40.127C51.8303 40.6772 52.3264 41.0618 52.8945 41.0618H55.5804C55.6336 41.0618 55.6769 41.1052 55.6769 41.1583V43.8414C55.6769 43.8945 55.6336 43.9379 55.5804 43.9379H52.8945C52.3264 43.9379 51.8301 44.3224 51.6887 44.8727C51.4692 45.7252 51.1276 46.5476 50.6728 47.317C50.3841 47.8062 50.463 48.4291 50.8648 48.8309Z" fill="#0081C5"/>
<path d="M42.4998 37.2302C39.594 37.2302 37.23 39.5942 37.23 42.5C37.23 45.4058 39.594 47.7698 42.4998 47.7698C45.4056 47.7698 47.7696 45.4058 47.7696 42.5C47.7696 39.5942 45.4056 37.2302 42.4998 37.2302ZM42.4998 45.2796C40.9672 45.2796 39.72 44.0327 39.72 42.5C39.72 40.9673 40.967 39.7204 42.4998 39.7204C44.0325 39.7204 45.2796 40.9673 45.2796 42.5C45.2796 44.0327 44.0325 45.2796 42.4998 45.2796Z" fill="#0081C5"/>
<path d="M18.5904 42.5C18.5904 37.3749 14.4208 33.2053 9.29569 33.2053C4.17062 33.2053 0.000976562 37.3749 0.000976562 42.5C0.000976562 47.625 4.17062 51.7947 9.29569 51.7947C14.4208 51.7947 18.5904 47.625 18.5904 42.5ZM2.49121 42.5C2.49121 38.748 5.54374 35.6955 9.29569 35.6955C13.0476 35.6955 16.1002 38.748 16.1002 42.5C16.1002 46.2519 13.0476 49.3045 9.29569 49.3045C5.54374 49.3045 2.49121 46.2519 2.49121 42.5Z" fill="#0081C5"/>
<path d="M61.6254 17.8425C62.1064 18.3251 62.7462 18.5911 63.427 18.5911C64.1079 18.5911 64.7477 18.3251 65.2268 17.8445L67.0683 16.0047C67.5492 15.524 67.814 14.8843 67.814 14.2036C67.814 13.862 67.7473 13.5306 67.6199 13.2246L71.7776 13.2238V27.743C71.7776 29.1693 72.9379 30.3296 74.3642 30.3296H77.047C78.4732 30.3296 79.6335 29.1693 79.6335 27.743V23.4084C79.6335 22.7206 79.076 22.1633 78.3884 22.1633C77.7007 22.1633 77.1433 22.7206 77.1433 23.4084V27.743C77.1433 27.7962 77.1001 27.8393 77.047 27.8393H74.3642C74.311 27.8393 74.2679 27.7962 74.2679 27.743V11.9784C74.2679 11.6482 74.1366 11.3314 73.9031 11.0978C73.6697 10.8644 73.353 10.7332 73.0228 10.7332H73.0226L64.8828 10.7349C64.3792 10.7351 63.9251 11.0385 63.7325 11.5041C63.5399 11.9696 63.6467 12.5051 64.0031 12.8611L65.3073 14.1636C65.3122 14.1684 65.3238 14.1801 65.3238 14.2038C65.3238 14.2277 65.3125 14.239 65.3078 14.2435L63.4647 16.0849C63.4594 16.0901 63.4486 16.101 63.4269 16.101C63.4051 16.101 63.3943 16.0902 63.3875 16.0834L57.5589 10.2566C57.3027 10.0003 57.1615 9.65912 57.1615 9.29588C57.1615 8.93264 57.3026 8.59147 57.5587 8.33531L63.3889 2.50667C63.394 2.50152 63.405 2.49057 63.4267 2.49057C63.4486 2.49057 63.4594 2.50136 63.4664 2.50833L65.307 4.34729C65.3118 4.3521 65.3234 4.36372 65.3234 4.38746C65.3234 4.41137 65.3122 4.42266 65.3072 4.42747L64.0023 5.73235C63.6462 6.08846 63.5396 6.62402 63.7324 7.08937C63.9251 7.55471 64.379 7.85802 64.8827 7.85802H75.0345C76.197 7.85802 77.1429 8.80381 77.1429 9.96642V17.598C77.1429 18.2858 77.7004 18.8431 78.388 18.8431C79.0757 18.8431 79.6332 18.2858 79.6332 17.598V9.96625C79.6332 7.43053 77.5703 5.36762 75.0347 5.36762H67.6193C67.7469 5.06115 67.8138 4.72929 67.8138 4.38729C67.8138 3.7068 67.5491 3.0673 67.0678 2.58586L65.2285 0.748232C64.7475 0.265791 64.1077 0 63.427 0C62.7464 0 62.1066 0.265791 61.6269 0.746738L55.7981 6.57389C55.0715 7.30037 54.6714 8.26691 54.6714 9.29538C54.6714 10.3237 55.0715 11.2902 55.7981 12.0169L61.6254 17.8425Z" fill="#0081C5"/>
<path d="M6.57389 29.2026C7.30037 29.9293 8.26708 30.3296 9.29555 30.3296C10.324 30.3296 11.2906 29.9293 12.0172 29.2026L17.8429 23.3755C18.3255 22.8944 18.5911 22.2544 18.5911 21.5737C18.5911 20.8931 18.3253 20.2534 17.8445 19.7743L16.0047 17.9328C15.524 17.4519 14.8843 17.1871 14.2036 17.1871C13.862 17.1871 13.5306 17.2537 13.2245 17.3812L13.2236 13.2235H27.743C29.1693 13.2235 30.3296 12.0632 30.3296 10.637V7.95414C30.3296 6.5279 29.1693 5.36761 27.743 5.36761H25.3674C24.6797 5.36761 24.1222 5.92493 24.1222 6.61273C24.1222 7.30053 24.6797 7.85785 25.3674 7.85785H27.743C27.7962 7.85785 27.8393 7.90101 27.8393 7.95414V10.637C27.8393 10.6901 27.7962 10.7332 27.743 10.7332H11.9784C11.6482 10.7332 11.3314 10.8644 11.0978 11.098C10.8642 11.3316 10.7331 11.6482 10.7332 11.9787L10.7349 20.1183C10.7349 20.6218 11.0385 21.076 11.5041 21.2686C11.9694 21.4608 12.5051 21.3543 12.8611 20.9978L14.1638 19.6936C14.1686 19.6888 14.1801 19.6773 14.2038 19.6773C14.2277 19.6773 14.239 19.6886 14.2436 19.6933L16.0849 21.5362C16.0901 21.5414 16.101 21.5521 16.101 21.5741C16.101 21.596 16.0901 21.6068 16.0834 21.6134L10.2564 27.442C10.0003 27.6984 9.65912 27.8395 9.29588 27.8395C8.93264 27.8395 8.59147 27.6984 8.33531 27.442L2.5065 21.6119C2.50119 21.6068 2.49023 21.5958 2.49023 21.5739C2.49023 21.552 2.50103 21.5414 2.50816 21.5342L4.34729 19.6934C4.3521 19.6886 4.36355 19.6772 4.38729 19.6772C4.4112 19.6772 4.42249 19.6885 4.42747 19.6936L5.73235 20.9983C6.08862 21.3544 6.62436 21.4612 7.0892 21.2681C7.55454 21.0755 7.85785 20.6215 7.85785 20.1178V9.96625C7.85785 8.80364 8.80364 7.85785 9.96625 7.85785H19.557C20.2446 7.85785 20.8021 7.30053 20.8021 6.61273C20.8021 5.92493 20.2446 5.36761 19.557 5.36761H9.96625C7.43069 5.36761 5.36778 7.43053 5.36778 9.96625V17.3817C5.06132 17.2538 4.72962 17.1871 4.38746 17.1871C3.70696 17.1871 3.0673 17.4519 2.58603 17.9332L0.748398 19.7723C0.265791 20.2532 0 20.8931 0 21.5736C0 22.2544 0.265625 22.8942 0.746738 23.374L6.57389 29.2026Z" fill="#0081C5"/>
<path d="M23.3757 67.1574C22.8948 66.6748 22.2549 66.4089 21.5741 66.4089C20.8933 66.4089 20.2535 66.6748 19.7743 67.1555L17.9329 68.9952C17.452 69.476 17.1872 70.1157 17.1872 70.7963C17.1872 71.138 17.2539 71.4694 17.3812 71.7753L13.2235 71.7762V57.2569C13.2235 55.8307 12.0633 54.6704 10.637 54.6704H7.9542C6.52796 54.6704 5.36768 55.8307 5.36768 57.2569V61.8639C5.36768 62.5517 5.92516 63.109 6.61279 63.109C7.30043 63.109 7.85791 62.5517 7.85791 61.8639V57.2569C7.85791 57.2038 7.90107 57.1606 7.9542 57.1606H10.637C10.6901 57.1606 10.7333 57.2038 10.7333 57.2569V73.0216C10.7333 73.3518 10.8646 73.6686 11.098 73.9022C11.3315 74.1356 11.6482 74.2667 11.9784 74.2667L20.1183 74.2651C20.622 74.2649 21.0761 73.9614 21.2687 73.4959C21.4612 73.0304 21.3545 72.4948 20.998 72.1389L19.6938 70.8363C19.689 70.8315 19.6774 70.8199 19.6774 70.7962C19.6774 70.7724 19.6887 70.761 19.6933 70.7565L21.5363 68.9151C21.5416 68.9099 21.5524 68.8989 21.5741 68.8989C21.5959 68.8989 21.6067 68.9097 21.6135 68.9165L27.4421 74.7434C27.6983 74.9997 27.8396 75.3409 27.8396 75.7041C27.8396 76.0673 27.6984 76.4085 27.4423 76.6647L21.6121 82.4933C21.607 82.4984 21.596 82.5094 21.5741 82.5094C21.5522 82.5094 21.5414 82.4986 21.5344 82.4916L19.6938 80.6527C19.689 80.6479 19.6774 80.6362 19.6774 80.6125C19.6774 80.5888 19.6887 80.5773 19.6937 80.5725L20.9985 79.2676C21.3546 78.9114 21.4612 78.3759 21.2685 77.9106C21.0757 77.4453 20.6219 77.142 20.1182 77.142H9.96631C8.80387 77.142 7.85791 76.1962 7.85791 75.0336V67.6741C7.85791 66.9863 7.30043 66.429 6.61279 66.429C5.92516 66.429 5.36768 66.9863 5.36768 67.6741V75.0336C5.36768 77.5693 7.43059 79.6322 9.96614 79.6322H17.3816C17.2539 79.9387 17.187 80.2705 17.187 80.6125C17.187 81.293 17.4518 81.9325 17.9331 82.4138L19.7725 84.2514C20.2535 84.7338 20.8933 84.9996 21.574 84.9996C22.2546 84.9996 22.8944 84.7338 23.3741 84.2529L29.2029 78.4258C29.9295 77.6993 30.3296 76.7327 30.3296 75.7043C30.3296 74.676 29.9295 73.7094 29.2029 72.9828L23.3757 67.1574Z" fill="#0081C5"/>
<path d="M78.4271 55.798C77.7004 55.0712 76.7342 54.671 75.7077 54.671C75.7066 54.671 75.7052 54.671 75.7039 54.671C74.6763 54.671 73.7101 55.0712 72.9834 55.7979L67.1559 61.6252C66.675 62.1061 66.41 62.7458 66.41 63.4261C66.41 64.1063 66.675 64.7458 67.1559 65.2269L68.9964 67.0673C69.7466 67.8176 70.8524 68.0005 71.7765 67.6172V71.7764H57.2581C55.8318 71.7764 54.6714 72.9367 54.6714 74.3631V77.0462C54.6714 78.4726 55.8318 79.6329 57.2581 79.6329H75.0345C77.5704 79.6329 79.6335 77.5698 79.6335 75.0339V67.6187C79.9398 67.7463 80.2713 67.8131 80.613 67.8131C81.2931 67.8131 81.9328 67.5481 82.4138 67.0673L84.2542 65.2267C85.247 64.234 85.247 62.6183 84.2542 61.6254L78.4271 55.798ZM82.4936 63.4658L80.6532 65.3062C80.6482 65.3112 80.6366 65.3229 80.6133 65.3229C80.5901 65.3229 80.5786 65.3114 80.5736 65.3064L79.2693 64.0019C78.913 63.6456 78.3776 63.5392 77.9124 63.7318C77.4471 63.9245 77.1438 64.3786 77.1438 64.8822L77.1436 75.0339C77.1436 76.1967 76.1976 77.1427 75.0347 77.1427H57.2581C57.205 77.1427 57.1616 77.0993 57.1616 77.0462V74.3631C57.1616 74.3099 57.205 74.2666 57.2581 74.2666H73.0216C73.3518 74.2666 73.6686 74.1355 73.902 73.902C74.1356 73.6685 74.2667 73.3519 74.2667 73.0215V64.8822C74.2667 64.3787 73.9632 63.9247 73.4981 63.7318C73.033 63.5395 72.4973 63.6456 72.1412 64.0019L70.837 65.3062C70.8147 65.3283 70.7792 65.3282 70.7573 65.3062L68.9169 63.4658C68.9119 63.461 68.9003 63.4494 68.9003 63.4261C68.9003 63.4026 68.9119 63.3911 68.9169 63.3863L74.7443 57.5588C75.0007 57.3025 75.3415 57.1612 75.7052 57.1612H75.7066C76.0691 57.1612 76.4098 57.3025 76.6663 57.5588L82.4938 63.3859C82.5155 63.408 82.5155 63.4439 82.4936 63.4658Z" fill="#0081C5"/>
</g>
<defs>
<clipPath id="clip0_6309_244">
<rect width="85" height="85" fill="white"/>
</clipPath>
</defs>
</svg>
