<svg width="85" height="85" viewBox="0 0 85 85" fill="none" xmlns="http://www.w3.org/2000/svg">
<g clip-path="url(#clip0_6309_265)">
<path d="M76.3449 64.299H71.8421C71.812 64.299 71.7858 64.2786 71.7787 64.2495L71.5189 63.2104C71.234 62.0706 70.2145 61.2745 69.0394 61.2745H61.6627C60.1421 61.2745 58.9053 62.5115 58.9053 64.0319V73.9759C58.9053 75.4963 60.1423 76.7333 61.6627 76.7333H76.3449C77.8653 76.7333 79.1023 75.4963 79.1023 73.9759V67.0564C79.1025 65.5358 77.8653 64.299 76.3449 64.299ZM76.6122 73.9759C76.6122 74.1232 76.4924 74.243 76.3451 74.243H61.6629C61.5156 74.243 61.3957 74.1232 61.3957 73.9759V64.0319C61.3957 63.8846 61.5156 63.7648 61.6629 63.7648H69.0396C69.0696 63.7648 69.0959 63.7852 69.103 63.8142L69.3628 64.8535C69.6479 65.9932 70.6674 66.7892 71.8423 66.7892H76.3451C76.4924 66.7892 76.6122 66.9091 76.6122 67.0564V73.9759ZM61.6627 23.7255H76.3449C77.8653 23.7255 79.1023 22.4885 79.1023 20.9681V14.0486C79.1023 12.5282 77.8653 11.2912 76.3449 11.2912H71.8421C71.812 11.2912 71.7858 11.2708 71.7787 11.2417L71.5189 10.2027C71.234 9.06279 70.2145 8.26675 69.0394 8.26675H61.6627C60.1421 8.26675 58.9053 9.50373 58.9053 11.0241V20.9681C58.9053 22.4885 60.1423 23.7255 61.6627 23.7255ZM61.3956 11.0241C61.3956 10.8768 61.5154 10.757 61.6627 10.757H69.0394C69.0695 10.757 69.0957 10.7774 69.1028 10.8065L69.3627 11.8457C69.6477 12.9854 70.6672 13.7815 71.8421 13.7815H76.3449C76.4922 13.7815 76.6121 13.9013 76.6121 14.0486V20.9681C76.6121 21.1154 76.4922 21.2352 76.3449 21.2352H61.6627C61.5154 21.2352 61.3956 21.1154 61.3956 20.9681V11.0241ZM47.1961 40.68C49.5728 40.68 51.5063 38.7464 51.5063 36.3697C51.5063 33.993 49.5728 32.0594 47.1961 32.0594C44.8194 32.0594 42.8858 33.993 42.8858 36.3697C42.8858 36.6189 42.9082 36.8629 42.9491 37.1007L38.0664 39.5421C37.2801 38.7104 36.1678 38.1897 34.9355 38.1897C32.5588 38.1897 30.6252 40.1233 30.6252 42.5C30.6252 44.8767 32.5588 46.8103 34.9355 46.8103C36.1677 46.8103 37.28 46.2896 38.0664 45.4579L42.9491 47.8993C42.9082 48.1371 42.8858 48.3811 42.8858 48.6303C42.8858 51.007 44.8194 52.9406 47.1961 52.9406C49.5728 52.9406 51.5063 51.007 51.5063 48.6303C51.5063 46.2536 49.5728 44.32 47.1961 44.32C45.9636 44.32 44.8511 44.8408 44.0647 45.6731L39.1823 43.2318C39.2232 42.9937 39.2458 42.7495 39.2458 42.5C39.2458 42.2505 39.2232 42.0063 39.1823 41.7682L44.0647 39.3269C44.8509 40.1592 45.9636 40.68 47.1961 40.68ZM47.1961 34.5497C48.1996 34.5497 49.0161 35.3661 49.0161 36.3697C49.0161 37.3733 48.1996 38.1897 47.1961 38.1897C46.1925 38.1897 45.3761 37.3733 45.3761 36.3697C45.3761 35.3661 46.1925 34.5497 47.1961 34.5497ZM34.9355 44.32C33.9319 44.32 33.1155 43.5036 33.1155 42.5C33.1155 41.4964 33.9319 40.68 34.9355 40.68C35.9391 40.68 36.7555 41.4964 36.7555 42.5C36.7555 43.5036 35.9391 44.32 34.9355 44.32ZM47.1961 46.8103C48.1996 46.8103 49.0161 47.6267 49.0161 48.6303C49.0161 49.6339 48.1996 50.4503 47.1961 50.4503C46.1925 50.4503 45.3761 49.6339 45.3761 48.6303C45.3761 47.6267 46.1925 46.8103 47.1961 46.8103ZM23.3373 64.299H18.8345C18.8044 64.299 18.7782 64.2786 18.7711 64.2495L18.5112 63.2103C18.2262 62.0706 17.2067 61.2745 16.0318 61.2745H8.65506C7.13469 61.2745 5.89771 62.5115 5.89771 64.0319V73.9759C5.89771 75.4963 7.13469 76.7333 8.65506 76.7333H23.3373C24.8579 76.7333 26.0947 75.4963 26.0947 73.9759V67.0564C26.0947 65.5358 24.8577 64.299 23.3373 64.299ZM23.6044 73.9759C23.6044 74.1232 23.4846 74.243 23.3373 74.243H8.65506C8.5078 74.243 8.38794 74.1232 8.38794 73.9759V64.0319C8.38794 63.8846 8.5078 63.7648 8.65506 63.7648H16.0318C16.0618 63.7648 16.0881 63.7852 16.0952 63.8142L16.3549 64.8533C16.6397 65.9932 17.6594 66.7892 18.8343 66.7892H23.3371C23.4844 66.7892 23.6043 66.9091 23.6043 67.0564V73.9759H23.6044ZM80.8514 60.1269C80.2687 60.4921 80.0924 61.2604 80.4575 61.8431C81.8 63.9856 82.5098 66.4617 82.5098 69.0039C82.5098 76.451 76.451 82.5098 69.0039 82.5098C61.5568 82.5098 55.4979 76.451 55.4979 69.0039C55.4979 61.5568 61.5566 55.4979 69.0039 55.4979C71.8305 55.4979 74.5369 56.3615 76.8305 57.9954C77.3907 58.3947 78.1683 58.2637 78.5671 57.7037C78.966 57.1436 78.8355 56.3661 78.2754 55.9672C75.5574 54.0309 72.3513 53.0076 69.0039 53.0076C65.0409 53.0076 61.4105 54.4568 58.6131 56.8522L55.897 54.136C58.609 51.0178 60.253 46.9472 60.253 42.4998C60.253 38.0524 58.609 33.9821 55.897 30.8636L58.6131 28.1475C61.4105 30.5429 65.0409 31.992 69.0039 31.992C77.8241 31.992 85 24.8162 85 15.9958C85 7.17536 77.8241 0 69.0039 0C60.1837 0 53.0076 7.17586 53.0076 15.9961C53.0076 19.9591 54.4568 23.5895 56.8522 26.3869L54.136 29.103C51.0178 26.391 46.9472 24.747 42.4998 24.747C38.0524 24.747 33.9821 26.391 30.8636 29.103L28.1421 26.3815C30.5529 23.5578 31.992 19.9084 31.992 15.9961C31.9924 7.17586 24.8163 0 15.9961 0C7.17586 0 0 7.17586 0 15.9961C0 23.664 5.45843 30.2718 12.9791 31.708C13.058 31.7231 13.1365 31.7304 13.214 31.7304C13.7997 31.7304 14.3217 31.3152 14.4356 30.7185C14.5646 30.0432 14.1216 29.3909 13.4461 29.2621C7.09783 28.0497 2.49023 22.4705 2.49023 15.9961C2.49023 8.54897 8.54897 2.49023 15.9961 2.49023C23.4432 2.49023 29.5021 8.54897 29.5021 15.9961C29.5021 22.3839 24.9679 27.9486 18.7204 29.2274C18.0467 29.3653 17.6124 30.0233 17.7504 30.697C17.8883 31.3706 18.5464 31.8054 19.22 31.667C21.9376 31.1107 24.3801 29.8679 26.385 28.1456L29.1032 30.8638C26.3912 33.9821 24.7471 38.0526 24.7471 42.5C24.7471 46.9474 26.3912 51.0178 29.1032 54.1362L26.387 56.8524C23.5897 54.4569 19.9592 53.0078 15.9963 53.0078C7.17586 53.0076 0 60.1837 0 69.0039C0 77.8241 7.17586 85 15.9961 85C24.8163 85 31.9924 77.8241 31.9924 69.0039C31.9924 65.0409 30.5432 61.4105 28.1478 58.6131L30.864 55.897C33.9822 58.609 38.0528 60.253 42.5002 60.253C46.9476 60.253 51.0179 58.609 54.1364 55.897L56.8526 58.6131C54.4571 61.4105 53.008 65.0409 53.008 69.0039C53.008 77.8241 60.1838 85 69.0042 85C77.8246 85 85 77.8241 85 69.0039C85 65.9935 84.159 63.0602 82.5677 60.5208C82.2025 59.938 81.434 59.762 80.8514 60.1269ZM55.4979 15.9961C55.4979 8.54897 61.5566 2.49023 69.0039 2.49023C76.4512 2.49023 82.5098 8.54897 82.5098 15.9961C82.5098 23.4432 76.451 29.5021 69.0039 29.5021C61.5568 29.5021 55.4979 23.4432 55.4979 15.9961ZM29.5021 69.0039C29.5021 76.451 23.4434 82.5098 15.9961 82.5098C8.54881 82.5098 2.49023 76.451 2.49023 69.0039C2.49023 61.5568 8.54897 55.4979 15.9961 55.4979C23.4432 55.4979 29.5021 61.5568 29.5021 69.0039ZM42.5 57.7628C34.084 57.7628 27.2372 50.916 27.2372 42.5C27.2372 34.084 34.084 27.2372 42.5 27.2372C50.916 27.2372 57.7628 34.084 57.7628 42.5C57.7628 50.916 50.916 57.7628 42.5 57.7628ZM26.0947 20.9681V14.0486C26.0947 12.5282 24.8577 11.2912 23.3373 11.2912H18.8345C18.8044 11.2912 18.7782 11.2708 18.7711 11.2417L18.5112 10.2025C18.2262 9.06279 17.2067 8.26675 16.0318 8.26675H8.65506C7.13469 8.26675 5.89771 9.50373 5.89771 11.0241V20.9681C5.89771 22.4885 7.13469 23.7255 8.65506 23.7255H23.3373C24.8577 23.7255 26.0947 22.4885 26.0947 20.9681ZM8.38777 20.9681V11.0241C8.38777 10.8768 8.50764 10.757 8.65489 10.757H16.0316C16.0617 10.757 16.0879 10.7774 16.095 10.8065L16.3547 11.8455C16.6396 12.9854 17.6592 13.7815 18.8341 13.7815H23.337C23.4842 13.7815 23.6041 13.9013 23.6041 14.0486V20.9681C23.6041 21.1154 23.4842 21.2352 23.337 21.2352H8.65506C8.5078 21.2352 8.38777 21.1154 8.38777 20.9681Z" fill="#0081C5"/>
</g>
<defs>
<clipPath id="clip0_6309_265">
<rect width="85" height="85" fill="white"/>
</clipPath>
</defs>
</svg>
